<svg version="1.0" xmlns="http://www.w3.org/2000/svg" width="933.333" height="933.333" viewBox="0 0 700 700"><path d="M61.9 21.4c-.2.2-1.9.6-3.7.9-1.8.3-6.1 1.9-9.6 3.5C29 35 17.9 56.4 22 77.3c8.2 42.4 63 53.3 86.8 17.2 6.7-10.1 9.3-25.9 6.2-37.4-4.6-17-18.5-30.8-35-34.5-6.3-1.5-17.1-2.2-18.1-1.2zM618.9 22.8c-13.5 3.6-24.4 12.8-30.5 25.7-6.5 13.7-6.5 27.1.1 40.8 18.8 39.5 76.9 34.3 88.6-8 1.6-5.8 2-18.4.7-23.3-2.4-9-7-17-13.4-23.3-11.4-11.3-29.8-16.2-45.5-11.9zM191.5 157.9c-13.9 3.9-25.7 13.8-31.1 26.1-3 6.7-4.2 13.5-4 21.5.8 21.2 15 39 35.6 44.5 4.7 1.3 20.2 1.6 22 .5.5-.3 2-.8 3.2-1 5.3-1.1 14.9-6.8 20.2-12.2 13.6-13.7 17.7-34.4 10.4-51.7-2.8-6.4-8.6-14.4-13.5-18.5-4.3-3.6-14.3-8.7-18.8-9.7-6.7-1.4-18.1-1.2-24 .5zM482.9 158.1c-16.6 4.6-30.1 19.4-33.3 36.8-1.6 8.7-1.2 14.6 1.3 22.8 8.8 29.2 42.9 42.6 69.4 27.2 22.9-13.4 30.4-44.2 16.1-66.6-11.4-17.8-32.8-25.9-53.5-20.2zM344.8 286.5c-.2.2-2.3.5-4.8.8-21.2 2.5-42.9 20.6-49.9 41.6-9.3 27.4.4 57.2 23.6 73.2 5.1 3.5 15.8 8.6 19.9 9.4 11.2 2.3 21.9 2.6 28.4.9 1.4-.3 3.6-.8 4.9-1 3.7-.7 14.5-5.9 19.6-9.4 25.7-17.6 34.3-52.7 20-80.9-8.7-17.1-27-31-44.5-33.6-4.5-.7-16.7-1.4-17.2-1zM194.3 449.6c-9.1 1.9-17.1 6.2-23.8 12.9-7 7.1-10.9 13.8-12.9 22.5-7 29.8 14.3 57.7 44.7 58.5 14.6.4 25.4-3.9 35.7-14.5 24.3-24.7 13.8-66.9-19.4-78-7.5-2.5-16.5-3-24.3-1.4zM487 449.7c-12.6 2.5-25.1 11.2-31.7 21.9-3.8 6.3-6.5 16.1-6.5 24.4-.3 27.3 22.1 48.7 49.6 47.6 35.1-1.5 56.1-38.8 39.6-70.4-9.2-17.6-31-27.6-51-23.5zM59.2 584.6c-26.5 5.4-43.8 33.3-36.4 58.9 2.8 10.1 7.1 16.3 17.4 26 3.3 3 14.8 7.7 21.8 8.8 37.4 5.8 66-33.5 49.5-67.8-5-10.2-12.2-17.4-22.6-22.3-9.8-4.6-19.2-5.7-29.7-3.6zM622.5 584.5c-15.6 3.3-27 11.9-33.9 26-8.7 17.4-5.8 38 7.3 52.6 6.1 6.8 14 11.6 23.3 14 12.1 3.2 21.7 2.2 33.3-3.5 19-9.4 29.4-30.3 25.5-51.2-4.9-25.7-30.3-43-55.5-37.9z"/></svg>