<svg xmlns="http://www.w3.org/2000/svg" width="32" height="32" viewBox="0 0 32 32"><path fill="#fff" d="M22.667 5.333a4 4 0 014 4v13.333a4 4 0 01-4 4H9.334a4 4 0 01-4-4V9.333a4 4 0 014-4h13.333zM9.333 2.667a6.667 6.667 0 00-6.667 6.667v13.333a6.667 6.667 0 006.667 6.667h13.333a6.667 6.667 0 006.667-6.667V9.334a6.667 6.667 0 00-6.667-6.667H9.333z"/><path fill="#fff" d="M21.968 17.769l.553-3.143h-3.458v-2.039c0-.86.482-1.699 2.031-1.699h1.573V8.212S21.24 8 19.876 8c-2.849 0-4.71 1.506-4.71 4.231v2.396H12v3.143h3.166v10.099a14.365 14.365 0 003.896 0V17.77h2.905z"/></svg>