<svg xmlns="http://www.w3.org/2000/svg" width="32" height="32" viewBox="0 0 32 32"><path fill="#fff" d="M3.539 7.035a8.003 8.003 0 013.496-3.496c1.711-.872 3.951-.872 8.432-.872h1.067c4.48 0 6.721 0 8.432.872a8.003 8.003 0 013.496 3.496c.872 1.711.872 3.952.872 8.432v1.067c0 4.48 0 6.721-.872 8.432a8.003 8.003 0 01-3.496 3.496c-1.711.872-3.951.872-8.432.872h-1.067c-4.48 0-6.721 0-8.432-.872a8.003 8.003 0 01-3.496-3.496c-.872-1.711-.872-3.951-.872-8.432v-1.067c0-4.48 0-6.721.872-8.432zm12.994-1.702h-1.067c-2.284 0-3.837.002-5.037.1-1.169.096-1.767.269-2.184.481a5.331 5.331 0 00-2.331 2.331c-.213.417-.386 1.015-.481 2.184-.098 1.2-.1 2.753-.1 5.037v1.067c0 2.284.002 3.837.1 5.037.096 1.169.269 1.767.481 2.184a5.337 5.337 0 002.331 2.331c.417.213 1.015.386 2.184.481 1.2.098 2.753.1 5.037.1h1.067c2.284 0 3.837-.002 5.037-.1 1.169-.095 1.767-.269 2.184-.481a5.337 5.337 0 002.331-2.331c.213-.417.386-1.015.481-2.184.098-1.2.1-2.753.1-5.037v-1.067c0-2.284-.002-3.837-.1-5.037-.095-1.169-.269-1.767-.481-2.184a5.331 5.331 0 00-2.331-2.331c-.417-.213-1.015-.386-2.184-.481-1.2-.098-2.753-.1-5.037-.1zM22.667 16a6.667 6.667 0 10-13.334 0 6.667 6.667 0 0013.334 0zM20 16a4 4 0 11-8 0 4 4 0 018 0zm2.667-5.333a1.333 1.333 0 110-2.667 1.333 1.333 0 010 2.667z"/></svg>