<svg xmlns="http://www.w3.org/2000/svg" width="32" height="32" viewBox="0 0 32 32"><path fill="#fff" d="M12.14 27c-2.965 0-5.73-.863-8.056-2.351 1.975.128 5.462-.178 7.63-2.247-3.262-.15-4.733-2.651-4.925-3.721.277.107 1.599.235 2.345-.064-3.752-.941-4.328-4.234-4.2-5.239.704.492 1.897.663 2.367.62-3.496-2.502-2.239-6.265-1.62-7.078 2.509 3.476 6.27 5.429 10.922 5.537a5.362 5.362 0 01-.134-1.197c0-2.952 2.386-5.346 5.33-5.346 1.538 0 2.924.653 3.897 1.698 1.028-.241 2.575-.805 3.331-1.292-.381 1.369-1.568 2.51-2.285 2.933.006.014-.006-.014 0 0 .631-.095 2.336-.423 3.01-.88-.333.769-1.591 2.047-2.624 2.763.192 8.471-6.289 15.862-14.987 15.862z"/></svg>