<?xml version="1.0" standalone="no"?>
<!DOCTYPE svg PUBLIC "-//W3C//DTD SVG 20010904//EN"
 "http://www.w3.org/TR/2001/REC-SVG-20010904/DTD/svg10.dtd">
<svg version="1.0" xmlns="http://www.w3.org/2000/svg"
 width="700.000000pt" height="700.000000pt" viewBox="0 0 700.000000 700.000000"
 preserveAspectRatio="xMidYMid meet">
<metadata>
Created by potrace 1.14, written by Peter Selinger 2001-2017
</metadata>
<g transform="translate(0.000000,700.000000) scale(0.100000,-0.100000)"
fill="#000000" stroke="none">
<path d="M619 6786 c-2 -2 -19 -6 -37 -9 -18 -3 -61 -19 -96 -35 -196 -92
-307 -306 -266 -515 82 -424 630 -533 868 -172 67 101 93 259 62 374 -46 170
-185 308 -350 345 -63 15 -171 22 -181 12z"/>
<path d="M6189 6772 c-135 -36 -244 -128 -305 -257 -65 -137 -65 -271 1 -408
188 -395 769 -343 886 80 16 58 20 184 7 233 -24 90 -70 170 -134 233 -114
113 -298 162 -455 119z"/>
<path d="M1915 5421 c-139 -39 -257 -138 -311 -261 -30 -67 -42 -135 -40 -215
8 -212 150 -390 356 -445 47 -13 202 -16 220 -5 5 3 20 8 32 10 53 11 149 68
202 122 136 137 177 344 104 517 -28 64 -86 144 -135 185 -43 36 -143 87 -188
97 -67 14 -181 12 -240 -5z"/>
<path d="M4829 5419 c-166 -46 -301 -194 -333 -368 -16 -87 -12 -146 13 -228
88 -292 429 -426 694 -272 229 134 304 442 161 666 -114 178 -328 259 -535
202z"/>
<path d="M3448 4135 c-2 -2 -23 -5 -48 -8 -212 -25 -429 -206 -499 -416 -93
-274 4 -572 236 -732 51 -35 158 -86 199 -94 112 -23 219 -26 284 -9 14 3 36
8 49 10 37 7 145 59 196 94 257 176 343 527 200 809 -87 171 -270 310 -445
336 -45 7 -167 14 -172 10z"/>
<path d="M1943 2504 c-91 -19 -171 -62 -238 -129 -70 -71 -109 -138 -129 -225
-70 -298 143 -577 447 -585 146 -4 254 39 357 145 243 247 138 669 -194 780
-75 25 -165 30 -243 14z"/>
<path d="M4870 2503 c-126 -25 -251 -112 -317 -219 -38 -63 -65 -161 -65 -244
-3 -273 221 -487 496 -476 351 15 561 388 396 704 -92 176 -310 276 -510 235z"/>
<path d="M592 1154 c-265 -54 -438 -333 -364 -589 28 -101 71 -163 174 -260
33 -30 148 -77 218 -88 374 -58 660 335 495 678 -50 102 -122 174 -226 223
-98 46 -192 57 -297 36z"/>
<path d="M6225 1155 c-156 -33 -270 -119 -339 -260 -87 -174 -58 -380 73 -526
61 -68 140 -116 233 -140 121 -32 217 -22 333 35 190 94 294 303 255 512 -49
257 -303 430 -555 379z"/>
</g>
</svg>
