<?xml version="1.0" standalone="no"?>
<!DOCTYPE svg PUBLIC "-//W3C//DTD SVG 20010904//EN"
 "http://www.w3.org/TR/2001/REC-SVG-20010904/DTD/svg10.dtd">
<svg version="1.0" xmlns="http://www.w3.org/2000/svg"
 width="700.000000pt" height="700.000000pt" viewBox="0 0 700.000000 700.000000"
 preserveAspectRatio="xMidYMid meet">
<metadata>
Created by potrace 1.14, written by Peter Selinger 2001-2017
</metadata>
<g transform="translate(0.000000,700.000000) scale(0.100000,-0.100000)"
fill="#000000" stroke="none">
<path d="M0 3500 l0 -3500 3500 0 3500 0 0 3500 0 3500 -3500 0 -3500 0 0
-3500z m1402 2588 c73 -34 152 -112 186 -186 23 -49 27 -70 27 -152 0 -82 -4
-103 -27 -152 -34 -74 -112 -152 -186 -186 -49 -23 -70 -27 -152 -27 -82 0
-103 4 -152 27 -74 34 -152 112 -186 186 -23 49 -27 70 -27 152 0 78 4 104 23
144 45 99 124 172 225 208 75 27 193 21 269 -14z m4500 0 c73 -34 152 -112
186 -186 23 -49 27 -70 27 -152 0 -82 -4 -103 -27 -152 -34 -74 -112 -152
-186 -186 -49 -23 -70 -27 -152 -27 -82 0 -103 4 -152 27 -74 34 -152 112
-186 186 -23 49 -27 70 -27 152 0 78 4 104 23 144 45 99 124 172 225 208 75
27 193 21 269 -14z m-3482 -1027 c79 -30 152 -98 192 -179 30 -61 33 -74 33
-162 0 -87 -3 -101 -32 -161 -148 -300 -584 -268 -683 50 -36 113 -20 220 47
319 96 141 279 196 443 133z m2409 10 c151 -47 261 -195 261 -352 0 -68 -34
-167 -77 -223 -167 -218 -504 -185 -625 61 -142 289 133 610 441 514z m-1214
-1026 c110 -23 189 -68 276 -154 225 -225 225 -557 0 -782 -225 -225 -557
-225 -782 0 -86 87 -131 166 -154 276 -40 191 12 364 154 506 142 142 315 194
506 154z m-1183 -1427 c208 -96 283 -358 155 -544 -67 -97 -193 -164 -308
-164 -64 0 -161 33 -217 73 -87 62 -152 189 -152 296 0 155 112 309 259 356
71 23 193 15 263 -17z m2395 17 c148 -44 263 -199 263 -355 0 -197 -174 -370
-371 -370 -68 0 -167 34 -223 77 -239 183 -171 558 117 648 57 18 153 18 214
0z m-3425 -1047 c73 -34 152 -112 186 -186 23 -49 27 -70 27 -152 0 -82 -4
-103 -27 -152 -34 -74 -112 -152 -186 -186 -49 -23 -70 -27 -152 -27 -82 0
-103 4 -152 27 -74 34 -152 112 -186 186 -23 49 -27 70 -27 152 0 78 4 104 23
144 45 99 124 172 225 208 75 27 193 21 269 -14z m4500 0 c73 -34 152 -112
186 -186 23 -49 27 -70 27 -152 0 -82 -4 -103 -27 -152 -34 -74 -112 -152
-186 -186 -49 -23 -70 -27 -152 -27 -82 0 -103 4 -152 27 -74 34 -152 112
-186 186 -23 49 -27 70 -27 152 0 78 4 104 23 144 45 99 124 172 225 208 75
27 193 21 269 -14z"/>
</g>
</svg>
