<svg width="145" height="145" viewBox="0 0 145 145" fill="none" xmlns="http://www.w3.org/2000/svg">
<path d="M136.366 74.1546L144.483 74.4367C144.561 74.4394 144.598 74.4796 144.596 74.5573L144.561 75.5541C144.558 75.6318 144.518 75.6693 144.44 75.6666L136.323 75.3845C136.245 75.3818 136.208 75.3416 136.211 75.2639L136.245 74.2671C136.248 74.1894 136.288 74.1519 136.366 74.1546Z" fill="white"/>
<path d="M143.311 86.1418L135.266 85.0191C135.189 85.0083 135.156 84.9687 135.165 84.9003L135.316 83.8226C135.324 83.7627 135.356 83.7193 135.412 83.6922L139.79 81.7527C140.663 81.3688 141.51 81.0467 142.332 80.7864C141.624 80.7313 140.834 80.6428 139.962 80.521L135.972 79.9641C135.895 79.9534 135.862 79.9095 135.873 79.8326L136.01 78.8447C136.021 78.7677 136.065 78.7346 136.142 78.7453L144.186 79.8681C144.263 79.8788 144.296 79.9227 144.286 79.9997L144.135 81.0774C144.127 81.1372 144.095 81.1764 144.04 81.1949L139.65 83.1326C138.602 83.5794 137.751 83.9009 137.095 84.0972C137.811 84.1535 138.605 84.2425 139.478 84.3643L143.481 84.923C143.558 84.9337 143.591 84.9776 143.58 85.0546L143.44 86.0553C143.431 86.1237 143.388 86.1526 143.311 86.1418Z" fill="white"/>
<path d="M135.359 92.5025L135.7 92.6248C135.773 92.651 135.798 92.6966 135.775 92.7617L135.434 93.7129C135.408 93.7861 135.358 93.8096 135.285 93.7834L134.944 93.6611C134.537 93.5155 134.224 93.5181 134.005 93.6689C133.794 93.8227 133.577 94.2126 133.352 94.8386L133.326 94.9118C133.102 95.5378 133.023 95.9772 133.088 96.2299C133.161 96.4856 133.401 96.6863 133.808 96.8319L134.113 96.9411C134.422 97.0517 134.663 97.0694 134.837 96.994C135.019 96.9216 135.22 96.7048 135.441 96.3436L136.388 94.8527C136.751 94.2762 137.125 93.9102 137.511 93.7549C137.902 93.6106 138.386 93.6419 138.963 93.8486L139.207 93.936C139.947 94.201 140.407 94.595 140.586 95.118C140.774 95.6439 140.696 96.3865 140.353 97.3459L140.326 97.4191C139.989 98.3622 139.58 98.9773 139.101 99.2644C138.619 99.5597 138.013 99.5762 137.281 99.3142L136.939 99.1919C136.866 99.1656 136.843 99.116 136.869 99.0428L137.205 98.1037C137.231 98.0306 137.281 98.0071 137.354 98.0333L137.696 98.1556C138.102 98.3012 138.411 98.2971 138.622 98.1434C138.838 98.0007 139.053 97.6326 139.265 97.039L139.292 96.9659C139.507 96.3642 139.578 95.9356 139.504 95.6799C139.436 95.4353 139.199 95.2401 138.792 95.0945L138.548 95.0072C138.256 94.9023 138.028 94.885 137.865 94.9551C137.708 95.0363 137.512 95.2505 137.277 95.5977L136.343 97.093C135.966 97.6829 135.582 98.05 135.191 98.1942C134.797 98.3467 134.3 98.3151 133.698 98.0996L133.393 97.9904C132.653 97.7254 132.191 97.3259 132.006 96.7919C131.829 96.2607 131.916 95.5074 132.265 94.5317L132.291 94.4586C132.641 93.4829 133.052 92.846 133.526 92.5479C134.008 92.2526 134.619 92.2375 135.359 92.5025Z" fill="white"/>
<path d="M135.931 106.75L135.13 106.353C135.061 106.319 135.043 106.266 135.077 106.197L136.02 104.293L129.646 101.138C129.577 101.103 129.559 101.051 129.594 100.981L130.036 100.087C130.071 100.018 130.123 100 130.192 100.035L136.566 103.19L137.509 101.286C137.543 101.216 137.595 101.199 137.665 101.233L138.466 101.63C138.535 101.664 138.553 101.716 138.519 101.786L136.087 106.697C136.053 106.766 136.001 106.784 135.931 106.75Z" fill="white"/>
<path d="M129.488 105.859L132.899 108.1C133.555 108.531 133.908 109.032 133.958 109.602C134.002 110.179 133.719 110.933 133.107 111.864L133.064 111.929C132.452 112.86 131.875 113.416 131.333 113.597C130.786 113.785 130.184 113.663 129.527 113.231L126.116 110.991C125.46 110.559 125.109 110.055 125.064 109.478C125.015 108.908 125.296 108.158 125.908 107.227L125.951 107.162C126.563 106.231 127.142 105.671 127.689 105.483C128.232 105.302 128.832 105.428 129.488 105.859ZM126.893 107.781L126.85 107.846C126.447 108.459 126.246 108.906 126.248 109.186C126.25 109.466 126.431 109.725 126.792 109.962L130.203 112.203C130.563 112.44 130.873 112.504 131.131 112.394C131.389 112.285 131.719 111.923 132.122 111.31L132.165 111.245C132.568 110.631 132.769 110.185 132.767 109.904C132.765 109.624 132.584 109.365 132.223 109.128L128.813 106.888C128.452 106.65 128.142 106.587 127.884 106.696C127.626 106.806 127.296 107.167 126.893 107.781Z" fill="white"/>
<path d="M124.193 113.554L127.28 116.222C127.875 116.736 128.162 117.275 128.142 117.84C128.122 118.405 127.759 119.096 127.053 119.913L127.002 119.971C126.296 120.788 125.665 121.247 125.109 121.349C124.553 121.451 123.978 121.245 123.384 120.731L123.021 120.417C122.962 120.367 122.958 120.312 123.009 120.253L123.661 119.498C123.712 119.439 123.767 119.435 123.826 119.486L124.188 119.8C124.508 120.076 124.801 120.181 125.065 120.112C125.336 120.05 125.698 119.757 126.149 119.234L126.2 119.176C126.652 118.653 126.889 118.253 126.912 117.976C126.941 117.704 126.795 117.43 126.475 117.153L123.388 114.485C123.068 114.208 122.772 114.101 122.501 114.164C122.237 114.232 121.879 114.528 121.427 115.05L121.376 115.109C120.924 115.632 120.684 116.029 120.655 116.301C120.632 116.578 120.781 116.855 121.101 117.131L121.464 117.445C121.522 117.496 121.526 117.551 121.476 117.609L120.823 118.364C120.773 118.423 120.718 118.427 120.659 118.376L120.296 118.063C119.702 117.549 119.414 117.009 119.435 116.445C119.455 115.88 119.818 115.189 120.523 114.372L120.574 114.314C121.28 113.497 121.911 113.038 122.467 112.936C123.023 112.834 123.598 113.04 124.193 113.554Z" fill="white"/>
<path d="M112.374 122.694L112.312 122.663C112.277 122.624 112.288 122.579 112.346 122.527L113.24 121.72C113.285 121.679 113.34 121.67 113.407 121.691L117.47 123.137L117.394 121.023L115.952 119.427C115.9 119.37 115.903 119.315 115.961 119.263L116.701 118.594C116.759 118.542 116.814 118.545 116.866 118.602L122.31 124.63C122.362 124.688 122.359 124.743 122.301 124.795L121.561 125.464C121.503 125.516 121.448 125.513 121.396 125.455L118.548 122.302L118.97 127.716C118.967 127.777 118.943 127.828 118.898 127.869L118.013 128.667C117.981 128.696 117.947 128.704 117.911 128.69C117.881 128.682 117.867 128.654 117.87 128.605L117.539 124.47L112.374 122.694Z" fill="white"/>
<path d="M103.194 128.66L107.065 135.8C107.102 135.869 107.086 135.922 107.018 135.959L106.141 136.434C106.072 136.471 106.02 136.455 105.983 136.387L102.112 129.246C102.075 129.178 102.091 129.125 102.159 129.088L103.036 128.613C103.104 128.576 103.157 128.591 103.194 128.66Z" fill="white"/>
<path d="M96.1744 140.767L93.0944 133.252C93.065 133.18 93.0822 133.131 93.1461 133.105L94.153 132.692C94.2089 132.669 94.2627 132.675 94.3143 132.71L98.1942 135.516C98.9655 136.077 99.6703 136.647 100.309 137.225C100 136.586 99.6789 135.859 99.3449 135.044L97.8172 131.316C97.7877 131.244 97.8089 131.194 97.8808 131.164L98.8038 130.786C98.8757 130.756 98.9264 130.778 98.9559 130.85L102.036 138.365C102.065 138.437 102.044 138.488 101.972 138.517L100.965 138.93C100.909 138.953 100.86 138.945 100.816 138.907L96.9312 136.089C96.0178 135.409 95.3113 134.835 94.8118 134.368C95.1236 135.015 95.4465 135.746 95.7805 136.561L97.3131 140.301C97.3426 140.373 97.3214 140.423 97.2495 140.453L96.3145 140.836C96.2506 140.862 96.2039 140.839 96.1744 140.767Z" fill="white"/>
<path d="M86.7231 137.06L86.7883 137.416C86.8023 137.493 86.7753 137.537 86.7073 137.55L85.7134 137.731C85.6369 137.745 85.5917 137.714 85.5777 137.638L85.5125 137.281C85.4349 136.856 85.2759 136.587 85.0355 136.473C84.7967 136.367 84.3503 136.374 83.6961 136.494L83.6197 136.508C82.9655 136.627 82.5455 136.779 82.3595 136.962C82.1751 137.154 82.1217 137.462 82.1994 137.887L82.2576 138.205C82.3166 138.528 82.4223 138.746 82.5745 138.858C82.7284 138.979 83.0169 139.045 83.4402 139.056L85.2049 139.128C85.8855 139.153 86.3896 139.293 86.7174 139.55C87.0382 139.816 87.2538 140.25 87.364 140.854L87.4106 141.108C87.552 141.881 87.4413 142.477 87.0787 142.894C86.7176 143.32 86.0358 143.625 85.0334 143.808L84.9569 143.822C83.9715 144.002 83.2345 143.957 82.7461 143.686C82.2491 143.417 81.9308 142.9 81.791 142.136L81.7258 141.779C81.7118 141.703 81.743 141.657 81.8195 141.643L82.8007 141.464C82.8772 141.45 82.9224 141.481 82.9364 141.558L83.0016 141.914C83.0792 142.339 83.2375 142.604 83.4762 142.71C83.7081 142.826 84.1341 142.827 84.7542 142.713L84.8307 142.699C85.4593 142.584 85.8659 142.431 86.0503 142.239C86.2278 142.058 86.2777 141.754 86.2001 141.33L86.1535 141.075C86.0975 140.769 85.9985 140.563 85.8562 140.458C85.7071 140.362 85.4235 140.3 85.0056 140.271L83.2432 140.211C82.5442 140.181 82.0342 140.033 81.7134 139.766C81.3841 139.502 81.162 139.055 81.047 138.426L80.9888 138.108C80.8474 137.335 80.9616 136.735 81.3311 136.307C81.7023 135.888 82.3976 135.585 83.417 135.399L83.4935 135.385C84.5129 135.199 85.2703 135.236 85.7657 135.496C86.2626 135.765 86.5818 136.286 86.7231 137.06Z" fill="white"/>
<path d="M74.7744 144.708L74.7123 143.816C74.707 143.738 74.743 143.697 74.8206 143.691L76.9399 143.544L76.4465 136.449C76.4411 136.372 76.4771 136.33 76.5547 136.325L77.5497 136.256C77.6273 136.25 77.6687 136.286 77.6741 136.364L78.1676 143.459L80.2869 143.311C80.3645 143.306 80.4059 143.342 80.4113 143.419L80.4734 144.311C80.4787 144.389 80.4427 144.43 80.3651 144.436L74.8988 144.816C74.8212 144.821 74.7798 144.785 74.7744 144.708Z" fill="white"/>
<path d="M72.0933 138.688L71.873 142.762C71.8305 143.547 71.5755 144.104 71.108 144.433C70.6318 144.762 69.8375 144.896 68.7251 144.836L68.6475 144.832C67.5351 144.772 66.7642 144.553 66.3349 144.175C65.897 143.797 65.6992 143.215 65.7417 142.431L65.962 138.356C66.0044 137.571 66.2637 137.015 66.7399 136.686C67.2074 136.356 67.9974 136.222 69.1098 136.282L69.1875 136.286C70.2999 136.346 71.0751 136.566 71.513 136.944C71.9423 137.322 72.1357 137.903 72.0933 138.688ZM69.1266 137.412L69.049 137.407C68.316 137.368 67.8289 137.419 67.5877 137.562C67.3464 137.704 67.2142 137.991 67.1908 138.423L66.9705 142.497C66.9472 142.928 67.0478 143.228 67.2722 143.396C67.4966 143.563 67.9754 143.667 68.7084 143.707L68.786 143.711C69.519 143.751 70.0061 143.699 70.2473 143.556C70.4885 143.414 70.6208 143.127 70.6441 142.696L70.8644 138.621C70.8878 138.19 70.7872 137.891 70.5628 137.723C70.3383 137.555 69.8596 137.451 69.1266 137.412Z" fill="white"/>
<path d="M62.7857 137.978L62.0365 141.989C61.8922 142.762 61.571 143.281 61.0731 143.549C60.5751 143.816 59.7956 143.85 58.7344 143.652L58.658 143.638C57.5968 143.44 56.8823 143.126 56.5144 142.697C56.1464 142.268 56.0346 141.667 56.1789 140.895L56.2669 140.424C56.2811 140.347 56.3265 140.316 56.4029 140.331L57.3834 140.514C57.4598 140.528 57.4909 140.573 57.4766 140.65L57.3886 141.121C57.3109 141.537 57.3681 141.842 57.5603 142.036C57.7509 142.238 58.1858 142.403 58.8649 142.53L58.9413 142.544C59.6205 142.671 60.0855 142.674 60.3363 142.554C60.5856 142.443 60.749 142.179 60.8267 141.763L61.5759 137.752C61.6536 137.336 61.5972 137.027 61.4066 136.824C61.2144 136.63 60.7788 136.47 60.0996 136.343L60.0232 136.329C59.3441 136.202 58.8799 136.194 58.6306 136.306C58.3798 136.426 58.2155 136.694 58.1378 137.11L58.0498 137.581C58.0355 137.657 57.9902 137.688 57.9138 137.674L56.9333 137.491C56.8569 137.477 56.8258 137.431 56.8401 137.355L56.9281 136.884C57.0724 136.111 57.3935 135.591 57.8914 135.324C58.3894 135.057 59.169 135.022 60.2301 135.221L60.3065 135.235C61.3677 135.433 62.0822 135.747 62.4502 136.176C62.8181 136.605 62.93 137.205 62.7857 137.978Z" fill="white"/>
<path d="M48.9338 132.346L48.9289 132.277C48.9447 132.227 48.9896 132.214 49.0636 132.238L50.2109 132.606C50.2685 132.624 50.3045 132.667 50.319 132.735L51.1101 136.975L52.8995 135.847L53.5556 133.8C53.5793 133.726 53.6281 133.7 53.7022 133.724L54.6521 134.028C54.7261 134.052 54.7512 134.101 54.7275 134.175L52.2494 141.91C52.2257 141.984 52.1769 142.009 52.1028 141.985L51.1529 141.681C51.0789 141.657 51.0538 141.609 51.0775 141.535L52.3738 137.488L47.9035 140.572C47.8492 140.6 47.7933 140.605 47.7357 140.586L46.6008 140.223C46.5597 140.21 46.5361 140.184 46.5302 140.146C46.5217 140.116 46.5391 140.09 46.5826 140.067L49.9921 137.705L48.9338 132.346Z" fill="white"/>
<path d="M39.2049 127.382L34.9459 134.298C34.9051 134.364 34.8517 134.377 34.7855 134.336L33.9362 133.813C33.87 133.772 33.8573 133.719 33.898 133.653L38.1571 126.737C38.1978 126.67 38.2513 126.658 38.3175 126.698L39.1668 127.222C39.233 127.262 39.2457 127.316 39.2049 127.382Z" fill="white"/>
<path d="M25.2325 127.373L30.2001 120.947C30.2476 120.886 30.2987 120.876 30.3534 120.918L31.2143 121.584C31.2621 121.621 31.2838 121.67 31.2795 121.732L30.7902 126.495C30.69 127.444 30.5491 128.339 30.3676 129.181C30.7665 128.595 31.2354 127.953 31.7741 127.256L34.2381 124.069C34.2856 124.007 34.3401 124 34.4016 124.048L35.1908 124.658C35.2523 124.705 35.2593 124.76 35.2117 124.821L30.2442 131.247C30.1966 131.309 30.1421 131.316 30.0806 131.268L29.2197 130.603C29.1719 130.566 29.1536 130.519 29.1648 130.462L29.6619 125.689C29.7941 124.557 29.9377 123.659 30.0925 122.993C29.6883 123.586 29.2168 124.231 28.678 124.928L26.2061 128.126C26.1586 128.187 26.1041 128.194 26.0426 128.147L25.2432 127.529C25.1885 127.486 25.1849 127.435 25.2325 127.373Z" fill="white"/>
<path d="M23.7101 117.353L23.4348 117.589C23.3758 117.64 23.3238 117.639 23.2788 117.586L22.6209 116.82C22.5703 116.761 22.5745 116.706 22.6335 116.655L22.9088 116.419C23.2365 116.138 23.3891 115.865 23.3665 115.6C23.3373 115.34 23.1062 114.958 22.6733 114.453L22.6227 114.394C22.1897 113.89 21.8472 113.603 21.5952 113.535C21.3366 113.472 21.0435 113.582 20.7157 113.863L20.4699 114.074C20.2209 114.287 20.0861 114.488 20.0655 114.677C20.0385 114.87 20.1271 115.153 20.3315 115.524L21.1584 117.084C21.4799 117.685 21.6127 118.191 21.5567 118.603C21.4885 119.014 21.2217 119.42 20.7563 119.819L20.5597 119.987C19.9632 120.499 19.3933 120.704 18.85 120.601C18.3001 120.504 17.6934 120.068 17.0298 119.295L16.9792 119.236C16.3269 118.476 15.9946 117.816 15.9821 117.258C15.9641 116.693 16.25 116.158 16.8399 115.652L17.1152 115.415C17.1742 115.365 17.229 115.369 17.2796 115.428L17.9291 116.185C17.9797 116.244 17.9755 116.299 17.9165 116.349L17.6412 116.586C17.3135 116.867 17.1642 117.137 17.1934 117.397C17.2104 117.655 17.4241 118.024 17.8346 118.502L17.8852 118.561C18.3013 119.046 18.6386 119.32 18.8972 119.383C19.1436 119.444 19.4306 119.335 19.7584 119.053L19.955 118.885C20.191 118.682 20.3187 118.493 20.3383 118.317C20.3458 118.14 20.2566 117.864 20.071 117.488L19.2343 115.936C18.9081 115.317 18.779 114.802 18.8472 114.39C18.9098 113.973 19.1836 113.556 19.6686 113.14L19.9144 112.929C20.5109 112.417 21.0869 112.213 21.6424 112.317C22.1914 112.426 22.8032 112.874 23.478 113.661L23.5286 113.72C24.2034 114.506 24.5531 115.179 24.5777 115.738C24.5957 116.303 24.3065 116.841 23.7101 117.353Z" fill="white"/>
<path d="M11.0949 110.89L11.8346 110.389C11.8989 110.345 11.9529 110.355 11.9965 110.42L13.189 112.178L19.0748 108.186C19.1391 108.142 19.1931 108.152 19.2367 108.217L19.7966 109.042C19.8402 109.107 19.8299 109.161 19.7655 109.204L13.8798 113.196L15.0723 114.954C15.116 115.019 15.1056 115.073 15.0413 115.116L14.3016 115.618C14.2372 115.662 14.1833 115.651 14.1396 115.587L11.0638 111.052C11.0202 110.988 11.0305 110.934 11.0949 110.89Z" fill="white"/>
<path d="M15.0548 105.74L11.4251 107.604C10.726 107.964 10.1164 108.024 9.5963 107.787C9.07221 107.541 8.55565 106.923 8.04663 105.932L8.01112 105.863C7.5021 104.872 7.30247 104.096 7.41224 103.535C7.51807 102.966 7.92051 102.502 8.61956 102.143L12.2493 100.278C12.9483 99.9191 13.5599 99.8623 14.084 100.108C14.6041 100.345 15.1187 100.96 15.6277 101.951L15.6632 102.02C16.1723 103.011 16.3739 103.791 16.268 104.36C16.1583 104.921 15.7538 105.381 15.0548 105.74ZM14.6608 102.535L14.6252 102.466C14.2898 101.813 13.9997 101.418 13.7549 101.281C13.5101 101.145 13.1956 101.176 12.8116 101.373L9.18185 103.237C8.79776 103.435 8.58984 103.672 8.55811 103.951C8.52637 104.229 8.67821 104.695 9.01361 105.348L9.04912 105.417C9.38452 106.07 9.67463 106.465 9.91944 106.601C10.1643 106.738 10.4787 106.707 10.8628 106.51L14.4925 104.645C14.8766 104.448 15.0845 104.21 15.1163 103.932C15.148 103.653 14.9962 103.188 14.6608 102.535Z" fill="white"/>
<path d="M11.0031 97.4261L7.16157 98.8021C6.42171 99.0671 5.81085 99.052 5.32899 98.7567C4.84714 98.4615 4.4242 97.8057 4.06019 96.7894L4.03398 96.7163C3.66997 95.7 3.58037 94.9248 3.7652 94.3908C3.95002 93.8567 4.41236 93.4572 5.15222 93.1922L5.60345 93.0306C5.67662 93.0044 5.72631 93.0279 5.75252 93.101L6.08887 94.0401C6.11508 94.1133 6.0916 94.163 6.01842 94.1892L5.56719 94.3508C5.16881 94.4935 4.9343 94.6967 4.86367 94.9605C4.78491 95.2272 4.86201 95.6858 5.09498 96.3362L5.12119 96.4094C5.35416 97.0598 5.58574 97.4631 5.81593 97.6191C6.03799 97.7781 6.34821 97.7862 6.74659 97.6435L10.5881 96.2676C10.9865 96.1249 11.2251 95.9202 11.3039 95.6535C11.3745 95.3897 11.2933 94.9325 11.0604 94.2821L11.0342 94.209C10.8012 93.5585 10.5737 93.1538 10.3516 92.9949C10.1214 92.8388 9.80713 92.8321 9.40875 92.9748L8.95752 93.1364C8.88435 93.1626 8.83466 93.1392 8.80845 93.066L8.4721 92.1269C8.44589 92.0538 8.46937 92.0041 8.54254 91.9779L8.99377 91.8163C9.73363 91.5512 10.3445 91.5664 10.8263 91.8616C11.3082 92.1569 11.7311 92.8126 12.0952 93.8289L12.1214 93.9021C12.4854 94.9184 12.575 95.6935 12.3901 96.2276C12.2053 96.7616 11.743 97.1611 11.0031 97.4261Z" fill="white"/>
<path d="M8.86967 82.5409L8.92742 82.5018C8.97804 82.4907 9.01165 82.5231 9.02824 82.5991L9.2855 83.776C9.29841 83.8351 9.27902 83.8879 9.22734 83.9346L5.9564 86.7446L7.82876 87.7277L9.92955 87.2685C10.0055 87.2519 10.0517 87.2815 10.0683 87.3575L10.2813 88.3319C10.2979 88.4079 10.2683 88.4541 10.1923 88.4707L2.25745 90.2051C2.18152 90.2217 2.13526 90.1921 2.11866 90.1161L1.90566 89.1417C1.88906 89.0658 1.91873 89.0195 1.99466 89.0029L6.14561 88.0956L1.23589 85.7742C1.18449 85.7412 1.15233 85.6952 1.13942 85.6362L0.884928 84.4719C0.875708 84.4297 0.886127 84.3965 0.916186 84.3722C0.937809 84.3498 0.969182 84.3518 1.01031 84.3782L4.76417 86.1433L8.86967 82.5409Z" fill="white"/>
<path d="M8.23581 71.354L0.116544 71.1346C0.0388482 71.1325 0.00104986 71.0926 0.00314957 71.0149L0.0300959 70.0178C0.0321956 69.9401 0.0720936 69.9023 0.14979 69.9044L8.26905 70.1238C8.34675 70.1259 8.38455 70.1658 8.38245 70.2435L8.3555 71.2406C8.3534 71.3183 8.3135 71.3561 8.23581 71.354Z" fill="white"/>
<path d="M1.19206 59.4704L9.2447 60.5313C9.32175 60.5415 9.35577 60.5808 9.34675 60.6493L9.20461 61.7281C9.19671 61.788 9.16482 61.8318 9.10894 61.8592L4.74623 63.8323C3.87597 64.2229 3.03129 64.5515 2.21219 64.8181C2.91993 64.8678 3.71046 64.9502 4.58379 65.0653L8.578 65.5915C8.65506 65.6017 8.68851 65.6453 8.67836 65.7223L8.54806 66.7112C8.53791 66.7883 8.49431 66.8218 8.41725 66.8116L0.364612 65.7506C0.287553 65.7405 0.2541 65.6969 0.264253 65.6198L0.406391 64.541C0.414288 64.4811 0.445614 64.4416 0.500371 64.4227L4.87592 62.4513C5.92014 61.9966 6.7691 61.6686 7.4228 61.4672C6.70651 61.4164 5.91169 61.3335 5.03836 61.2184L1.03131 60.6905C0.95425 60.6803 0.920797 60.6367 0.93095 60.5596L1.06294 59.5579C1.07196 59.4894 1.115 59.4602 1.19206 59.4704Z" fill="white"/>
<path d="M9.06344 53.0963L8.72106 52.9766C8.64769 52.9509 8.62241 52.9055 8.64522 52.8402L8.97877 51.8865C9.00443 51.8131 9.05394 51.7892 9.12731 51.8149L9.46969 51.9346C9.87729 52.0772 10.1901 52.0722 10.4081 51.9197C10.618 51.7644 10.8326 51.3729 11.0522 50.7452L11.0778 50.6718C11.2973 50.0441 11.3734 49.6041 11.3061 49.3519C11.2307 49.0968 10.9891 48.8979 10.5815 48.7554L10.2758 48.6485C9.96605 48.5401 9.72457 48.5243 9.55138 48.601C9.37003 48.6748 9.17018 48.8931 8.95182 49.2559L8.01623 50.7539C7.65813 51.3331 7.28673 51.7019 6.90203 51.8601C6.51204 52.0073 6.02764 51.9797 5.44885 51.7773L5.20429 51.6918C4.46247 51.4324 3.99978 51.0418 3.81625 50.5202C3.62456 49.9957 3.69692 49.2525 4.03332 48.2906L4.05898 48.2172C4.38968 47.2716 4.79342 46.6534 5.27019 46.3627C5.74981 46.0638 6.35646 46.0427 7.09014 46.2993L7.43252 46.419C7.50589 46.4447 7.52974 46.4942 7.50409 46.5676L7.17481 47.5091C7.14915 47.5825 7.09964 47.6063 7.02627 47.5807L6.68389 47.4609C6.27629 47.3184 5.96757 47.3248 5.75771 47.4801C5.54256 47.6245 5.33092 47.9942 5.12281 48.5893L5.09715 48.6626C4.88619 49.2659 4.81844 49.695 4.8939 49.9502C4.96406 50.1943 5.20294 50.3876 5.61054 50.5301L5.8551 50.6157C6.14857 50.7183 6.3764 50.7339 6.53859 50.6626C6.69548 50.5802 6.88984 50.3646 7.12165 50.0156L8.04501 48.5133C8.41696 47.9206 8.79794 47.5507 9.18793 47.4034C9.58078 47.2481 10.0788 47.2759 10.6821 47.4868L10.9878 47.5937C11.7296 47.8532 12.1949 48.2492 12.3838 48.7818C12.5645 49.3116 12.4837 50.0656 12.1416 51.0439L12.116 51.1172C11.7739 52.0955 11.3671 52.7354 10.8956 53.0371C10.416 53.336 9.80527 53.3557 9.06344 53.0963Z" fill="white"/>
<path d="M8.3885 38.8103L9.19247 39.2009C9.26238 39.2348 9.28035 39.2868 9.24638 39.3567L8.31797 41.2676L14.7147 44.3755C14.7846 44.4095 14.8026 44.4614 14.7686 44.5313L14.3327 45.4285C14.2988 45.4984 14.2468 45.5164 14.1769 45.4824L7.78017 42.3745L6.85175 44.2854C6.81779 44.3553 6.76585 44.3732 6.69594 44.3393L5.89197 43.9487C5.82206 43.9147 5.80409 43.8628 5.83806 43.7928L8.23269 38.8642C8.26666 38.7943 8.31859 38.7763 8.3885 38.8103Z" fill="white"/>
<path d="M14.6951 39.8785L11.2604 37.6753C10.5989 37.251 10.2403 36.7543 10.1848 36.1851C10.1339 35.6087 10.4091 34.8516 11.0106 33.9139L11.0526 33.8485C11.6541 32.9107 12.2251 32.3485 12.7656 32.1616C13.3107 31.9675 13.9141 32.0826 14.5756 32.5069L18.0102 34.7101C18.6717 35.1344 19.0279 35.6348 19.0789 36.2112C19.1344 36.7804 18.8615 37.5338 18.26 38.4715L18.218 38.537C17.6165 39.4747 17.0432 40.0406 16.4981 40.2347C15.9576 40.4215 15.3566 40.3028 14.6951 39.8785ZM17.2694 37.9285L17.3114 37.863C17.7077 37.2452 17.9034 36.7961 17.8984 36.5159C17.8935 36.2357 17.7093 35.9791 17.3458 35.7459L13.9111 33.5428C13.5477 33.3097 13.2376 33.2493 12.9808 33.3616C12.7241 33.474 12.3976 33.8391 12.0012 34.4569L11.9593 34.5224C11.5629 35.1402 11.3672 35.5893 11.3722 35.8695C11.3771 36.1497 11.5614 36.4063 11.9248 36.6395L15.3595 38.8426C15.723 39.0757 16.0331 39.1361 16.2898 39.0238C16.5465 38.9115 16.8731 38.5463 17.2694 37.9285Z" fill="white"/>
<path d="M19.8893 32.1216L16.773 29.4873C16.1728 28.9799 15.8797 28.4438 15.8936 27.8788C15.9076 27.3139 16.263 26.6192 16.9599 25.7948L17.0101 25.7355C17.707 24.911 18.3329 24.445 18.8876 24.3372C19.4423 24.2294 20.0198 24.4292 20.62 24.9366L20.986 25.246C21.0454 25.2962 21.05 25.3509 20.9998 25.4103L20.3558 26.1721C20.3057 26.2314 20.2509 26.236 20.1915 26.1858L19.8255 25.8764C19.5023 25.6032 19.2089 25.5022 18.9452 25.5733C18.675 25.6388 18.3168 25.9354 17.8708 26.463L17.8206 26.5224C17.3746 27.05 17.1417 27.4525 17.1221 27.7299C17.0958 28.0018 17.2443 28.2743 17.5675 28.5475L20.6837 31.1818C21.0069 31.455 21.3036 31.5588 21.5739 31.4933C21.8376 31.4222 22.1924 31.1228 22.6384 30.5952L22.6886 30.5358C23.1346 30.0082 23.3708 29.6085 23.397 29.3366C23.4167 29.0592 23.2649 28.7839 22.9417 28.5107L22.5757 28.2013C22.5164 28.1511 22.5118 28.0964 22.5619 28.037L23.2059 27.2753C23.2561 27.2159 23.3108 27.2113 23.3702 27.2615L23.7362 27.5709C24.3364 28.0783 24.6295 28.6144 24.6156 29.1794C24.6016 29.7443 24.2462 30.439 23.5493 31.2634L23.4991 31.3228C22.8022 32.1472 22.1764 32.6133 21.6216 32.721C21.0669 32.8288 20.4894 32.629 19.8893 32.1216Z" fill="white"/>
<path d="M31.7936 22.6794L31.8564 22.7096C31.8914 22.7478 31.8803 22.7932 31.823 22.8457L30.9348 23.6596C30.8902 23.7005 30.8348 23.7103 30.7685 23.689L26.6952 22.2735L26.7863 24.3863L28.2392 25.9717C28.2917 26.029 28.2893 26.0839 28.232 26.1364L27.4966 26.8103C27.4393 26.8628 27.3844 26.8604 27.3319 26.8031L21.8444 20.815C21.7919 20.7577 21.7943 20.7027 21.8516 20.6502L22.587 19.9763C22.6443 19.9238 22.6992 19.9262 22.7517 19.9835L25.6223 23.1161L25.1616 17.7048C25.1643 17.6438 25.1879 17.5929 25.2325 17.552L26.1111 16.7469C26.1429 16.7177 26.1769 16.71 26.213 16.7238C26.2432 16.7312 26.2573 16.7594 26.2551 16.8082L26.6158 20.9406L31.7936 22.6794Z" fill="white"/>
<path d="M40.7734 16.7022L36.8503 9.59027C36.8127 9.52222 36.828 9.46942 36.896 9.43188L37.7694 8.95008C37.8375 8.91254 37.8903 8.9278 37.9278 8.99586L41.851 16.1078C41.8885 16.1758 41.8733 16.2286 41.8052 16.2662L40.9318 16.748C40.8638 16.7855 40.811 16.7703 40.7734 16.7022Z" fill="white"/>
<path d="M47.6139 4.54944L50.75 12.0418C50.78 12.1135 50.7632 12.1627 50.6994 12.1894L49.6957 12.6095C49.6399 12.6329 49.5861 12.6273 49.5342 12.5928L45.6335 9.81601C44.858 9.26057 44.1489 8.69605 43.5063 8.12246C43.8195 8.75903 44.1462 9.4836 44.4863 10.2962L46.0419 14.0125C46.0719 14.0842 46.051 14.135 45.9793 14.165L45.0592 14.5502C44.9875 14.5802 44.9367 14.5593 44.9067 14.4876L41.7706 6.99527C41.7406 6.92357 41.7614 6.87272 41.8331 6.84271L42.8369 6.42257C42.8927 6.39923 42.9425 6.40645 42.9864 6.44425L46.8921 9.23303C47.8106 9.90648 48.5213 10.475 49.0243 10.9385C48.7077 10.294 48.3794 9.56543 48.0393 8.75286L46.4787 5.0246C46.4487 4.9529 46.4696 4.90205 46.5413 4.87204L47.4733 4.48191C47.5371 4.45523 47.5839 4.47774 47.6139 4.54944Z" fill="white"/>
<path d="M56.9323 8.15619L56.863 7.80016C56.8481 7.72387 56.8746 7.67912 56.9424 7.66592L57.9342 7.47281C58.0105 7.45796 58.0561 7.48868 58.0709 7.56497L58.1402 7.921C58.2228 8.34484 58.3848 8.61243 58.6265 8.72375C58.8665 8.8266 59.3128 8.81448 59.9655 8.68739L60.0418 8.67254C60.6945 8.54545 61.1128 8.38922 61.2967 8.20386C61.4789 8.01001 61.5288 7.70116 61.4462 7.27732L61.3843 6.95944C61.3216 6.63732 61.2135 6.42082 61.0599 6.30994C60.9047 6.19059 60.6154 6.12814 60.192 6.1226L58.4266 6.0704C57.7458 6.05338 57.2401 5.91869 56.9094 5.66634C56.5856 5.40386 56.3651 4.97169 56.2479 4.36983L56.1984 4.11552C56.0482 3.34412 56.152 2.74763 56.5098 2.32603C56.866 1.89595 57.5442 1.58354 58.5445 1.38878L58.6208 1.37393C59.6041 1.18248 60.3415 1.21926 60.833 1.48429C61.333 1.74767 61.6573 2.26082 61.8058 3.02374L61.8751 3.37977C61.89 3.45607 61.8593 3.50164 61.783 3.51649L60.8039 3.70712C60.7276 3.72198 60.682 3.69126 60.6672 3.61496L60.5979 3.25893C60.5153 2.83509 60.3541 2.57175 60.1141 2.4689C59.881 2.35593 59.455 2.35968 58.8362 2.48016L58.7599 2.49502C58.1326 2.61715 57.7278 2.77514 57.5456 2.96899C57.3702 3.15271 57.3238 3.45649 57.4063 3.88033L57.4558 4.13464C57.5152 4.43981 57.6167 4.64441 57.7601 4.74846C57.9104 4.84238 58.1946 4.90142 58.6128 4.92557L60.3758 4.96505C61.0751 4.98725 61.5868 5.12958 61.9106 5.39207C62.2429 5.6529 62.4702 6.09696 62.5923 6.72425L62.6542 7.04213C62.8044 7.81353 62.6972 8.41509 62.3325 8.84682C61.9662 9.27006 61.2744 9.58072 60.2572 9.77877L60.1809 9.79363C59.1637 9.99168 58.4059 9.96326 57.9076 9.70835C57.4076 9.44497 57.0825 8.92759 56.9323 8.15619Z" fill="white"/>
<path d="M68.9928 0.340022L69.0617 1.2312C69.0677 1.30869 69.032 1.35043 68.9545 1.35642L66.8363 1.52015L67.3844 8.61081C67.3904 8.6883 67.3547 8.73004 67.2772 8.73603L66.2827 8.81291C66.2052 8.8189 66.1634 8.78315 66.1574 8.70565L65.6093 1.615L63.4912 1.77873C63.4137 1.78472 63.3719 1.74897 63.366 1.67148L63.2971 0.780303C63.2911 0.702809 63.3268 0.661067 63.4043 0.655077L68.8676 0.232767C68.9451 0.226777 68.9869 0.262528 68.9928 0.340022Z" fill="white"/>
<path d="M71.9369 6.31483L72.1258 2.23866C72.1621 1.45362 72.4128 0.894643 72.8778 0.561732C73.3514 0.22922 74.1446 0.0887504 75.2575 0.140322L75.3351 0.14392C76.448 0.195491 77.2205 0.40852 77.6527 0.783008C78.0936 1.1579 78.2958 1.73786 78.2594 2.5229L78.0705 6.59907C78.0341 7.38411 77.7791 7.94289 77.3055 8.2754C76.8405 8.60831 76.0516 8.74898 74.9388 8.69741L74.8611 8.69381C73.7483 8.64224 72.9714 8.42901 72.5306 8.05412C72.0984 7.67963 71.9005 7.09987 71.9369 6.31483ZM74.9133 7.56801L74.9909 7.57161C75.7242 7.60559 76.2109 7.55033 76.451 7.40585C76.6912 7.26136 76.8212 6.97344 76.8412 6.5421L77.0301 2.46593C77.0501 2.03459 76.9472 1.73588 76.7215 1.56981C76.4958 1.40373 76.0163 1.3037 75.283 1.26972L75.2053 1.26612C74.4721 1.23214 73.9854 1.28739 73.7452 1.43188C73.5051 1.57637 73.3751 1.86429 73.3551 2.29563L73.1662 6.3718C73.1462 6.80314 73.2491 7.10185 73.4748 7.26792C73.7005 7.434 74.18 7.53403 74.9133 7.56801Z" fill="white"/>
<path d="M81.1662 6.92816L81.8847 2.91137C82.0231 2.13777 82.3402 1.61547 82.8361 1.34447C83.332 1.07347 84.1113 1.03302 85.1739 1.22309L85.2504 1.23678C86.3131 1.42685 87.03 1.73494 87.4012 2.16104C87.7724 2.58714 87.8889 3.18699 87.7505 3.9606L87.6661 4.43241C87.6524 4.50892 87.6073 4.54033 87.5308 4.52665L86.5489 4.35102C86.4724 4.33733 86.441 4.29223 86.4547 4.21572L86.5391 3.74391C86.6136 3.32735 86.554 3.02279 86.3604 2.83024C86.1682 2.62918 85.7321 2.46783 85.052 2.34618L84.9755 2.33249C84.2954 2.21084 83.8304 2.21101 83.5805 2.333C83.3321 2.44648 83.1706 2.7115 83.0961 3.12806L82.3776 7.14485C82.3031 7.56141 82.3619 7.87021 82.5541 8.07127C82.7477 8.26383 83.1846 8.42093 83.8647 8.54258L83.9412 8.55627C84.6213 8.67791 85.0855 8.682 85.3339 8.56851C85.5839 8.44653 85.7461 8.17726 85.8206 7.7607L85.905 7.28889C85.9187 7.21237 85.9638 7.18096 86.0403 7.19465L87.0222 7.37028C87.0987 7.38396 87.1301 7.42906 87.1164 7.50557L87.032 7.97739C86.8936 8.75099 86.5765 9.27329 86.0806 9.54429C85.5847 9.81528 84.8054 9.85574 83.7428 9.66566L83.6662 9.65198C82.6036 9.4619 81.8867 9.15381 81.5155 8.72772C81.1442 8.30162 81.0278 7.70177 81.1662 6.92816Z" fill="white"/>
<path d="M94.936 12.3931L94.9415 12.4627C94.926 12.5121 94.8812 12.5253 94.807 12.5021L93.657 12.1432C93.5993 12.1252 93.5629 12.0822 93.548 12.0142L92.7248 7.78129L90.944 8.92183L90.3034 10.9746C90.2803 11.0488 90.2316 11.0743 90.1574 11.0511L89.2052 10.754C89.131 10.7308 89.1055 10.6822 89.1287 10.608L91.5483 2.85452C91.5714 2.78032 91.6201 2.7548 91.6943 2.77796L92.6465 3.0751C92.7207 3.09826 92.7462 3.14693 92.723 3.22113L91.4573 7.27716L95.9042 4.15957C95.9582 4.13122 96.0141 4.12604 96.0719 4.14405L97.2095 4.49908C97.2507 4.51194 97.2744 4.53744 97.2806 4.57556C97.2894 4.60544 97.2722 4.63172 97.2289 4.6544L93.8373 7.04285L94.936 12.3931Z" fill="white"/>
<path d="M104.901 17.3182L109.11 10.3711C109.15 10.3046 109.203 10.2915 109.27 10.3318L110.123 10.8486C110.189 10.8888 110.202 10.9422 110.162 11.0087L105.954 17.9558C105.914 18.0223 105.86 18.0354 105.794 17.9951L104.941 17.4784C104.874 17.4381 104.861 17.3847 104.901 17.3182Z" fill="white"/>
<path d="M118.769 17.1289L113.848 23.591C113.801 23.6528 113.75 23.6628 113.695 23.6209L112.83 22.9617C112.781 22.9251 112.759 22.8757 112.763 22.8136L113.218 18.047C113.311 17.0977 113.445 16.2014 113.621 15.358C113.226 15.9476 112.762 16.5928 112.228 17.2937L109.788 20.4989C109.741 20.5608 109.686 20.5681 109.624 20.5211L108.831 19.9168C108.769 19.8697 108.762 19.8152 108.809 19.7534L113.729 13.2913C113.776 13.2295 113.831 13.2221 113.893 13.2692L114.758 13.9284C114.806 13.965 114.825 14.0118 114.814 14.0687L114.352 18.8455C114.228 19.9777 114.091 20.8775 113.941 21.5448C114.341 20.9484 114.808 20.2998 115.341 19.5989L117.79 16.3833C117.837 16.3215 117.891 16.3141 117.953 16.3612L118.757 16.9733C118.812 17.0152 118.816 17.067 118.769 17.1289Z" fill="white"/>
<path d="M120.503 27.2163L120.776 26.9781C120.835 26.9271 120.887 26.9276 120.932 26.9797L121.596 27.7418C121.647 27.8004 121.643 27.8552 121.584 27.9063L121.311 28.1444C120.985 28.428 120.835 28.7022 120.859 28.9671C120.89 29.2263 121.124 29.6067 121.561 30.1082L121.612 30.1669C122.048 30.6684 122.393 30.9524 122.645 31.0188C122.904 31.0796 123.197 30.9682 123.522 30.6847L123.767 30.472C124.014 30.2565 124.147 30.0546 124.167 29.8661C124.192 29.672 124.102 29.3903 123.894 29.0209L123.056 27.4663C122.73 26.8684 122.594 26.3631 122.647 25.9506C122.712 25.5388 122.976 25.1317 123.438 24.729L123.634 24.5589C124.227 24.0429 124.795 23.8343 125.339 23.9331C125.89 24.0263 126.499 24.4572 127.169 25.2258L127.22 25.2844C127.877 26.0399 128.215 26.6968 128.231 27.255C128.253 27.8197 127.971 28.3572 127.385 28.8676L127.111 29.1057C127.053 29.1568 126.998 29.153 126.947 29.0943L126.292 28.342C126.241 28.2834 126.245 28.2286 126.303 28.1776L126.577 27.9394C126.903 27.6559 127.05 27.3845 127.019 27.1252C127 26.8668 126.784 26.4999 126.37 26.0244L126.319 25.9658C125.899 25.4838 125.56 25.2124 125.301 25.1517C125.054 25.0917 124.768 25.2035 124.442 25.4871L124.247 25.6572C124.012 25.8613 123.886 26.0515 123.867 26.2278C123.861 26.4049 123.952 26.6805 124.141 27.0547L124.989 28.6008C125.319 29.2174 125.452 29.7316 125.387 30.1434C125.327 30.5616 125.057 30.9805 124.575 31.4002L124.33 31.6128C123.738 32.1289 123.163 32.337 122.607 32.2373C122.057 32.132 121.442 31.6885 120.762 30.9069L120.711 30.8483C120.03 30.0667 119.675 29.3964 119.647 28.8373C119.625 28.2727 119.91 27.7323 120.503 27.2163Z" fill="white"/>
<path d="M133.171 33.5748L132.435 34.082C132.371 34.1261 132.317 34.1161 132.272 34.0521L131.067 32.3027L125.211 36.3377C125.147 36.3818 125.093 36.3718 125.049 36.3078L124.483 35.4864C124.439 35.4224 124.449 35.3684 124.513 35.3243L130.369 31.2893L129.163 29.5398C129.119 29.4758 129.129 29.4218 129.193 29.3777L129.929 28.8706C129.993 28.8265 130.047 28.8364 130.092 28.9004L133.2 33.4127C133.245 33.4767 133.235 33.5307 133.171 33.5748Z" fill="white"/>
<path d="M129.136 38.539L132.745 36.6344C133.44 36.2676 134.049 36.2001 134.571 36.432C135.098 36.6715 135.621 37.2839 136.141 38.2692L136.178 38.3379C136.698 39.3231 136.906 40.097 136.802 40.6594C136.703 41.2295 136.306 41.6979 135.611 42.0647L132.002 43.9693C131.307 44.3362 130.696 44.3998 130.169 44.1603C129.646 43.9284 129.125 43.3198 128.605 42.3346L128.569 42.2658C128.049 41.2806 127.838 40.5029 127.938 39.9329C128.042 39.3704 128.441 38.9058 129.136 38.539ZM129.565 41.7398L129.602 41.8085C129.944 42.4577 130.239 42.8492 130.485 42.9828C130.731 43.1165 131.046 43.0825 131.427 42.881L135.036 40.9764C135.418 40.7748 135.623 40.5347 135.652 40.2559C135.681 39.9771 135.524 39.5131 135.181 38.8639L135.145 38.7952C134.802 38.146 134.508 37.7546 134.261 37.6209C134.015 37.4872 133.701 37.5212 133.319 37.7227L129.71 39.6274C129.328 39.8289 129.123 40.0691 129.094 40.3478C129.066 40.6266 129.223 41.0906 129.565 41.7398Z" fill="white"/>
<path d="M133.393 47.0448L137.224 45.64C137.962 45.3694 138.573 45.3799 139.057 45.6716C139.541 45.9632 139.969 46.6157 140.34 47.6293L140.367 47.7022C140.739 48.7158 140.834 49.4902 140.653 50.0256C140.473 50.5611 140.013 50.964 139.276 51.2346L138.826 51.3996C138.753 51.4264 138.703 51.4033 138.676 51.3303L138.333 50.3938C138.306 50.3208 138.329 50.2709 138.402 50.2442L138.852 50.0792C139.249 49.9335 139.482 49.7285 139.551 49.4642C139.628 49.1969 139.547 48.7389 139.309 48.0902L139.282 48.0173C139.045 47.3686 138.81 46.9671 138.579 46.8128C138.355 46.6555 138.045 46.6497 137.648 46.7954L133.817 48.2002C133.419 48.3459 133.182 48.5523 133.106 48.8196C133.037 49.084 133.121 49.5405 133.359 50.1891L133.386 50.2621C133.624 50.9107 133.854 51.3137 134.078 51.471C134.309 51.6253 134.623 51.6297 135.021 51.484L135.471 51.319C135.544 51.2922 135.594 51.3153 135.62 51.3883L135.964 52.3248C135.99 52.3978 135.967 52.4476 135.894 52.4744L135.444 52.6394C134.707 52.9099 134.096 52.8994 133.612 52.6078C133.127 52.3162 132.7 51.6636 132.328 50.6501L132.301 50.5771C131.93 49.5636 131.834 48.7891 132.015 48.2537C132.196 47.7183 132.655 47.3153 133.393 47.0448Z" fill="white"/>
<path d="M135.615 61.6935L135.558 61.7333C135.507 61.7449 135.473 61.7129 135.456 61.6371L135.185 60.4632C135.172 60.4043 135.19 60.3512 135.242 60.304L138.48 57.4567L136.597 56.4952L134.501 56.9783C134.426 56.9958 134.379 56.9667 134.362 56.8909L134.137 55.919C134.12 55.8432 134.149 55.7966 134.225 55.7792L142.139 53.9541C142.215 53.9367 142.262 53.9658 142.279 54.0416L142.503 55.0135C142.521 55.0893 142.492 55.1359 142.416 55.1533L138.276 56.108L143.211 58.3731C143.263 58.4055 143.296 58.4511 143.31 58.51L143.577 59.6714C143.587 59.7134 143.577 59.7468 143.547 59.7714C143.526 59.794 143.494 59.7924 143.453 59.7665L139.679 58.0443L135.615 61.6935Z" fill="white"/>
</svg>
