<svg width="128" height="32" viewBox="0 0 128 32" fill="none" xmlns="http://www.w3.org/2000/svg">
<ellipse cx="52.2149" cy="4.21484" rx="2" ry="2" transform="rotate(-45 52.2149 4.21484)" fill="#181F22"/>
<ellipse cx="57.8718" cy="22.1283" rx="2" ry="2" transform="rotate(-45 57.8718 22.1283)" fill="#181F22"/>
<circle r="2" transform="matrix(0.707106 -0.707107 0.707106 0.707107 52.2149 27.7852)" fill="#181F22"/>
<circle r="2" transform="matrix(0.707107 -0.707106 0.707107 0.707106 70.1284 9.8717)" fill="#181F22"/>
<ellipse cx="57.8718" cy="9.8717" rx="2" ry="2" transform="rotate(-45 57.8718 9.8717)" fill="#181F22"/>
<ellipse cx="70.1284" cy="22.1283" rx="2" ry="2" transform="rotate(-45 70.1284 22.1283)" fill="#181F22"/>
<ellipse cx="75.7851" cy="4.21484" rx="2" ry="2" transform="rotate(-45 75.7851 4.21484)" fill="#181F22"/>
<circle r="2" transform="matrix(0.707106 -0.707107 0.707106 0.707107 75.7851 27.7852)" fill="#181F22"/>
<ellipse cx="64" cy="16" rx="2.66667" ry="2.66667" transform="rotate(-45 64 16)" fill="#181F22"/>
<path d="M6.17595 20.0533C5.92706 20.0533 5.72795 20.0284 5.57861 19.9787V19.2C5.72084 19.2498 5.8915 19.2747 6.09061 19.2747C6.43906 19.2747 6.6915 19.1929 6.84795 19.0293C7.0115 18.8658 7.09328 18.6027 7.09328 18.24V12.5333H7.94661V18.2187C7.94661 18.8444 7.80084 19.3067 7.50928 19.6053C7.22484 19.904 6.78039 20.0533 6.17595 20.0533Z" fill="#181F22"/>
<path d="M37.2747 20H36.4L36.0693 18.4107H34.0427L33.7227 20H32.912L34.5013 12.5333H35.664L37.2747 20ZM35.0453 13.504L34.2027 17.664H35.9093L35.0453 13.504Z" fill="#181F22"/>
<path d="M94.0426 20H90.6079V12.5333H94.0426V13.3013H91.4612V15.776H93.5732V16.5333H91.4612V19.232H94.0426V20Z" fill="#181F22"/>
<path d="M121.957 20H121.104V13.3013H119.579V12.5333H123.483V13.3013H121.957V20Z" fill="#181F22"/>
</svg>
