<svg width="228" height="32" viewBox="0 0 228 32" fill="none" xmlns="http://www.w3.org/2000/svg">
<path d="M2.05714 0.5H45.9429C46.7961 0.5 47.5 1.2037 47.5 2.08696V29.913C47.5 30.7963 46.7961 31.5 45.9429 31.5H2.05714C1.20391 31.5 0.5 30.7963 0.5 29.913V2.08696C0.5 1.2037 1.20391 0.5 2.05714 0.5Z" stroke="#CCCCCC"/>
<path d="M17 25C21.9706 25 26 20.9706 26 16C26 11.0294 21.9706 7 17 7C12.0294 7 8 11.0294 8 16C8 20.9706 12.0294 25 17 25Z" fill="#EA001B"/>
<path d="M29 25C33.9706 25 38 20.9706 38 16C38 11.0294 33.9706 7 29 7C24.0294 7 20 11.0294 20 16C20 20.9706 24.0294 25 29 25Z" fill="#F79E1C"/>
<path fill-rule="evenodd" clip-rule="evenodd" d="M23 23C24.8342 21.3237 26 18.8099 26 16C26 13.19 24.8342 10.6763 23 9C21.1658 10.6763 20 13.19 20 16C20 18.8099 21.1658 21.3237 23 23Z" fill="#FF5F01"/>
<path d="M62.0571 0.5H105.943C106.796 0.5 107.5 1.2037 107.5 2.08696V29.913C107.5 30.7963 106.796 31.5 105.943 31.5H62.0571C61.2039 31.5 60.5 30.7963 60.5 29.913V2.08696C60.5 1.2037 61.2039 0.5 62.0571 0.5Z" stroke="#CCCCCC"/>
<path d="M81.4912 20.8413H78.5952L80.4066 10.193H83.3024L81.4912 20.8413Z" fill="black"/>
<path d="M91.9902 10.4533C91.4191 10.2379 90.5131 10 89.3927 10C86.5329 10 84.5189 11.4499 84.5066 13.5229C84.4829 15.0523 85.9485 15.9016 87.0446 16.4116C88.1651 16.9328 88.546 17.2729 88.546 17.7374C88.5346 18.4508 87.6406 18.7795 86.8069 18.7795C85.6507 18.7795 85.0311 18.61 84.0896 18.2132L83.7083 18.0429L83.303 20.4332C83.9822 20.7275 85.2336 20.9886 86.5329 21C89.5716 21 91.5498 19.5725 91.5733 17.3635C91.5849 16.1513 90.8109 15.2225 89.1423 14.4635C88.1295 13.9764 87.5092 13.6477 87.5092 13.1493C87.5211 12.6961 88.0338 12.2319 89.1773 12.2319C90.1187 12.2092 90.8105 12.4243 91.3345 12.6396L91.5964 12.7527L91.9902 10.4533Z" fill="black"/>
<path d="M95.8388 17.069C96.0773 16.4572 96.9951 14.0896 96.9951 14.0896C96.983 14.1125 97.2331 13.4666 97.3761 13.0702L97.5785 13.9877C97.5785 13.9877 98.1269 16.5366 98.2459 17.069C97.7934 17.069 96.4108 17.069 95.8388 17.069ZM99.4136 10.193H97.1736C96.4828 10.193 95.9579 10.3854 95.6598 11.0765L91.3583 20.8412H94.3969C94.3969 20.8412 94.8973 19.5269 95.0048 19.2438C95.3381 19.2438 98.2941 19.2438 98.7229 19.2438C98.8061 19.6177 99.0684 20.8412 99.0684 20.8412H101.75L99.4136 10.193Z" fill="black"/>
<path d="M76.1766 10.193L73.3404 17.4541L73.0305 15.9815C72.5062 14.2823 70.8617 12.4361 69.0266 11.5181L71.6244 20.83H74.6868L79.2389 10.193H76.1766Z" fill="black"/>
<path d="M70.707 10.193H66.0477L66 10.4081C69.6347 11.2918 72.0418 13.4218 73.0308 15.9819L72.0178 11.0881C71.851 10.408 71.3386 10.2154 70.707 10.193Z" fill="black"/>
<path d="M122.057 0.5H165.943C166.796 0.5 167.5 1.2037 167.5 2.08696V29.913C167.5 30.7963 166.796 31.5 165.943 31.5H122.057C121.204 31.5 120.5 30.7963 120.5 29.913V2.08696C120.5 1.2037 121.204 0.5 122.057 0.5Z" stroke="#CCCCCC"/>
<g clip-path="url(#clip0)">
<path d="M143.446 16.3279V20.7249H142.005V9.86633H145.825C146.281 9.85711 146.735 9.93543 147.159 10.0968C147.584 10.2581 147.971 10.4993 148.299 10.8064C148.63 11.0948 148.893 11.4486 149.072 11.8438C149.25 12.2391 149.339 12.6667 149.332 13.098C149.341 13.5316 149.254 13.962 149.076 14.3598C148.897 14.7576 148.632 15.1133 148.299 15.4026C147.631 16.0195 146.806 16.3277 145.825 16.3271H143.446V16.3279ZM143.446 11.2032V14.9937H145.861C146.126 15.0013 146.389 14.9553 146.635 14.8586C146.88 14.7619 147.102 14.6167 147.286 14.4323C147.469 14.2598 147.615 14.0535 147.714 13.8256C147.814 13.5977 147.865 13.3528 147.865 13.1054C147.865 12.858 147.814 12.6131 147.714 12.3851C147.615 12.1572 147.469 11.9509 147.286 11.7785C147.104 11.5901 146.883 11.4414 146.637 11.342C146.392 11.2427 146.127 11.1951 145.861 11.2023H143.446V11.2032Z" fill="black"/>
<path d="M152.651 13.053C153.715 13.053 154.555 13.3285 155.172 13.8795C155.788 14.4306 156.095 15.1861 156.095 16.146V20.725H154.717V19.6939H154.654C154.058 20.543 153.265 20.9676 152.275 20.9676C151.43 20.9676 150.723 20.725 150.154 20.2398C149.881 20.0171 149.663 19.7382 149.515 19.4234C149.367 19.1087 149.294 18.766 149.301 18.4203C149.301 17.6515 149.601 17.0402 150.2 16.5862C150.8 16.1322 151.601 15.9046 152.603 15.9034C153.458 15.9034 154.163 16.0551 154.716 16.3583V16.0395C154.718 15.8038 154.665 15.5708 154.562 15.3572C154.46 15.1437 154.309 14.955 154.121 14.8048C153.74 14.472 153.244 14.2904 152.731 14.2963C151.927 14.2963 151.29 14.6249 150.821 15.2822L149.553 14.5085C150.251 13.5382 151.283 13.053 152.651 13.053ZM150.787 18.4507C150.786 18.6282 150.829 18.8034 150.912 18.9616C150.995 19.1198 151.116 19.2566 151.265 19.3604C151.584 19.6031 151.979 19.7316 152.384 19.7243C152.992 19.7233 153.574 19.489 154.004 19.0727C154.481 18.6378 154.72 18.1275 154.72 17.5418C154.271 17.1952 153.645 17.022 152.841 17.022C152.256 17.022 151.768 17.1586 151.378 17.4318C150.983 17.709 150.787 18.046 150.787 18.4507Z" fill="black"/>
<path d="M164.003 13.2957L159.194 24H157.707L159.491 20.2546L156.329 13.2957H157.895L160.18 18.6327H160.212L162.435 13.2957H164.003Z" fill="black"/>
<path d="M137.626 15.3802C137.626 14.9551 137.589 14.5308 137.515 14.1118H131.441V16.5143H134.92C134.849 16.8981 134.698 17.2638 134.477 17.5896C134.256 17.9154 133.969 18.1945 133.633 18.41V19.9696H135.71C136.925 18.884 137.626 17.2785 137.626 15.3802Z" fill="#4285F4"/>
<path d="M131.441 21.4762C133.179 21.4762 134.642 20.9234 135.709 19.9704L133.633 18.4109C133.055 18.7904 132.311 19.007 131.441 19.007C129.761 19.007 128.335 17.9101 127.825 16.432H125.686V18.0392C126.222 19.0723 127.044 19.9409 128.06 20.5478C129.076 21.1547 130.247 21.4761 131.441 21.4762Z" fill="#34A853"/>
<path d="M127.825 16.432C127.555 15.6575 127.555 14.8187 127.825 14.0442V12.437H125.686C125.235 13.3061 125 14.2654 125 15.2381C125 16.2108 125.235 17.17 125.686 18.0392L127.825 16.432Z" fill="#FBBC04"/>
<path d="M131.441 11.4693C132.359 11.4548 133.247 11.7909 133.911 12.405L135.75 10.6245C134.584 9.56414 133.04 8.98195 131.441 9.00004C130.247 9.0001 129.076 9.32153 128.06 9.92845C127.044 10.5354 126.222 11.4039 125.686 12.4371L127.825 14.0442C128.335 12.5661 129.761 11.4693 131.441 11.4693Z" fill="#EA4335"/>
</g>
<path d="M182.057 0.5H225.943C226.796 0.5 227.5 1.2037 227.5 2.08696V29.913C227.5 30.7963 226.796 31.5 225.943 31.5H182.057C181.204 31.5 180.5 30.7963 180.5 29.913V2.08696C180.5 1.2037 181.204 0.5 182.057 0.5Z" stroke="#CCCCCC"/>
<g clip-path="url(#clip1)">
<path d="M191.947 10.0628C191.502 10.6032 190.789 11.0295 190.077 10.9686C189.988 10.2379 190.336 9.46147 190.745 8.98192C191.19 8.42626 191.969 8.03045 192.6 8C192.674 8.76118 192.385 9.50714 191.947 10.0628ZM192.593 11.1132C191.561 11.0523 190.678 11.7146 190.188 11.7146C189.691 11.7146 188.941 11.1437 188.125 11.1589C187.063 11.1741 186.076 11.7907 185.535 12.7726C184.421 14.7364 185.245 17.6441 186.321 19.2426C186.848 20.0343 187.479 20.902 188.31 20.8716C189.097 20.8411 189.409 20.3463 190.359 20.3463C191.316 20.3463 191.591 20.8716 192.422 20.8563C193.283 20.8411 193.825 20.0647 194.352 19.2731C194.953 18.3749 195.198 17.4995 195.213 17.4539C195.198 17.4386 193.55 16.7916 193.535 14.843C193.52 13.2141 194.834 12.4377 194.894 12.392C194.151 11.2655 192.994 11.1437 192.593 11.1132ZM198.553 8.9058V20.7726H200.349V16.7155H202.835C205.106 16.7155 206.702 15.117 206.702 12.803C206.702 10.4891 205.136 8.9058 202.894 8.9058H198.553ZM200.349 10.4586H202.419C203.978 10.4586 204.869 11.3111 204.869 12.8107C204.869 14.3102 203.978 15.1703 202.412 15.1703H200.349V10.4586ZM209.982 20.8639C211.11 20.8639 212.157 20.2778 212.632 19.3492H212.669V20.7726H214.331V14.8658C214.331 13.1532 212.995 12.0495 210.94 12.0495C209.032 12.0495 207.622 13.1684 207.57 14.706H209.188C209.322 13.9753 209.982 13.4957 210.888 13.4957C211.986 13.4957 212.602 14.0209 212.602 14.9876V15.6422L210.361 15.7793C208.275 15.9087 207.147 16.784 207.147 18.3064C207.147 19.844 208.312 20.8639 209.982 20.8639ZM210.465 19.4558C209.507 19.4558 208.899 18.9838 208.899 18.2607C208.899 17.5147 209.485 17.0809 210.606 17.0124L212.602 16.883V17.5528C212.602 18.6641 211.682 19.4558 210.465 19.4558ZM216.551 24C218.302 24 219.126 23.3149 219.846 21.2369L223 12.1637H221.174L219.059 19.1741H219.022L216.907 12.1637H215.029L218.072 20.803L217.909 21.3283C217.634 22.2188 217.189 22.5614 216.395 22.5614C216.254 22.5614 215.979 22.5461 215.868 22.5309V23.9543C215.972 23.9848 216.417 24 216.551 24Z" fill="black"/>
</g>
<defs>
<clipPath id="clip0">
<rect width="39" height="15" fill="white" transform="translate(125 9)"/>
</clipPath>
<clipPath id="clip1">
<rect width="38" height="16" fill="white" transform="translate(185 8)"/>
</clipPath>
</defs>
</svg>
