<svg width="141" height="140" viewBox="0 0 141 140" fill="none" xmlns="http://www.w3.org/2000/svg">
<path d="M132.308 71.6646L132.722 71.6998C132.818 71.708 132.861 71.7652 132.852 71.8715L132.729 73.3222C132.721 73.4179 132.669 73.4617 132.573 73.4535L132.159 73.4183C131.681 73.3776 131.346 73.4722 131.155 73.7022C130.975 73.9331 130.852 74.4312 130.787 75.1964L130.779 75.2921C130.715 76.0467 130.752 76.553 130.891 76.811C131.04 77.0699 131.354 77.2197 131.832 77.2604L132.199 77.2916C132.549 77.3214 132.811 77.2687 132.983 77.1335C133.154 77.0089 133.305 76.7434 133.436 76.337L134.117 74.179C134.38 73.3556 134.717 72.7902 135.129 72.4826C135.55 72.1866 136.138 72.0706 136.893 72.1348L137.227 72.1633C138.205 72.2465 138.894 72.5834 139.293 73.174C139.693 73.7646 139.838 74.6923 139.731 75.9571L139.723 76.0528C139.615 77.3175 139.315 78.202 138.823 78.706C138.329 79.2207 137.594 79.4365 136.616 79.3533L136.201 79.3181C136.106 79.3099 136.062 79.2581 136.07 79.1624L136.193 77.7116C136.203 77.6054 136.255 77.5563 136.351 77.5644L136.765 77.5997C137.243 77.6403 137.572 77.5506 137.751 77.3303C137.941 77.1109 138.067 76.6399 138.129 75.9172L138.137 75.8215C138.199 75.0882 138.155 74.5973 138.005 74.3491C137.865 74.1017 137.557 73.9576 137.078 73.917L136.743 73.8885C136.425 73.8614 136.191 73.9057 136.042 74.0215C135.903 74.1382 135.763 74.4046 135.62 74.8207L134.938 76.9946C134.686 77.8189 134.338 78.3835 133.894 78.6883C133.462 78.9941 132.847 79.113 132.05 79.0452L131.683 79.0141C130.705 78.9309 130.017 78.5887 129.618 77.9874C129.219 77.3968 129.075 76.4531 129.185 75.1565L129.193 75.0608C129.304 73.7535 129.607 72.8372 130.101 72.3119C130.595 71.7972 131.33 71.5814 132.308 71.6646Z" fill="white"/>
<path d="M128.461 82.1217L138.237 84.3759C138.33 84.3974 138.365 84.4602 138.341 84.5641L138.014 85.9829C137.992 86.0764 137.935 86.1124 137.841 86.0909L128.066 83.8367C127.972 83.8152 127.936 83.7576 127.958 83.6641L128.285 82.2453C128.309 82.1414 128.368 82.1002 128.461 82.1217Z" fill="white"/>
<path d="M134.005 97.8908L132.777 97.4298C132.687 97.3961 132.66 97.3293 132.698 97.2295L133.586 94.8626L125.557 91.8498C125.467 91.8161 125.441 91.7493 125.478 91.6494L125.99 90.2862C126.023 90.1963 126.085 90.1682 126.175 90.202L134.204 93.2148L135.098 90.8329C135.136 90.7331 135.199 90.7 135.289 90.7337L136.517 91.1946C136.607 91.2283 136.634 91.2951 136.596 91.395L134.196 97.7915C134.158 97.8914 134.095 97.9245 134.005 97.8908Z" fill="white"/>
<path d="M127.36 107.147L129.642 103.218L127.304 101.86L125.263 105.374C125.209 105.466 125.141 105.488 125.058 105.44L123.937 104.789C123.845 104.736 123.826 104.663 123.879 104.571L125.921 101.056L123.486 99.6419L121.203 103.571C121.15 103.663 121.081 103.685 120.998 103.637L119.864 102.978C119.781 102.93 119.766 102.86 119.82 102.768L122.906 97.4548C122.959 97.3625 123.028 97.3405 123.111 97.3887L131.785 102.427C131.868 102.476 131.883 102.546 131.83 102.638L128.744 107.951C128.69 108.043 128.622 108.065 128.539 108.017L127.404 107.358C127.321 107.31 127.306 107.24 127.36 107.147Z" fill="white"/>
<path d="M110.009 116.145L109.095 115.204C109.028 115.135 109.033 115.064 109.109 114.989L113.149 111.065C113.226 110.991 113.298 110.988 113.364 111.057L120.354 118.253C120.421 118.322 120.416 118.394 120.34 118.468L119.295 119.482C119.227 119.549 119.159 119.548 119.092 119.479L113.116 113.328L110.224 116.137C110.148 116.211 110.076 116.214 110.009 116.145Z" fill="white"/>
<path d="M99.4756 122.124L99.4354 122.093C99.3935 122.031 99.4079 121.976 99.4785 121.928L100.75 121.066C100.82 121.018 100.89 121.016 100.958 121.06L102.717 122.4L105.657 120.406L105.063 118.276C105.048 118.196 105.08 118.129 105.159 118.075L106.417 117.222C106.505 117.162 106.571 117.183 106.613 117.283L109.38 127.547C109.395 127.627 109.367 127.691 109.297 127.739L108.184 128.493C108.114 128.541 108.044 128.543 107.976 128.499L99.4756 122.124ZM106.109 122.013L104.057 123.405L105.423 124.45C106.253 125.086 106.895 125.624 107.349 126.064C107.08 125.421 106.822 124.623 106.575 123.669L106.109 122.013Z" fill="white"/>
<path d="M98.0745 125.711L100.979 132.578C101.016 132.666 100.986 132.731 100.888 132.773L99.5467 133.34C99.4583 133.378 99.3954 133.352 99.358 133.264L96.4535 126.397C96.2624 125.945 96.0206 125.688 95.7281 125.626C95.4259 125.569 94.9063 125.696 94.1695 126.008L94.0811 126.045C93.3541 126.352 92.906 126.635 92.7367 126.892C92.5576 127.153 92.5636 127.509 92.7547 127.961L95.6592 134.828C95.6966 134.916 95.6711 134.979 95.5827 135.017L94.2417 135.584C94.1435 135.625 94.0757 135.602 94.0383 135.514L91.1338 128.647C90.7432 127.723 90.721 126.945 91.0671 126.312C91.4133 125.679 92.2102 125.099 93.4578 124.571L93.5463 124.534C94.7743 124.015 95.7408 123.849 96.4458 124.037C97.141 124.23 97.6839 124.788 98.0745 125.711Z" fill="white"/>
<path d="M79.4635 139.157L77.5463 129.31C77.528 129.216 77.5711 129.159 77.6758 129.138L79.2306 128.836C79.2935 128.823 79.3572 128.844 79.4217 128.896L83.1319 132.966C83.9663 133.847 84.6576 134.69 85.2057 135.497C84.9842 134.638 84.7745 133.701 84.5768 132.685L83.687 128.115C83.6686 128.021 83.7066 127.964 83.8008 127.946L85.23 127.668C85.3347 127.647 85.3962 127.684 85.4146 127.778L87.3318 137.625C87.3501 137.72 87.307 137.777 87.2023 137.797L85.6475 138.1C85.5742 138.114 85.5105 138.094 85.4563 138.04L81.7461 133.97C81.2469 133.415 80.8684 132.978 80.6106 132.658C80.3465 132.362 80.0317 131.945 79.6662 131.408C79.8878 132.267 80.0995 133.214 80.3013 134.251L81.1911 138.821C81.2094 138.915 81.1715 138.972 81.0773 138.99L79.6481 139.268C79.5434 139.289 79.4819 139.252 79.4635 139.157Z" fill="white"/>
<path d="M73.1673 132.229L73.1485 137.109C73.1446 138.112 72.8592 138.836 72.2921 139.282C71.725 139.728 70.7642 139.948 69.4095 139.943L69.3135 139.942C67.9482 139.937 66.9891 139.709 66.4361 139.259C65.8832 138.809 65.6087 138.083 65.6125 137.08L65.6146 136.536C65.615 136.44 65.6632 136.392 65.7592 136.392L67.2152 136.398C67.3219 136.398 67.375 136.447 67.3746 136.543L67.3725 137.087C67.3706 137.577 67.4974 137.909 67.7527 138.08C67.9974 138.252 68.5197 138.339 69.3197 138.342L69.4157 138.343C70.205 138.346 70.7334 138.262 71.0007 138.093C71.2573 137.923 71.3866 137.593 71.3885 137.102L71.4073 132.222C71.4092 131.732 71.2825 131.4 71.0272 131.229C70.7612 131.057 70.2335 130.97 69.4442 130.967L69.3482 130.966C68.5482 130.963 68.0252 131.047 67.7792 131.216C67.5225 131.386 67.3933 131.716 67.3914 132.207L67.3893 132.751C67.3889 132.847 67.3354 132.895 67.2287 132.894L65.7727 132.888C65.6767 132.888 65.6289 132.84 65.6293 132.744L65.6314 132.2C65.6353 131.197 65.9154 130.473 66.4718 130.027C67.0282 129.581 67.989 129.361 69.3544 129.366L69.4504 129.367C70.805 129.372 71.7641 129.6 72.3277 130.05C72.8913 130.5 73.1712 131.226 73.1673 132.229Z" fill="white"/>
<path d="M52.695 137.588L54.6874 127.756C54.7065 127.662 54.763 127.624 54.8571 127.643L56.2998 127.935C56.3939 127.955 56.4314 128.011 56.4123 128.105L55.5702 132.261L59.5219 133.062L60.364 128.906C60.3831 128.812 60.4397 128.774 60.5337 128.793L61.9607 129.083C62.0653 129.104 62.108 129.161 62.0889 129.256L60.0965 139.088C60.0775 139.182 60.0157 139.218 59.9111 139.197L58.4841 138.908C58.3901 138.889 58.3525 138.832 58.3716 138.738L59.2042 134.63L55.2525 133.829L54.4199 137.937C54.4009 138.031 54.3443 138.069 54.2502 138.05L52.8075 137.758C52.7134 137.738 52.6759 137.682 52.695 137.588Z" fill="white"/>
<path d="M43.2476 126.257L43.0466 126.621C43.0002 126.705 42.9304 126.721 42.837 126.67L41.5621 125.966C41.478 125.92 41.4592 125.855 41.5055 125.771L41.7065 125.406C41.9383 124.986 41.9881 124.642 41.8557 124.374C41.7181 124.116 41.3131 123.801 40.6407 123.43L40.5566 123.383C39.8935 123.018 39.4159 122.846 39.1238 122.867C38.8265 122.898 38.562 123.124 38.3301 123.544L38.1524 123.866C37.9823 124.174 37.9241 124.435 37.9775 124.647C38.0217 124.854 38.2027 125.1 38.5206 125.385L40.2144 126.886C40.8595 127.461 41.2387 127.999 41.3521 128.5C41.451 129.005 41.3176 129.59 40.9518 130.253L40.7895 130.547C40.3155 131.406 39.7274 131.898 39.0254 132.022C38.3233 132.147 37.4166 131.902 36.3051 131.289L36.2211 131.243C35.1096 130.63 34.4239 129.996 34.164 129.341C33.8947 128.681 33.9971 127.921 34.4711 127.062L34.672 126.697C34.7184 126.613 34.7836 126.594 34.8676 126.641L36.1425 127.344C36.2359 127.396 36.2594 127.463 36.2131 127.547L36.0121 127.912C35.7803 128.332 35.7285 128.669 35.8567 128.922C35.9797 129.185 36.3588 129.492 36.9939 129.842L37.0779 129.888C37.7224 130.244 38.1886 130.404 38.4765 130.367C38.7592 130.341 39.0166 130.117 39.2484 129.697L39.4107 129.403C39.5653 129.122 39.62 128.891 39.5749 128.708C39.5246 128.534 39.3385 128.297 39.0164 127.997L37.3086 126.489C36.6584 125.923 36.2843 125.376 36.1863 124.847C36.0832 124.327 36.2249 123.717 36.6113 123.016L36.789 122.694C37.263 121.835 37.8557 121.345 38.5671 121.226C39.2692 121.102 40.19 121.354 41.3294 121.982L41.4135 122.029C42.5623 122.663 43.276 123.312 43.5546 123.977C43.8239 124.638 43.7216 125.397 43.2476 126.257Z" fill="white"/>
<path d="M33.7039 120.694L30.5944 124.455C29.9555 125.228 29.2713 125.603 28.5419 125.582C27.8125 125.56 26.9053 125.1 25.8201 124.203L25.7461 124.142C24.661 123.245 24.0433 122.444 23.8931 121.738C23.7347 121.026 23.9749 120.283 24.6138 119.511L27.7234 115.75C28.3623 114.977 29.0464 114.601 29.7758 114.623C30.497 114.638 31.4002 115.094 32.4853 115.991L32.5593 116.052C33.6444 116.95 34.2662 117.754 34.4246 118.467C34.5831 119.179 34.3429 119.922 33.7039 120.694ZM31.5397 117.286L31.4657 117.224C30.8163 116.687 30.3345 116.4 30.0202 116.361C29.7059 116.323 29.3925 116.493 29.0798 116.871L25.9702 120.632C25.6576 121.01 25.5496 121.35 25.6464 121.651C25.7432 121.953 26.1163 122.372 26.7657 122.909L26.8397 122.97C27.4973 123.514 27.9833 123.805 28.2976 123.843C28.6118 123.882 28.9253 123.712 29.2379 123.334L32.3475 119.573C32.6602 119.195 32.7681 118.855 32.6714 118.553C32.5746 118.252 32.1974 117.829 31.5397 117.286Z" fill="white"/>
<path d="M24.1708 112.262L20.3649 115.316C19.5829 115.944 18.837 116.173 18.1271 116.004C17.4172 115.835 16.6215 115.202 15.7403 114.104L15.6802 114.029C14.7989 112.931 14.356 112.021 14.3515 111.3C14.3404 110.57 14.7258 109.892 15.5078 109.264L19.3136 106.21C20.0956 105.582 20.8416 105.353 21.5515 105.521C22.2547 105.682 23.047 106.311 23.9283 107.409L23.9884 107.484C24.8697 108.582 25.3159 109.496 25.327 110.226C25.3381 110.955 24.9527 111.634 24.1708 112.262ZM22.7405 108.486L22.6805 108.411C22.153 107.754 21.7393 107.374 21.4393 107.273C21.1393 107.172 20.7979 107.275 20.4153 107.582L16.6094 110.637C16.2267 110.944 16.0523 111.255 16.0861 111.57C16.1199 111.884 16.4006 112.37 16.928 113.027L16.9881 113.102C17.5222 113.768 17.9393 114.151 18.2393 114.252C18.5393 114.353 18.8806 114.251 19.2633 113.943L23.0691 110.889C23.4518 110.582 23.6262 110.271 23.5924 109.956C23.5586 109.641 23.2747 109.151 22.7405 108.486Z" fill="white"/>
<path d="M6.06757 97.9569L15.0081 93.4063C15.0936 93.3627 15.1606 93.3885 15.209 93.4835L15.9275 94.8952C15.9565 94.9522 15.9546 95.019 15.9218 95.0956L13.0287 99.7818C12.4113 100.826 11.7904 101.723 11.1661 102.471C11.9309 102.022 12.7744 101.563 13.6964 101.094L17.8459 98.9816C17.9314 98.9381 17.996 98.9591 18.0395 99.0446L18.7 100.342C18.7484 100.437 18.7298 100.507 18.6442 100.55L9.70371 105.101C9.61816 105.144 9.55119 105.119 9.5028 105.023L8.78428 103.612C8.75041 103.545 8.75232 103.478 8.79 103.411L11.6831 98.7252C12.0792 98.0927 12.3954 97.6086 12.6315 97.273C12.8438 96.9376 13.158 96.5203 13.5742 96.0212C12.8094 96.4703 11.9565 96.9344 11.0153 97.4134L6.86592 99.5254C6.78037 99.5689 6.71582 99.5479 6.67227 99.4624L6.01181 98.1648C5.96343 98.0697 5.98201 98.0004 6.06757 97.9569Z" fill="white"/>
<path d="M8.21067 84.3781L6.93856 84.6258C6.83386 84.6462 6.77234 84.6093 6.75399 84.515L5.95591 80.416C5.93552 80.3113 5.97768 80.2488 6.08238 80.2284L7.35449 79.9807C7.44872 79.9623 7.50603 80.0055 7.52642 80.1102L8.3245 84.2092C8.34285 84.3035 8.3049 84.3598 8.21067 84.3781Z" fill="white"/>
<path d="M7.7413 69.3L7.3263 69.2712C7.23053 69.2645 7.18635 69.208 7.19375 69.1016L7.29477 67.6491C7.30144 67.5533 7.35265 67.5088 7.44842 67.5154L7.86342 67.5443C8.34226 67.5776 8.67532 67.4778 8.8626 67.2449C9.03923 67.0113 9.1542 66.5114 9.20748 65.7452L9.21414 65.6494C9.26669 64.8939 9.22167 64.3883 9.07908 64.1324C8.92584 63.8758 8.60981 63.7309 8.13096 63.6976L7.76385 63.672C7.4127 63.6476 7.15213 63.7043 6.98216 63.8422C6.81292 63.9694 6.66599 64.2372 6.54136 64.6456L5.89335 66.8138C5.64334 67.6411 5.31496 68.2117 4.9082 68.5256C4.49155 68.8281 3.90546 68.9531 3.14995 68.9005L2.81477 68.8772C1.8358 68.8091 1.1421 68.4829 0.73366 67.8984C0.325224 67.314 0.165043 66.3887 0.253115 65.1224L0.259776 65.0266C0.347848 63.7604 0.634217 62.8714 1.11888 62.3598C1.60429 61.8376 2.33648 61.6105 3.31544 61.6786L3.73044 61.7075C3.82621 61.7141 3.87076 61.7653 3.8641 61.8611L3.76308 63.3136C3.75568 63.42 3.70409 63.4699 3.60832 63.4632L3.19333 63.4343C2.71448 63.401 2.38711 63.4959 2.21122 63.7189C2.02468 63.9411 1.90625 64.4141 1.85592 65.1377L1.84926 65.2334C1.79819 65.9677 1.84965 66.4577 2.00362 66.7037C2.14695 66.9489 2.45804 67.0881 2.93688 67.1214L3.27207 67.1448C3.5913 67.167 3.82452 67.119 3.97174 67.001C4.10831 66.8821 4.2446 66.6136 4.38061 66.1954L5.02973 64.0112C5.26909 63.1831 5.60812 62.6133 6.0468 62.3016C6.47484 61.9892 7.08789 61.8608 7.88597 61.9163L8.25308 61.9418C9.23205 62.0099 9.92538 62.3415 10.3331 62.9365C10.7415 63.521 10.9006 64.4623 10.8103 65.7605L10.8036 65.8562C10.7126 67.1651 10.424 68.0859 9.93786 68.6188C9.45246 69.1411 8.72027 69.3681 7.7413 69.3Z" fill="white"/>
<path d="M11.3757 59.0397L1.55899 56.9723C1.46505 56.9525 1.42907 56.8904 1.45106 56.786L1.75111 55.3613C1.77089 55.2673 1.82776 55.2303 1.92169 55.25L11.7384 57.3174C11.8323 57.3372 11.8694 57.3941 11.8496 57.488L11.5495 58.9128C11.5276 59.0172 11.4696 59.0595 11.3757 59.0397Z" fill="white"/>
<path d="M5.61169 43.175L6.84685 43.6174C6.93722 43.6498 6.96443 43.7162 6.92846 43.8166L6.07601 46.1965L14.1497 49.0884C14.2401 49.1207 14.2673 49.1871 14.2314 49.2875L13.7404 50.6583C13.708 50.7486 13.6466 50.7776 13.5563 50.7453L5.48254 47.8534L4.6247 50.2484C4.58873 50.3489 4.52556 50.3829 4.43518 50.3505L3.20002 49.9081C3.10964 49.8757 3.08244 49.8093 3.11841 49.7089L5.42217 43.277C5.45814 43.1766 5.52131 43.1426 5.61169 43.175Z" fill="white"/>
<path d="M12.1181 33.7786L9.89397 37.741L12.2519 39.0646L14.2411 35.5206C14.2933 35.4276 14.3613 35.4046 14.445 35.4516L15.5751 36.086C15.6681 36.1382 15.6886 36.2108 15.6363 36.3038L13.6472 39.8477L16.1028 41.226L18.3269 37.2636C18.3791 37.1705 18.4471 37.1475 18.5308 37.1945L19.6749 37.8367C19.7586 37.8837 19.7743 37.9537 19.7221 38.0467L16.7149 43.4044C16.6627 43.4974 16.5947 43.5204 16.511 43.4734L7.76285 38.5631C7.67913 38.5162 7.66338 38.4461 7.71559 38.3531L10.7229 32.9954C10.7751 32.9024 10.843 32.8794 10.9267 32.9264L12.0708 33.5686C12.1546 33.6155 12.1703 33.6855 12.1181 33.7786Z" fill="white"/>
<path d="M29.2391 24.5865L30.1669 25.5142C30.2348 25.5821 30.231 25.6538 30.1556 25.7292L26.1731 29.7116C26.0977 29.7871 26.0261 29.7908 25.9582 29.7229L18.8645 22.6292C18.7966 22.5614 18.8004 22.4897 18.8758 22.4143L19.9053 21.3847C19.9732 21.3169 20.0411 21.3169 20.109 21.3847L26.1731 27.4489L29.0242 24.5978C29.0996 24.5224 29.1713 24.5186 29.2391 24.5865Z" fill="white"/>
<path d="M39.4975 18.5213L39.5383 18.5513C39.5813 18.6123 39.568 18.6674 39.4982 18.7166L38.243 19.6019C38.1733 19.651 38.1038 19.6543 38.0346 19.6118L36.2513 18.3047L33.3486 20.352L33.9814 22.4705C33.9983 22.55 33.9675 22.6174 33.889 22.6727L32.6469 23.5488C32.5597 23.6103 32.4941 23.5913 32.4501 23.4918L29.496 13.2796C29.4791 13.2001 29.5056 13.1358 29.5753 13.0866L30.6736 12.312C30.7433 12.2628 30.8128 12.2595 30.882 12.302L39.4975 18.5213ZM32.8671 18.7532L34.8938 17.3238L33.5086 16.3037C32.6666 15.6836 32.015 15.1577 31.5538 14.7259C31.834 15.3637 32.1064 16.1571 32.371 17.106L32.8671 18.7532Z" fill="white"/>
<path d="M41.0222 14.7705L38.0155 7.94764C37.9768 7.85979 38.0063 7.79436 38.1039 7.75134L39.4363 7.16421C39.5241 7.12549 39.5874 7.15006 39.6261 7.23791L42.6328 14.0608C42.8306 14.5098 43.0762 14.7629 43.3695 14.8202C43.6726 14.8731 44.1902 14.7383 44.9223 14.4157L45.0101 14.377C45.7324 14.0587 46.1763 13.7698 46.3418 13.5104C46.517 13.2467 46.5056 12.8903 46.3078 12.4413L43.3011 5.61844C43.2624 5.53059 43.287 5.46731 43.3748 5.4286L44.7072 4.84146C44.8048 4.79845 44.8729 4.82087 44.9117 4.90871L47.9183 11.7316C48.3226 12.6491 48.3565 13.4269 48.0198 14.0648C47.6831 14.7027 46.895 15.2948 45.6553 15.8411L45.5675 15.8798C44.3474 16.4175 43.3834 16.5975 42.6757 16.4198C41.9777 16.2378 41.4265 15.6881 41.0222 14.7705Z" fill="white"/>
<path d="M59.0714 1.07327L61.1762 10.882C61.1964 10.9758 61.1543 11.034 61.05 11.0563L59.5013 11.3887C59.4387 11.4021 59.3746 11.3831 59.309 11.3318L55.5218 7.33336C54.6708 6.46867 53.9636 5.63858 53.4001 4.84309C53.638 5.69753 53.8655 6.63056 54.0826 7.6422L55.0595 12.1946C55.0796 12.2884 55.0428 12.3454 54.9489 12.3656L53.5253 12.6711C53.421 12.6934 53.3588 12.6577 53.3387 12.5638L51.2338 2.75513C51.2137 2.66127 51.2558 2.60314 51.3601 2.58076L52.9088 2.24842C52.9818 2.23276 53.0459 2.25173 53.101 2.30536L56.8882 6.30375C57.398 6.84894 57.7847 7.27869 58.0486 7.593C58.3183 7.88421 58.641 8.29498 59.0167 8.82531C58.7788 7.97087 58.549 7.0274 58.3275 5.99491L57.3506 1.44254C57.3304 1.34868 57.3673 1.29168 57.4612 1.27154L58.8848 0.966049C58.989 0.943669 59.0513 0.97941 59.0714 1.07327Z" fill="white"/>
<path d="M65.2116 7.84344L65.1363 2.96402C65.1208 1.96147 65.3922 1.23186 65.9506 0.775184C66.5089 0.318508 67.4654 0.0797128 68.8199 0.0587974L68.9159 0.0573152C70.281 0.0362351 71.2444 0.245387 71.8059 0.68477C72.3674 1.12415 72.6559 1.84512 72.6714 2.84766L72.6798 3.3916C72.6813 3.48759 72.634 3.53632 72.538 3.53781L71.0822 3.56029C70.9755 3.56193 70.9215 3.51476 70.92 3.41877L70.9116 2.87484C70.904 2.38423 70.7709 2.05558 70.5123 1.88889C70.2644 1.72203 69.7405 1.64477 68.9406 1.65712L68.8446 1.65861C68.0553 1.67079 67.5287 1.76427 67.2647 1.93903C67.0114 2.11363 66.8885 2.44624 66.8961 2.93684L66.9714 7.81626C66.979 8.30687 67.1121 8.63552 67.3707 8.80222C67.64 8.96874 68.1692 9.04592 68.9585 9.03373L69.0544 9.03225C69.8543 9.01989 70.3756 8.9265 70.6183 8.75207C70.8716 8.57747 70.9945 8.24487 70.9869 7.75426L70.9785 7.21032C70.9771 7.11433 71.0296 7.06552 71.1363 7.06387L72.5921 7.04139C72.6881 7.03991 72.7369 7.08716 72.7383 7.18315L72.7467 7.72708C72.7622 8.72963 72.4961 9.45916 71.9484 9.91567C71.4007 10.3722 70.4443 10.611 69.0791 10.6321L68.9832 10.6335C67.6287 10.6545 66.6653 10.4453 66.0931 10.0061C65.5209 9.56687 65.2271 8.84598 65.2116 7.84344Z" fill="white"/>
<path d="M85.9542 2.07771L84.1123 11.9392C84.0947 12.0335 84.0387 12.0719 83.9443 12.0543L82.4973 11.784C82.403 11.7664 82.3646 11.7104 82.3822 11.616L83.1607 7.44811L79.1972 6.70782L78.4187 10.8757C78.4011 10.9701 78.3451 11.0085 78.2508 10.9909L76.8195 10.7235C76.7147 10.7039 76.671 10.647 76.6887 10.5526L78.5306 0.691143C78.5482 0.596775 78.6094 0.559383 78.7143 0.578967L80.1455 0.846293C80.2399 0.863919 80.2783 0.919916 80.2606 1.01428L79.491 5.13502L83.4544 5.87531L84.2241 1.75457C84.2417 1.6602 84.2977 1.62183 84.3921 1.63946L85.8391 1.90972C85.9334 1.92734 85.9718 1.98334 85.9542 2.07771Z" fill="white"/>
<path d="M95.6099 13.1629L95.804 12.795C95.8488 12.7101 95.9184 12.6926 96.0127 12.7424L97.3004 13.422C97.3853 13.4668 97.4053 13.5316 97.3605 13.6165L97.1664 13.9844C96.9423 14.4089 96.899 14.7539 97.0363 15.0193C97.1786 15.2754 97.5893 15.5826 98.2685 15.9411L98.3534 15.9859C99.0232 16.3394 99.5039 16.5026 99.7956 16.4756C100.092 16.4392 100.353 16.2087 100.577 15.7842L100.748 15.4588C100.913 15.1475 100.966 14.8862 100.909 14.675C100.861 14.4688 100.675 14.2261 100.352 13.9471L98.6309 12.4778C97.9753 11.9147 97.5862 11.3837 97.4635 10.8848C97.3553 10.3814 97.4779 9.7948 97.8314 9.12502L97.9882 8.82787C98.4463 7.95999 99.0251 7.4574 99.7248 7.32008C100.424 7.18277 101.336 7.41035 102.458 8.00282L102.543 8.04763C103.666 8.6401 104.363 9.26139 104.635 9.91152C104.916 10.5666 104.828 11.3281 104.37 12.196L104.176 12.5639C104.131 12.6488 104.066 12.6688 103.981 12.624L102.694 11.9444C102.599 11.8946 102.574 11.8273 102.619 11.7424L102.813 11.3745C103.037 10.95 103.083 10.6122 102.95 10.3612C102.822 10.1007 102.438 9.8012 101.796 9.46265L101.711 9.41784C101.06 9.07431 100.591 8.92324 100.304 8.96465C100.022 8.99662 99.7688 9.22485 99.5448 9.64936L99.3879 9.94651C99.2386 10.2295 99.1881 10.4622 99.2366 10.6446C99.2901 10.8175 99.4806 11.0507 99.8081 11.3442L101.543 12.821C102.204 13.3746 102.588 13.9151 102.696 14.4423C102.809 14.9601 102.678 15.5728 102.305 16.2803L102.133 16.6057C101.675 17.4736 101.091 17.9737 100.382 18.106C99.6828 18.2434 98.7575 18.0083 97.6066 17.4009L97.5217 17.3561C96.3614 16.7437 95.6358 16.1075 95.3449 15.4474C95.0635 14.7923 95.1518 14.0308 95.6099 13.1629Z" fill="white"/>
<path d="M105.492 18.6712L108.546 14.8653C109.174 14.0833 109.853 13.6979 110.582 13.7091C111.312 13.7202 112.226 14.1664 113.324 15.0477L113.399 15.1078C114.497 15.9891 115.126 16.7814 115.287 17.4846C115.455 18.1945 115.226 18.9405 114.598 19.7224L111.544 23.5283C110.916 24.3103 110.238 24.6957 109.508 24.6845C108.787 24.6801 107.877 24.2372 106.779 23.3559L106.704 23.2958C105.606 22.4145 104.973 21.6189 104.804 20.909C104.635 20.1991 104.864 19.4531 105.492 18.6712ZM107.706 22.048L107.78 22.1081C108.438 22.6355 108.924 22.9162 109.238 22.95C109.553 22.9838 109.864 22.8093 110.171 22.4267L113.226 18.6208C113.533 18.2382 113.636 17.8968 113.535 17.5968C113.434 17.2968 113.054 16.8831 112.397 16.3556L112.322 16.2955C111.657 15.7614 111.167 15.4775 110.852 15.4436C110.537 15.4098 110.226 15.5843 109.919 15.9669L106.865 19.7728C106.557 20.1555 106.454 20.4968 106.556 20.7968C106.657 21.0968 107.04 21.5139 107.706 22.048Z" fill="white"/>
<path d="M115.193 26.9692L118.954 23.8596C119.727 23.2207 120.469 22.9804 121.182 23.1389C121.894 23.2973 122.699 23.9191 123.596 25.0042L123.657 25.0782C124.554 26.1634 125.01 27.0665 125.025 27.7877C125.047 28.5171 124.672 29.2012 123.899 29.8401L120.138 32.9497C119.365 33.5886 118.623 33.8288 117.91 33.6704C117.205 33.5202 116.404 32.9025 115.506 31.8174L115.445 31.7434C114.548 30.6582 114.089 29.751 114.067 29.0216C114.045 28.2922 114.421 27.6081 115.193 26.9692ZM116.678 30.7238L116.739 30.7978C117.276 31.4473 117.696 31.8204 117.997 31.9171C118.299 32.0139 118.638 31.906 119.017 31.5933L122.777 28.4837C123.156 28.1711 123.326 27.8576 123.287 27.5433C123.249 27.2291 122.961 26.7472 122.424 26.0978L122.363 26.0238C121.819 25.3661 121.397 24.9889 121.095 24.8921C120.794 24.7954 120.454 24.9033 120.076 25.216L116.315 28.3256C115.937 28.6382 115.767 28.9517 115.805 29.266C115.844 29.5802 116.135 30.0662 116.678 30.7238Z" fill="white"/>
<path d="M133.562 41.0626L124.69 45.7451C124.605 45.79 124.538 45.7652 124.488 45.6709L123.748 44.27C123.719 44.2134 123.719 44.1466 123.751 44.0695L126.574 39.341C127.176 38.2876 127.784 37.382 128.397 36.6242C127.639 37.0846 126.802 37.5563 125.887 38.0392L121.77 40.2124C121.685 40.2572 121.62 40.2372 121.575 40.1523L120.896 38.8646C120.846 38.7703 120.863 38.7007 120.948 38.6559L129.82 33.9734C129.905 33.9286 129.973 33.9534 130.022 34.0477L130.762 35.4486C130.797 35.5146 130.796 35.5814 130.759 35.649L127.936 40.3775C127.549 41.0159 127.24 41.5046 127.009 41.8436C126.802 42.1822 126.494 42.6041 126.085 43.1093C126.843 42.6489 127.689 42.1722 128.623 41.6793L132.74 39.5061C132.825 39.4613 132.89 39.4814 132.935 39.5663L133.615 40.8539C133.664 40.9483 133.647 41.0178 133.562 41.0626Z" fill="white"/>
<path d="M131.564 54.4016L132.832 54.1297C132.936 54.1073 132.998 54.143 133.018 54.2369L133.894 58.3199C133.917 58.4242 133.876 58.4876 133.771 58.5099L132.504 58.7819C132.41 58.802 132.352 58.7599 132.33 58.6556L131.454 54.5726C131.434 54.4787 131.471 54.4217 131.564 54.4016Z" fill="white"/>
</svg>
