<svg width="192" height="48" viewBox="0 0 192 48" fill="none" xmlns="http://www.w3.org/2000/svg">
<circle cx="78.3227" cy="6.32227" r="3" transform="rotate(-45 78.3227 6.32227)" fill="white"/>
<circle cx="86.8081" cy="33.1923" r="3" transform="rotate(-45 86.8081 33.1923)" fill="#00D1FF"/>
<circle cx="78.3227" cy="41.6776" r="3" transform="rotate(-45 78.3227 41.6776)" fill="#00D1FF"/>
<circle cx="105.193" cy="14.8076" r="3" transform="rotate(-45 105.193 14.8076)" fill="white"/>
<circle cx="86.8081" cy="14.8076" r="3" transform="rotate(-45 86.8081 14.8076)" fill="white"/>
<circle cx="105.193" cy="33.1923" r="3" transform="rotate(-45 105.193 33.1923)" fill="#00D1FF"/>
<circle cx="113.678" cy="6.32227" r="3" transform="rotate(-45 113.678 6.32227)" fill="white"/>
<circle cx="113.678" cy="41.6776" r="3" transform="rotate(-45 113.678 41.6776)" fill="#00D1FF"/>
<circle cx="96.0006" cy="23.9999" r="4" transform="rotate(-45 96.0006 23.9999)" fill="#00D1FF"/>
<path d="M9.264 30.08C8.89067 30.08 8.592 30.0427 8.368 29.968V28.8C8.58133 28.8747 8.83733 28.912 9.136 28.912C9.65867 28.912 10.0373 28.7893 10.272 28.544C10.5173 28.2987 10.64 27.904 10.64 27.36V18.8H11.92V27.328C11.92 28.2667 11.7013 28.96 11.264 29.408C10.8373 29.856 10.1707 30.08 9.264 30.08Z" fill="white"/>
<path d="M55.912 30H54.6L54.104 27.616H51.064L50.584 30H49.368L51.752 18.8H53.496L55.912 30ZM52.568 20.256L51.304 26.496H53.864L52.568 20.256Z" fill="white"/>
<path d="M141.064 30H135.912V18.8H141.064V19.952H137.192V23.664H140.36V24.8H137.192V28.848H141.064V30Z" fill="white"/>
<path d="M182.936 30H181.656V19.952H179.368V18.8H185.224V19.952H182.936V30Z" fill="white"/>
</svg>
