<svg width="24" height="24" viewBox="0 0 24 24" fill="none" xmlns="http://www.w3.org/2000/svg"><path fill-rule="evenodd" clip-rule="evenodd" d="M2.654 5.276C2 6.56 2 8.24 2 11.6v.8c0 3.36 0 5.04.654 6.324a6 6 0 002.622 2.622C6.56 22 8.24 22 11.6 22h.8c3.36 0 5.04 0 6.324-.654a6 6 0 002.622-2.622C22 17.44 22 15.76 22 12.4v-.8c0-3.36 0-5.04-.654-6.324a6 6 0 00-2.622-2.622C17.44 2 15.76 2 12.4 2h-.8c-3.36 0-5.04 0-6.324.654a6 6 0 00-2.622 2.622zM12.4 4h-.8c-1.713 0-2.878.002-3.778.075-.877.072-1.325.202-1.638.361a4 4 0 00-1.748 1.748c-.16.313-.29.761-.36 1.638C4.001 8.722 4 9.887 4 11.6v.8c0 1.713.002 2.878.075 3.778.072.877.202 1.325.361 1.638a4 4 0 001.748 1.748c.313.16.761.29 1.638.36.9.074 2.065.076 3.778.076h.8c1.713 0 2.878-.002 3.778-.075.877-.072 1.325-.202 1.638-.361a4 4 0 001.748-1.748c.16-.313.29-.761.36-1.638.074-.9.076-2.065.076-3.778v-.8c0-1.713-.002-2.878-.075-3.778-.072-.877-.202-1.325-.361-1.638a4 4 0 00-1.748-1.748c-.313-.16-.761-.29-1.638-.36C15.278 4.001 14.113 4 12.4 4zm4.6 8a5 5 0 11-10 0 5 5 0 0110 0zm-2 0a3 3 0 11-6 0 3 3 0 016 0zm2-4a1 1 0 100-2 1 1 0 000 2z" fill="#fff"/></svg>