<svg width="145" height="145" viewBox="0 0 145 145" fill="none" xmlns="http://www.w3.org/2000/svg"><path d="M136.366 74.155l8.117.282c.078.002.115.043.113.12l-.035.997c-.003.078-.043.115-.121.113l-8.117-.282c-.078-.003-.115-.043-.112-.121l.034-.997c.003-.078.043-.115.121-.112zM143.311 86.142l-8.045-1.123c-.077-.01-.11-.05-.101-.119l.151-1.077a.161.161 0 01.096-.13l4.378-1.94c.873-.384 1.72-.706 2.542-.967a39.363 39.363 0 01-2.37-.265l-3.99-.557c-.077-.01-.11-.055-.099-.131l.137-.988c.011-.077.055-.11.132-.1l8.044 1.123c.077.01.11.055.1.132l-.151 1.077a.133.133 0 01-.095.118l-4.39 1.938c-1.048.446-1.899.768-2.555.964.716.056 1.51.146 2.383.267l4.003.559c.077.01.11.055.099.132l-.14 1c-.009.069-.052.098-.129.087zM135.359 92.502l.341.123c.073.026.098.072.075.137l-.341.95c-.026.074-.076.098-.149.071l-.341-.122c-.407-.145-.72-.143-.939.008-.211.154-.428.544-.653 1.17l-.026.073c-.224.626-.303 1.065-.238 1.318.073.256.313.456.72.602l.305.11c.309.11.55.127.724.052.182-.072.383-.29.604-.65l.947-1.491c.363-.577.737-.943 1.123-1.098.391-.144.875-.113 1.452.094l.244.087c.74.265 1.2.659 1.379 1.182.188.526.11 1.269-.233 2.228l-.027.073c-.337.943-.746 1.558-1.225 1.845-.482.296-1.088.312-1.82.05l-.342-.122c-.073-.026-.096-.076-.07-.15l.336-.938c.026-.073.076-.097.149-.07l.342.122c.406.145.715.141.926-.013.216-.142.431-.51.643-1.104l.027-.073c.215-.602.286-1.03.212-1.286-.068-.245-.305-.44-.712-.586l-.244-.087c-.292-.105-.52-.122-.683-.052-.157.081-.353.296-.588.643l-.934 1.495c-.377.59-.761.957-1.152 1.101-.394.153-.891.121-1.493-.094l-.305-.11c-.74-.265-1.202-.664-1.387-1.198-.177-.531-.09-1.285.259-2.26l.026-.073c.35-.976.761-1.613 1.235-1.911.482-.295 1.093-.31 1.833-.046zM135.931 106.75l-.801-.397c-.069-.034-.087-.087-.053-.156l.943-1.904-6.374-3.155c-.069-.035-.087-.087-.052-.157l.442-.894c.035-.069.087-.087.156-.052l6.374 3.155.943-1.904c.034-.07.086-.087.156-.053l.801.397c.069.034.087.086.053.156l-2.432 4.911c-.034.069-.086.087-.156.053zM129.488 105.859l3.411 2.241c.656.431 1.009.932 1.059 1.502.044.577-.239 1.331-.851 2.262l-.043.065c-.612.931-1.189 1.487-1.731 1.668-.547.188-1.149.066-1.806-.366l-3.411-2.24c-.656-.432-1.007-.936-1.052-1.513-.049-.57.232-1.32.844-2.251l.043-.065c.612-.931 1.191-1.491 1.738-1.679.543-.181 1.143-.055 1.799.376zm-2.595 1.922l-.043.065c-.403.613-.604 1.06-.602 1.34.002.28.183.539.544.776l3.411 2.241c.36.237.67.301.928.191.258-.109.588-.471.991-1.084l.043-.065c.403-.614.604-1.06.602-1.341-.002-.28-.183-.539-.544-.776l-3.41-2.24c-.361-.238-.671-.301-.929-.192-.258.11-.588.471-.991 1.085zM124.193 113.554l3.087 2.668c.595.514.882 1.053.862 1.618-.02.565-.383 1.256-1.089 2.073l-.051.058c-.706.817-1.337 1.276-1.893 1.378-.556.102-1.131-.104-1.725-.618l-.363-.314c-.059-.05-.063-.105-.012-.164l.652-.755c.051-.059.106-.063.165-.012l.362.314c.32.276.613.381.877.312.271-.062.633-.355 1.084-.878l.051-.058c.452-.523.689-.923.712-1.2.029-.272-.117-.546-.437-.823l-3.087-2.668c-.32-.277-.616-.384-.887-.321-.264.068-.622.364-1.074.886l-.051.059c-.452.523-.692.92-.721 1.192-.023.277.126.554.446.83l.363.314c.058.051.062.106.012.164l-.653.755c-.05.059-.105.063-.164.012l-.363-.313c-.594-.514-.882-1.054-.861-1.618.02-.565.383-1.256 1.088-2.073l.051-.058c.706-.817 1.337-1.276 1.893-1.378.556-.102 1.131.104 1.726.618zM112.374 122.694l-.062-.031c-.035-.039-.024-.084.034-.136l.894-.807c.045-.041.1-.05.167-.029l4.063 1.446-.076-2.114-1.442-1.596c-.052-.057-.049-.112.009-.164l.74-.669c.058-.052.113-.049.165.008l5.444 6.028c.052.058.049.113-.009.165l-.74.669c-.058.052-.113.049-.165-.009l-2.848-3.153.422 5.414a.214.214 0 01-.072.153l-.885.798c-.032.029-.066.037-.102.023-.03-.008-.044-.036-.041-.085l-.331-4.135-5.165-1.776zM103.194 128.66l3.871 7.14c.037.069.021.122-.047.159l-.877.475c-.069.037-.121.021-.158-.047l-3.871-7.141c-.037-.068-.021-.121.047-.158l.877-.475c.068-.037.121-.022.158.047zM96.174 140.767l-3.08-7.515c-.029-.072-.012-.121.052-.147l1.007-.413a.162.162 0 01.161.018l3.88 2.806a25.521 25.521 0 012.115 1.709 39.144 39.144 0 01-.964-2.181l-1.528-3.728c-.03-.072-.008-.122.064-.152l.923-.378c.072-.03.122-.008.152.064l3.08 7.515c.029.072.008.123-.064.152l-1.007.413a.134.134 0 01-.149-.023l-3.885-2.818c-.913-.68-1.62-1.254-2.12-1.721.313.647.635 1.378.97 2.193l1.532 3.74c.03.072.008.122-.064.152l-.934.383c-.064.026-.111.003-.14-.069zM86.723 137.06l.065.356c.014.077-.013.121-.08.134l-.995.181c-.076.014-.121-.017-.135-.093l-.066-.357c-.077-.425-.236-.694-.477-.808-.238-.106-.685-.099-1.339.021l-.076.014c-.654.119-1.075.271-1.26.454-.185.192-.238.5-.16.925l.058.318c.059.323.164.541.317.653.153.121.442.187.865.198l1.765.072c.68.025 1.185.165 1.512.422.321.266.537.7.647 1.304l.047.254c.141.773.03 1.369-.332 1.786-.361.426-1.043.731-2.046.914l-.076.014c-.985.18-1.722.135-2.21-.136-.498-.269-.816-.786-.956-1.55l-.065-.357c-.014-.076.017-.122.094-.136l.98-.179c.077-.014.122.017.136.094l.066.356c.077.425.236.69.474.796.232.116.658.117 1.278.003l.077-.014c.628-.115 1.035-.268 1.22-.46.177-.181.227-.485.15-.909l-.047-.255c-.056-.306-.155-.512-.298-.617-.149-.096-.432-.158-.85-.187l-1.763-.06c-.699-.03-1.209-.178-1.53-.445-.329-.264-.551-.711-.666-1.34l-.058-.318c-.142-.773-.027-1.373.342-1.801.371-.419 1.067-.722 2.086-.908l.076-.014c1.02-.186 1.777-.149 2.273.111.497.269.816.79.957 1.564zM74.774 144.708l-.062-.892c-.005-.078.031-.119.109-.125l2.119-.147-.493-7.095c-.006-.077.03-.119.108-.124l.995-.069c.077-.006.119.03.124.108l.494 7.095 2.119-.148c.078-.005.119.031.124.108l.062.892c.006.078-.03.119-.108.125l-5.466.38c-.078.005-.12-.031-.125-.108zM72.093 138.688l-.22 4.074c-.043.785-.297 1.342-.765 1.671-.476.329-1.27.463-2.383.403l-.078-.004c-1.112-.06-1.883-.279-2.312-.657-.438-.378-.636-.96-.593-1.744l.22-4.075c.042-.785.302-1.341.778-1.67.467-.33 1.257-.464 2.37-.404l.078.004c1.112.06 1.887.28 2.325.658.43.378.623.959.58 1.744zm-2.966-1.276l-.078-.005c-.733-.039-1.22.012-1.461.155-.242.142-.374.429-.397.861l-.22 4.074c-.024.431.077.731.301.899.225.167.703.271 1.436.311l.078.004c.733.04 1.22-.012 1.461-.155.242-.142.374-.429.397-.86l.22-4.075c.024-.431-.077-.73-.301-.898-.225-.168-.703-.272-1.436-.311zM62.786 137.978l-.75 4.011c-.144.773-.465 1.292-.963 1.56-.498.267-1.277.301-2.339.103l-.076-.014c-1.061-.198-1.776-.512-2.144-.941-.368-.429-.48-1.03-.335-1.802l.088-.471c.014-.077.06-.108.136-.093l.98.183c.077.014.108.059.094.136l-.088.471c-.078.416-.02.721.171.915.19.202.626.367 1.305.494l.076.014c.68.127 1.145.13 1.395.01.25-.111.413-.375.49-.791l.75-4.011c.078-.416.021-.725-.17-.928-.192-.194-.627-.354-1.306-.481l-.077-.014c-.679-.127-1.143-.135-1.392-.023-.251.12-.416.388-.493.804l-.088.471c-.014.076-.06.107-.136.093l-.98-.183c-.077-.014-.108-.06-.094-.136l.088-.471c.144-.773.466-1.293.963-1.56.498-.267 1.278-.302 2.34-.103l.075.014c1.062.198 1.776.512 2.144.941.368.429.48 1.029.336 1.802zM48.934 132.346l-.005-.069c.016-.05.06-.063.135-.039l1.147.368c.058.018.093.061.108.129l.791 4.24 1.79-1.128.656-2.047c.023-.074.072-.1.146-.076l.95.304c.074.024.1.073.075.147l-2.478 7.735c-.023.074-.072.099-.146.075l-.95-.304c-.074-.024-.1-.072-.075-.146l1.296-4.047-4.47 3.084a.21.21 0 01-.168.014l-1.135-.363c-.041-.013-.065-.039-.07-.077-.01-.03.008-.056.052-.079l3.41-2.362-1.06-5.359zM39.205 127.382l-4.26 6.916c-.04.066-.093.079-.16.038l-.849-.523c-.066-.041-.079-.094-.038-.16l4.26-6.916c.04-.067.093-.079.16-.039l.849.524c.066.04.079.094.038.16zM25.233 127.373l4.967-6.426c.048-.061.099-.071.153-.029l.861.666c.048.037.07.086.066.148l-.49 4.763c-.1.949-.24 1.844-.422 2.686.399-.586.867-1.228 1.406-1.925l2.464-3.187c.048-.062.102-.069.164-.021l.789.61c.061.047.068.102.02.163l-4.967 6.426c-.047.062-.102.069-.163.021l-.861-.665a.134.134 0 01-.055-.141l.497-4.773c.132-1.132.276-2.03.43-2.696a40.4 40.4 0 01-1.414 1.935l-2.472 3.198c-.047.061-.102.068-.163.021l-.8-.618c-.054-.043-.058-.094-.01-.156zM23.71 117.353l-.275.236c-.06.051-.111.05-.156-.003l-.658-.766c-.05-.059-.046-.114.013-.165l.275-.236c.328-.281.48-.554.457-.819-.029-.26-.26-.642-.693-1.147l-.05-.059c-.433-.504-.776-.791-1.028-.859-.258-.063-.551.047-.88.328l-.245.211c-.25.213-.384.414-.404.603-.027.193.061.476.265.847l.827 1.56c.322.601.455 1.107.399 1.519-.069.411-.335.817-.8 1.216l-.197.168c-.597.512-1.167.717-1.71.614-.55-.097-1.157-.533-1.82-1.306l-.05-.059c-.653-.76-.985-1.42-.998-1.978-.018-.565.268-1.1.858-1.606l.275-.237c.06-.05.114-.046.165.013l.65.757c.05.059.046.114-.014.164l-.275.237c-.327.281-.477.551-.448.811.017.258.231.627.642 1.105l.05.059c.416.485.754.759 1.012.822.247.061.534-.048.861-.33l.197-.168c.236-.203.364-.392.383-.568.008-.177-.081-.453-.267-.829l-.837-1.552c-.326-.619-.455-1.134-.387-1.546.063-.417.337-.834.822-1.25l.245-.211c.597-.512 1.173-.716 1.728-.612.55.109 1.161.557 1.836 1.344l.05.059c.675.786 1.025 1.459 1.05 2.018.018.565-.271 1.103-.868 1.615zM11.095 110.89l.74-.501c.064-.044.118-.034.161.031l1.193 1.758 5.886-3.992c.064-.044.118-.034.162.031l.56.825c.043.065.033.119-.032.162l-5.885 3.992 1.192 1.758c.044.065.034.119-.03.162l-.74.502c-.065.044-.119.033-.162-.031l-3.076-4.535c-.044-.064-.034-.118.03-.162zM15.055 105.74l-3.63 1.864c-.699.36-1.309.42-1.829.183-.524-.246-1.04-.864-1.55-1.855l-.035-.069c-.509-.991-.709-1.767-.599-2.328.106-.569.509-1.033 1.208-1.392l3.63-1.865c.698-.359 1.31-.416 1.834-.17.52.237 1.035.852 1.544 1.843l.035.069c.51.991.71 1.771.605 2.34-.11.561-.514 1.021-1.213 1.38zm-.394-3.205l-.036-.069c-.335-.653-.625-1.048-.87-1.185-.245-.136-.56-.105-.943.092l-3.63 1.864c-.384.198-.592.435-.624.714-.032.278.12.744.456 1.397l.035.069c.336.653.626 1.048.87 1.184.245.137.56.106.944-.091l3.63-1.865c.384-.197.591-.435.623-.713.032-.279-.12-.744-.455-1.397zM11.003 97.426l-3.841 1.376c-.74.265-1.351.25-1.833-.045-.482-.296-.905-.951-1.269-1.968l-.026-.073c-.364-1.016-.454-1.791-.269-2.325.185-.534.647-.934 1.387-1.199l.451-.161c.074-.027.123-.003.15.07l.336.94c.026.072.003.122-.07.148l-.452.162c-.398.142-.633.346-.703.61-.08.266-.002.725.231 1.375l.026.073c.233.65.465 1.054.695 1.21.222.16.532.167.93.025l3.842-1.376c.399-.143.637-.348.716-.615.07-.263-.01-.72-.244-1.37l-.026-.074c-.233-.65-.46-1.055-.682-1.214-.23-.156-.545-.163-.943-.02l-.451.161c-.074.027-.123.003-.15-.07l-.336-.94c-.026-.072-.003-.122.07-.148l.452-.162c.74-.265 1.35-.25 1.832.046.482.295.905.95 1.27 1.967l.025.073c.364 1.016.454 1.791.27 2.326-.186.534-.648.933-1.388 1.198zM8.87 82.54l.057-.038c.051-.011.085.021.101.097l.258 1.177c.012.06-.007.112-.059.159l-3.27 2.81 1.872.983 2.1-.46c.076-.016.123.013.14.09l.212.974c.017.076-.013.122-.089.139l-7.935 1.734c-.075.017-.122-.013-.138-.089l-.213-.974c-.017-.076.013-.123.089-.14l4.15-.906-4.91-2.322a.212.212 0 01-.096-.138l-.254-1.164c-.01-.042.001-.075.031-.1.022-.022.053-.02.094.006l3.754 1.765 4.106-3.602zM8.236 71.354l-8.12-.22c-.077-.002-.115-.041-.113-.12l.027-.996c.002-.078.042-.116.12-.114l8.12.22c.077.002.115.042.112.12l-.027.997c-.002.077-.042.115-.12.113zM1.192 59.47l8.053 1.061c.077.01.11.05.102.118l-.142 1.08a.162.162 0 01-.096.13l-4.363 1.973c-.87.39-1.715.72-2.534.986.708.05 1.498.132 2.372.247l3.994.526c.077.01.11.054.1.131l-.13.99c-.01.076-.054.11-.13.1L.364 65.75c-.077-.01-.11-.054-.1-.131l.141-1.079c.008-.06.04-.1.094-.118l4.376-1.972c1.044-.454 1.893-.782 2.547-.984a40.106 40.106 0 01-2.385-.249l-4.007-.528c-.077-.01-.11-.053-.1-.13l.132-1.002c.009-.069.052-.098.13-.088zM9.063 53.096l-.342-.12c-.073-.025-.099-.07-.076-.136l.334-.954c.025-.073.075-.097.148-.071l.343.12c.407.142.72.137.938-.015.21-.156.425-.547.644-1.175l.026-.073c.22-.628.295-1.068.228-1.32-.075-.255-.317-.454-.724-.597l-.306-.107c-.31-.108-.551-.124-.725-.047-.181.074-.38.292-.6.655l-.935 1.498c-.358.58-.73.948-1.114 1.106-.39.147-.874.12-1.453-.083l-.245-.085c-.742-.26-1.204-.65-1.388-1.172-.191-.524-.12-1.268.217-2.23l.026-.073c.33-.945.734-1.564 1.211-1.854.48-.3 1.086-.32 1.82-.064l.343.12c.073.026.097.075.071.149l-.33.941c-.025.074-.074.097-.148.072l-.342-.12c-.408-.143-.716-.136-.926.02-.215.143-.427.513-.635 1.108l-.026.074c-.21.603-.279 1.032-.203 1.287.07.244.309.438.717.58l.244.086c.294.102.521.118.684.047.156-.083.35-.298.583-.647l.923-1.503c.372-.592.753-.962 1.143-1.11.393-.155.89-.127 1.494.084l.306.107c.742.26 1.207.655 1.396 1.188.18.53.1 1.284-.242 2.262l-.026.073c-.342.979-.749 1.618-1.22 1.92-.48.299-1.09.319-1.833.06zM8.389 38.81l.803.39c.07.035.088.087.054.157l-.928 1.91 6.397 3.108c.07.035.088.086.054.156l-.436.898c-.034.07-.086.087-.156.053L7.78 42.374l-.928 1.911c-.034.07-.086.088-.156.054l-.804-.39c-.07-.034-.088-.086-.054-.156l2.395-4.929c.034-.07.086-.088.155-.054zM14.695 39.879l-3.435-2.204c-.661-.424-1.02-.92-1.075-1.49-.051-.576.224-1.333.826-2.271l.042-.066c.601-.937 1.172-1.5 1.713-1.686.545-.194 1.148-.08 1.81.345l3.434 2.203c.662.424 1.018.925 1.069 1.501.055.57-.218 1.323-.819 2.26l-.042.066c-.602.938-1.175 1.504-1.72 1.698-.54.187-1.141.068-1.803-.356zm2.574-1.95l.042-.066c.397-.618.592-1.067.587-1.347-.005-.28-.189-.537-.552-.77l-3.435-2.203c-.363-.233-.673-.294-.93-.181-.257.112-.583.477-.98 1.095l-.042.065c-.396.618-.592 1.067-.587 1.348.005.28.19.536.553.77l3.434 2.203c.364.233.674.293.93.18.258-.112.584-.477.98-1.095zM19.89 32.122l-3.117-2.635c-.6-.507-.893-1.043-.88-1.608.015-.565.37-1.26 1.067-2.084l.05-.06c.697-.824 1.323-1.29 1.878-1.398.554-.108 1.132.092 1.732.6l.366.309c.06.05.064.105.014.164l-.644.762c-.05.06-.105.064-.165.014l-.365-.31c-.324-.273-.617-.374-.88-.303-.271.066-.63.362-1.075.89l-.05.06c-.446.527-.68.93-.699 1.207-.026.272.122.544.445.817l3.117 2.635c.323.273.62.377.89.311.264-.07.618-.37 1.064-.898l.05-.06c.447-.527.683-.927.709-1.198.02-.278-.132-.553-.455-.826l-.366-.31c-.06-.05-.064-.105-.014-.164l.644-.762c.05-.06.105-.064.164-.013l.366.309c.6.507.893 1.043.88 1.608-.014.565-.37 1.26-1.067 2.084l-.05.06c-.697.824-1.323 1.29-1.877 1.398-.555.108-1.133-.092-1.733-.6zM31.794 22.68l.062.03c.035.038.024.083-.033.136l-.888.814c-.045.04-.1.05-.166.029l-4.074-1.416.091 2.113 1.453 1.586c.053.057.05.112-.007.164l-.735.674c-.058.053-.113.05-.165-.007l-5.488-5.988c-.052-.057-.05-.112.008-.165l.735-.674c.057-.052.112-.05.165.008l2.87 3.132-.46-5.411a.212.212 0 01.07-.153l.88-.805c.03-.03.065-.037.101-.023.03.007.044.035.042.084l.36 4.133 5.179 1.738zM40.773 16.702L36.85 9.59c-.037-.068-.022-.12.046-.158l.873-.482c.069-.037.121-.022.159.046l3.923 7.112c.038.068.022.12-.046.158l-.873.482c-.068.037-.121.022-.159-.046zM47.614 4.55l3.136 7.492c.03.072.013.12-.05.147l-1.004.42a.162.162 0 01-.162-.016l-3.9-2.777a25.414 25.414 0 01-2.128-1.694c.313.637.64 1.362.98 2.174l1.556 3.716c.03.072.009.123-.063.153l-.92.385c-.072.03-.122.01-.152-.062L41.77 6.995c-.03-.071-.01-.122.062-.152l1.004-.42a.134.134 0 01.15.021l3.905 2.789c.919.673 1.63 1.242 2.132 1.705a40.126 40.126 0 01-.985-2.185l-1.56-3.728c-.03-.072-.01-.123.062-.153l.932-.39c.064-.027.11-.004.14.067zM56.932 8.156l-.069-.356c-.015-.076.012-.12.08-.134l.991-.193c.077-.015.122.016.137.092l.07.356c.082.424.244.691.486.803.24.103.686.09 1.338-.037l.077-.014c.652-.128 1.07-.284 1.255-.47.182-.193.232-.502.15-.926l-.063-.318c-.062-.322-.17-.538-.324-.65-.155-.118-.445-.18-.868-.186l-1.765-.053c-.681-.017-1.187-.151-1.518-.404-.323-.262-.544-.694-.661-1.296l-.05-.254c-.15-.772-.046-1.368.312-1.79.356-.43 1.034-.742 2.035-.937l.076-.015c.983-.192 1.72-.155 2.212.11.5.264.824.777.973 1.54l.07.356c.014.076-.017.122-.093.136l-.98.191c-.075.015-.121-.016-.136-.092l-.07-.356c-.082-.424-.243-.687-.483-.79-.233-.113-.659-.11-1.278.011l-.076.015c-.627.122-1.032.28-1.214.474-.176.184-.222.487-.14.911l.05.255c.06.305.16.51.304.613.15.094.435.153.853.178l1.763.039c.7.022 1.21.165 1.535.427.332.26.56.705.681 1.332l.062.318c.15.772.043 1.373-.322 1.805-.366.423-1.058.734-2.075.932l-.076.015c-1.017.198-1.775.17-2.273-.086-.5-.263-.825-.78-.976-1.552zM68.993.34l.069.891c.006.078-.03.12-.108.125l-2.118.164.548 7.09c.006.078-.03.12-.107.126l-.994.077c-.078.006-.12-.03-.126-.107l-.548-7.091-2.118.164c-.077.006-.12-.03-.125-.108l-.069-.89c-.006-.078.03-.12.107-.126l5.464-.422c.077-.006.119.03.125.107zM71.937 6.315l.189-4.076c.036-.785.287-1.344.752-1.677.473-.333 1.267-.473 2.38-.422l.077.004c1.113.051 1.886.265 2.318.639.44.375.643.955.606 1.74l-.189 4.076c-.036.785-.29 1.344-.764 1.676-.465.333-1.254.474-2.367.422l-.078-.003c-1.113-.052-1.89-.265-2.33-.64-.433-.374-.63-.954-.594-1.74zm2.976 1.253l.078.004c.733.034 1.22-.022 1.46-.166.24-.145.37-.433.39-.864l.19-4.076c.02-.431-.084-.73-.31-.896-.225-.166-.705-.266-1.438-.3l-.078-.004c-.733-.034-1.22.021-1.46.166-.24.144-.37.432-.39.864l-.189 4.076c-.02.431.083.73.309.896.226.166.705.266 1.438.3zM81.166 6.928l.719-4.017c.138-.773.455-1.296.951-1.567.496-.27 1.275-.311 2.338-.12l.076.013c1.063.19 1.78.498 2.151.924.371.426.488 1.026.35 1.8l-.085.471c-.014.077-.059.108-.135.095l-.982-.176c-.077-.014-.108-.059-.094-.135l.084-.472c.075-.417.015-.721-.179-.914-.192-.2-.628-.362-1.308-.484l-.077-.014c-.68-.121-1.145-.121-1.394.001-.249.113-.41.378-.485.795l-.718 4.017c-.075.416-.016.725.176.926.194.193.63.35 1.31.472l.077.013c.68.122 1.144.126 1.393.013.25-.122.412-.392.487-.808l.084-.472c.014-.077.059-.108.135-.094l.982.175c.077.014.108.06.094.136l-.084.471c-.138.774-.456 1.296-.951 1.567-.496.271-1.276.312-2.338.122l-.077-.014c-1.062-.19-1.78-.498-2.15-.924-.372-.426-.488-1.026-.35-1.8zM94.936 12.393l.005.07c-.015.05-.06.062-.134.04l-1.15-.36c-.058-.018-.094-.06-.109-.129l-.823-4.233-1.781 1.14-.64 2.054c-.024.074-.072.1-.147.076l-.952-.297c-.074-.023-.1-.072-.076-.146l2.42-7.753c.022-.075.071-.1.145-.077l.953.297c.074.023.1.072.076.146l-1.266 4.056 4.447-3.117a.212.212 0 01.168-.016l1.138.355c.04.013.064.038.07.077.01.03-.008.056-.051.078l-3.392 2.389 1.099 5.35zM104.901 17.318l4.209-6.947c.04-.066.093-.08.16-.04l.853.518c.066.04.079.093.039.16l-4.208 6.947c-.04.066-.094.08-.16.04l-.853-.518c-.067-.04-.08-.093-.04-.16zM118.769 17.129l-4.921 6.462c-.047.062-.098.072-.153.03l-.865-.66a.16.16 0 01-.067-.147l.455-4.767c.093-.95.227-1.846.403-2.689-.395.59-.859 1.235-1.393 1.936l-2.44 3.205c-.047.062-.102.07-.164.022l-.793-.604c-.062-.047-.069-.102-.022-.164l4.92-6.462c.047-.062.102-.069.164-.022l.865.66a.134.134 0 01.056.14l-.462 4.777c-.124 1.132-.261 2.032-.411 2.699.4-.597.867-1.245 1.4-1.946l2.449-3.216c.047-.061.101-.069.163-.022l.804.612c.055.042.059.094.012.156zM120.503 27.216l.273-.238c.059-.05.111-.05.156.002l.664.762c.051.058.047.113-.012.164l-.273.238c-.326.284-.476.558-.452.823.031.26.265.64.702 1.141l.051.059c.436.501.781.785 1.033.852.259.06.552-.05.877-.334l.245-.213c.247-.216.38-.417.4-.606.025-.194-.065-.476-.273-.845l-.838-1.555c-.326-.598-.462-1.103-.409-1.515.065-.412.329-.82.791-1.222l.196-.17c.593-.516 1.161-.725 1.705-.626.551.093 1.16.524 1.83 1.293l.051.058c.657.756.995 1.413 1.011 1.971.022.565-.26 1.102-.846 1.613l-.274.238c-.058.05-.113.047-.164-.012l-.655-.752c-.051-.059-.047-.113.011-.164l.274-.239c.326-.283.473-.555.442-.814-.019-.258-.235-.625-.649-1.1l-.051-.06c-.42-.481-.759-.753-1.018-.813-.247-.06-.533.051-.859.335l-.195.17c-.235.204-.361.395-.38.57-.006.178.085.453.274.828l.848 1.546c.33.616.463 1.13.398 1.542-.06.419-.33.837-.812 1.257l-.245.213c-.592.516-1.167.724-1.723.624-.55-.105-1.165-.549-1.845-1.33l-.051-.059c-.681-.781-1.036-1.452-1.064-2.01-.022-.565.263-1.106.856-1.622zM133.171 33.575l-.736.507c-.064.044-.118.034-.163-.03l-1.205-1.75-5.856 4.036c-.064.044-.118.034-.162-.03l-.566-.822c-.044-.064-.034-.118.03-.162l5.856-4.035-1.206-1.75c-.044-.063-.034-.117.03-.161l.736-.507c.064-.044.118-.035.163.03l3.108 4.512c.045.064.035.118-.029.162zM129.136 38.539l3.609-1.905c.695-.366 1.304-.434 1.826-.202.527.24 1.05.852 1.57 1.837l.037.069c.52.985.728 1.759.624 2.321-.099.57-.496 1.039-1.191 1.406l-3.609 1.904c-.695.367-1.306.43-1.833.191-.523-.232-1.044-.84-1.564-1.825l-.036-.07c-.52-.984-.731-1.762-.631-2.332.104-.563.503-1.027 1.198-1.394zm.429 3.2l.037.07c.342.649.637 1.04.883 1.174.246.134.561.1.942-.102l3.609-1.905c.382-.201.587-.441.616-.72.029-.279-.128-.743-.471-1.392l-.036-.069c-.343-.649-.637-1.04-.884-1.174-.246-.134-.56-.1-.942.102l-3.609 1.904c-.382.202-.587.442-.616.72-.028.28.129.744.471 1.393zM133.393 47.045l3.831-1.405c.738-.27 1.349-.26 1.833.032.484.291.912.944 1.283 1.957l.027.073c.372 1.014.467 1.788.286 2.324-.18.535-.64.938-1.377 1.209l-.45.165c-.073.026-.123.003-.15-.07l-.343-.936c-.027-.073-.004-.123.069-.15l.45-.165c.397-.145.63-.35.699-.615.077-.267-.004-.725-.242-1.374l-.027-.073c-.237-.648-.472-1.05-.703-1.204-.224-.157-.534-.163-.931-.018l-3.831 1.405c-.398.146-.635.352-.711.62-.069.264.015.72.253 1.37l.027.072c.238.649.468 1.052.692 1.209.231.154.545.159.943.013l.45-.165c.073-.027.123-.004.149.07l.344.936c.026.073.003.123-.07.15l-.45.164c-.737.27-1.348.26-1.832-.031-.485-.292-.912-.944-1.284-1.958l-.027-.073c-.371-1.013-.467-1.788-.286-2.323.181-.536.64-.939 1.378-1.21zM135.615 61.694l-.057.04c-.051.01-.085-.021-.102-.097l-.271-1.174c-.013-.059.005-.112.057-.159l3.238-2.847-1.883-.962-2.096.483c-.075.018-.122-.011-.139-.087l-.225-.972c-.017-.076.012-.122.088-.14l7.914-1.825c.076-.017.123.012.14.088l.224.971c.018.076-.011.123-.087.14l-4.14.955 4.935 2.265a.214.214 0 01.099.137l.267 1.161c.01.042 0 .076-.03.1-.021.023-.053.021-.094-.005l-3.774-1.722-4.064 3.65z" fill="#fff"/></svg>