<svg width="192" height="48" viewBox="0 0 192 48" fill="none" xmlns="http://www.w3.org/2000/svg"><circle cx="78.322" cy="6.322" r="3" transform="rotate(-45 78.322 6.322)" fill="#fff"/><circle cx="86.808" cy="33.192" r="3" transform="rotate(-45 86.808 33.192)" fill="#fff"/><circle cx="78.322" cy="41.678" r="3" transform="rotate(-45 78.322 41.678)" fill="#fff"/><circle cx="105.192" cy="14.808" r="3" transform="rotate(-45 105.192 14.808)" fill="#fff"/><circle cx="86.808" cy="14.808" r="3" transform="rotate(-45 86.808 14.808)" fill="#fff"/><circle cx="105.192" cy="33.192" r="3" transform="rotate(-45 105.192 33.192)" fill="#fff"/><circle cx="113.678" cy="6.322" r="3" transform="rotate(-45 113.678 6.322)" fill="#fff"/><circle cx="113.678" cy="41.678" r="3" transform="rotate(-45 113.678 41.678)" fill="#fff"/><circle cx="96" cy="24" r="4" transform="rotate(-45 96 24)" fill="#fff"/><path d="M9.264 30.08c-.373 0-.672-.037-.896-.112V28.8c.213.075.47.112.768.112.523 0 .901-.123 1.136-.368.245-.245.368-.64.368-1.184V18.8h1.28v8.528c0 .939-.219 1.632-.656 2.08-.427.448-1.093.672-2 .672zM55.912 30H54.6l-.496-2.384h-3.04L50.584 30h-1.216l2.384-11.2h1.744L55.912 30zm-3.344-9.744l-1.264 6.24h2.56l-1.296-6.24zM141.064 30h-5.152V18.8h5.152v1.152h-3.872v3.712h3.168V24.8h-3.168v4.048h3.872V30zM182.936 30h-1.28V19.952h-2.288V18.8h5.856v1.152h-2.288V30z" fill="#fff"/></svg>