<svg width="228" height="32" viewBox="0 0 228 32" fill="none" xmlns="http://www.w3.org/2000/svg"><path d="M2.057.5h43.886c.853 0 1.557.704 1.557 1.587v27.826c0 .883-.704 1.587-1.557 1.587H2.057C1.204 31.5.5 30.796.5 29.913V2.087C.5 1.204 1.204.5 2.057.5z" stroke="#fff" stroke-opacity=".3"/><path d="M17 25a9 9 0 100-18 9 9 0 000 18z" fill="#EA001B"/><path d="M29 25a9 9 0 100-18 9 9 0 000 18z" fill="#F79E1C"/><path fill-rule="evenodd" clip-rule="evenodd" d="M23 23c1.834-1.676 3-4.19 3-7 0-2.81-1.166-5.324-3-7-1.834 1.676-3 4.19-3 7 0 2.81 1.166 5.324 3 7z" fill="#FF5F01"/><path d="M62.057.5h43.886c.853 0 1.557.704 1.557 1.587v27.826c0 .883-.704 1.587-1.557 1.587H62.057c-.853 0-1.557-.704-1.557-1.587V2.087c0-.883.704-1.587 1.557-1.587z" stroke="#fff" stroke-opacity=".3"/><path d="M81.492 20.841h-2.896l1.811-10.648h2.896l-1.811 10.648zM91.99 10.453A7.463 7.463 0 0089.393 10c-2.86 0-4.874 1.45-4.887 3.523-.023 1.53 1.442 2.379 2.538 2.889 1.12.52 1.502.86 1.502 1.325-.012.714-.906 1.043-1.74 1.043-1.156 0-1.775-.17-2.717-.567l-.38-.17-.406 2.39c.679.294 1.93.556 3.23.567 3.038 0 5.017-1.427 5.04-3.637.012-1.212-.762-2.14-2.43-2.9-1.014-.487-1.634-.815-1.634-1.314.012-.453.525-.917 1.668-.917a5.139 5.139 0 012.157.408l.262.113.394-2.3zM95.839 17.069l1.156-2.98c-.012.024.238-.622.381-1.019l.203.918s.548 2.549.667 3.081h-2.407zm3.575-6.876h-2.24c-.691 0-1.216.192-1.514.883l-4.302 9.765h3.039l.608-1.597h3.718c.083.374.346 1.597.346 1.597h2.681l-2.336-10.648zM76.176 10.193l-2.836 7.261-.31-1.473c-.524-1.699-2.169-3.545-4.004-4.463l2.598 9.312h3.063l4.552-10.637h-3.063z" fill="#fff"/><path d="M70.707 10.193h-4.66l-.047.215c3.635.884 6.042 3.014 7.03 5.574l-1.012-4.894c-.167-.68-.68-.873-1.311-.895z" fill="#fff"/><path d="M122.057.5h43.886c.853 0 1.557.704 1.557 1.587v27.826c0 .883-.704 1.587-1.557 1.587h-43.886c-.853 0-1.557-.704-1.557-1.587V2.087c0-.883.704-1.587 1.557-1.587z" stroke="#fff" stroke-opacity=".3"/><g clip-path="url(#clip0)"><path d="M143.446 16.328v4.397h-1.44V9.866h3.82c.456-.009.909.07 1.333.23.425.162.812.403 1.14.71.331.289.595.643.773 1.038.178.395.267.823.26 1.254.01.434-.078.864-.256 1.262a3.005 3.005 0 01-.777 1.043c-.668.617-1.492.925-2.473.924h-2.38v.001zm0-5.125v3.79h2.415a1.96 1.96 0 00.774-.134c.245-.097.467-.242.651-.427a1.808 1.808 0 000-2.654 1.868 1.868 0 00-.648-.436c-.246-.1-.51-.147-.777-.14h-2.415v.001zM152.65 13.053c1.065 0 1.905.275 2.521.826.616.552.924 1.307.923 2.267v4.579h-1.377v-1.031h-.063c-.596.849-1.389 1.274-2.379 1.274-.845 0-1.552-.243-2.121-.728a2.326 2.326 0 01-.639-.817 2.263 2.263 0 01-.215-1.003c0-.769.3-1.38.9-1.834.6-.454 1.401-.681 2.403-.683.855 0 1.559.152 2.113.455v-.319a1.554 1.554 0 00-.154-.682 1.604 1.604 0 00-.441-.552 2.077 2.077 0 00-1.39-.509c-.805 0-1.441.329-1.91.986l-1.269-.774c.698-.97 1.731-1.455 3.098-1.455zm-1.863 5.398c-.001.177.042.352.125.51.083.159.204.296.353.4.318.242.714.37 1.119.363a2.336 2.336 0 001.62-.651c.477-.435.715-.945.715-1.531-.449-.347-1.075-.52-1.878-.52-.585 0-1.073.137-1.464.41-.394.277-.59.614-.59 1.019zM164.003 13.296L159.193 24h-1.486l1.784-3.745-3.162-6.96h1.566l2.285 5.338h.031l2.223-5.337h1.569z" fill="#fff"/><path d="M137.625 15.38a7.102 7.102 0 00-.111-1.268h-6.074v2.402h3.479c-.071.384-.222.75-.443 1.076a2.939 2.939 0 01-.843.82v1.56h2.076c1.216-1.086 1.916-2.691 1.916-4.59z" fill="#4285F4"/><path d="M131.44 21.476c1.738 0 3.202-.553 4.269-1.506l-2.076-1.56c-.578.38-1.322.597-2.193.597a3.841 3.841 0 01-3.616-2.575h-2.138v1.607a6.317 6.317 0 002.374 2.509 6.594 6.594 0 003.38.928z" fill="#34A853"/><path d="M127.825 16.432a3.62 3.62 0 010-2.388v-1.607h-2.139a6.078 6.078 0 00-.686 2.801c0 .973.235 1.932.686 2.801l2.139-1.607z" fill="#FBBC04"/><path d="M131.44 11.47a3.56 3.56 0 012.471.935l1.838-1.78A6.3 6.3 0 00131.44 9a6.595 6.595 0 00-3.38.928 6.318 6.318 0 00-2.374 2.51l2.138 1.606a3.841 3.841 0 013.616-2.575z" fill="#EA4335"/></g><path d="M182.057.5h43.886c.853 0 1.557.704 1.557 1.587v27.826c0 .883-.704 1.587-1.557 1.587h-43.886c-.853 0-1.557-.704-1.557-1.587V2.087c0-.883.704-1.587 1.557-1.587z" stroke="#fff" stroke-opacity=".3"/><g clip-path="url(#clip1)"><path d="M191.947 10.063c-.445.54-1.157.966-1.87.906-.089-.731.26-1.508.668-1.987.445-.556 1.225-.952 1.856-.982.074.761-.216 1.507-.654 2.063zm.646 1.05c-1.032-.06-1.915.602-2.405.602-.497 0-1.246-.571-2.063-.556-1.061.015-2.048.632-2.59 1.614-1.113 1.963-.29 4.871.787 6.47.527.791 1.157 1.659 1.989 1.629.786-.03 1.098-.526 2.048-.526.958 0 1.232.526 2.063.51.861-.015 1.403-.791 1.93-1.583.601-.898.846-1.773.861-1.82-.015-.014-1.662-.661-1.677-2.61-.015-1.629 1.299-2.405 1.358-2.451-.742-1.127-1.9-1.248-2.301-1.279zm5.96-2.207v11.867h1.796v-4.058h2.486c2.271 0 3.867-1.598 3.867-3.912s-1.566-3.897-3.807-3.897h-4.342zm1.796 1.553h2.071c1.558 0 2.449.852 2.449 2.352s-.891 2.36-2.457 2.36h-2.063v-4.712zm9.634 10.405c1.128 0 2.174-.586 2.649-1.515h.037v1.424h1.663v-5.907c0-1.713-1.336-2.816-3.392-2.816-1.907 0-3.318 1.118-3.37 2.656h1.618c.134-.73.795-1.21 1.7-1.21 1.098 0 1.714.525 1.714 1.492v.654l-2.241.137c-2.085.13-3.214 1.005-3.214 2.527 0 1.538 1.166 2.558 2.836 2.558zm.482-1.408c-.957 0-1.566-.472-1.566-1.195 0-.746.586-1.18 1.707-1.249l1.996-.129v.67c0 1.111-.92 1.903-2.137 1.903zM216.551 24c1.751 0 2.575-.685 3.295-2.763l3.155-9.073h-1.826l-2.115 7.01h-.038l-2.115-7.01h-1.878l3.043 8.639-.163.525c-.274.89-.72 1.233-1.514 1.233-.141 0-.416-.015-.527-.03v1.423c.104.03.549.046.683.046z" fill="#fff"/></g><defs><clipPath id="clip0"><path fill="#fff" transform="translate(125 9)" d="M0 0h39v15H0z"/></clipPath><clipPath id="clip1"><path fill="#fff" transform="translate(185 8)" d="M0 0h38v16H0z"/></clipPath></defs></svg>