<svg width="138" height="138" viewBox="0 0 138 138" fill="none" xmlns="http://www.w3.org/2000/svg"><path d="M128.668 76.05l-1.228-.076c-.089-.006-.131-.058-.125-.158l.326-5.27c.006-.1.054-.147.144-.141l9.387.58c.09.005.131.058.125.158l-.084 1.362c-.005.09-.053.132-.143.127l-8.025-.496-.233 3.773c-.006.1-.054.146-.144.14zM125.647 85.14l-.047.006c-.069-.014-.095-.06-.079-.138l.292-1.41c.016-.079.061-.126.136-.14l2.058-.25.674-3.26-1.791-1.045c-.063-.043-.085-.11-.067-.197l.289-1.396c.02-.098.077-.127.171-.087l8.566 5.094c.063.043.086.104.07.183l-.255 1.234c-.016.078-.062.125-.136.14l-9.881 1.267zm4.388-4.407l-.471 2.276 1.602-.19c.973-.115 1.756-.173 2.348-.173-.6-.257-1.295-.625-2.084-1.105l-1.395-.808zM127.298 87.676l6.516 2.529c.084.032.108.095.072.189l-.494 1.272c-.033.084-.091.11-.175.077l-6.516-2.529c-.429-.166-.76-.171-.992-.015-.236.166-.49.599-.761 1.298l-.033.084c-.268.69-.37 1.175-.308 1.457.059.29.303.52.731.686l6.517 2.529c.084.032.109.09.077.175l-.494 1.272c-.036.093-.096.124-.18.091l-6.517-2.529c-.876-.34-1.414-.833-1.614-1.48-.2-.645-.07-1.56.39-2.744l.032-.084c.453-1.165.972-1.924 1.559-2.275.584-.342 1.313-.343 2.19-.003zM125.474 107.107l-8.026-4.902c-.077-.047-.09-.113-.037-.198l.774-1.268c.031-.051.085-.082.162-.094l5.163.008a19.17 19.17 0 013.063.165 45.35 45.35 0 01-2.343-1.343l-3.725-2.275c-.077-.047-.092-.11-.045-.186l.711-1.165c.052-.085.117-.104.194-.058l8.026 4.903c.077.047.089.113.037.198l-.774 1.267a.188.188 0 01-.163.094l-5.163-.007c-.7-.005-1.241-.02-1.625-.044-.373-.004-.86-.05-1.463-.137.734.39 1.524.843 2.369 1.359l3.725 2.275c.077.047.092.109.045.186l-.712 1.165c-.052.085-.116.104-.193.057zM117.071 106.739l3.462 2.991c.711.615 1.052 1.26 1.023 1.935-.028.676-.458 1.494-1.288 2.455l-.059.068c-.837.969-1.585 1.512-2.242 1.631-.658.119-1.343-.129-2.054-.744l-.386-.333c-.068-.059-.072-.122-.014-.19l.893-1.033c.065-.076.132-.084.2-.025l.386.333c.348.301.661.413.939.336.272-.07.653-.388 1.143-.955l.059-.069c.484-.559.747-.986.789-1.28.036-.286-.12-.58-.468-.881l-3.461-2.991c-.348-.301-.662-.413-.939-.336-.285.085-.669.407-1.153.967l-.059.068c-.49.567-.75.99-.78 1.269-.035.286.121.58.469.881l.386.333c.068.059.069.126.004.202l-.893 1.033c-.059.068-.122.072-.19.013l-.386-.333c-.711-.615-1.056-1.256-1.034-1.924.023-.668.452-1.486 1.289-2.455l.059-.068c.83-.961 1.578-1.505 2.242-1.631.664-.126 1.352.118 2.063.733zM109.933 123.439l-5.993-7.248c-.057-.069-.051-.133.018-.19l1.064-.879c.069-.058.132-.052.19.018l2.533 3.063 2.913-2.408-2.533-3.064c-.058-.069-.051-.133.018-.19l1.052-.87c.077-.064.144-.061.201.009l5.993 7.248c.058.069.048.136-.029.2l-1.052.869c-.069.058-.133.052-.19-.018l-2.504-3.028-2.914 2.408 2.505 3.029c.057.069.051.133-.018.19l-1.064.879c-.069.058-.133.052-.19-.018zM97.32 120.387l4.39 8.318c.042.079.019.142-.069.189l-1.207.637c-.08.042-.141.023-.183-.056l-4.39-8.318c-.042-.08-.023-.14.057-.182l1.207-.638c.088-.046.154-.03.196.05zM89.55 134.022l-3.304-8.806c-.032-.084 0-.144.093-.179l1.39-.522c.056-.021.118-.012.186.027l4.063 3.185c.909.685 1.68 1.357 2.311 2.017a44.897 44.897 0 01-1.019-2.501l-1.533-4.087c-.032-.085-.005-.142.079-.174l1.278-.48c.094-.035.156-.01.188.074l3.304 8.806c.032.084 0 .144-.093.179l-1.39.521a.187.187 0 01-.187-.026l-4.063-3.186a32.44 32.44 0 01-1.253-1.035c-.29-.233-.647-.569-1.068-1.009.338.759.681 1.602 1.03 2.529l1.533 4.087c.031.084.005.142-.08.174l-1.277.479c-.094.036-.156.011-.188-.073zM79.125 130.477l.164 1.203c.013.1-.025.155-.114.167l-3.88.527c-.099.013-.155-.03-.168-.129l-.164-1.204c-.012-.089.032-.14.13-.154l3.88-.526c.09-.012.14.026.152.116zM60.926 128.632l.08-1.227c.006-.09.059-.131.159-.125l5.268.346c.1.007.147.055.141.145l-.616 9.384c-.006.09-.059.132-.159.125l-1.362-.089c-.09-.006-.132-.054-.126-.144l.527-8.022-3.772-.248c-.1-.007-.146-.055-.14-.145zM51.82 125.559l-.005-.047c.015-.068.061-.094.14-.078l1.409.297c.078.017.124.062.14.137l.24 2.059 3.259.686 1.05-1.787c.044-.062.11-.084.198-.066l1.395.294c.098.021.126.078.086.172l-5.126 8.547c-.044.062-.105.085-.183.068l-1.233-.259c-.078-.017-.125-.062-.14-.137l-1.23-9.886zm4.392 4.405l-2.275-.479.184 1.602c.112.974.166 1.757.164 2.349.26-.599.63-1.292 1.113-2.08l.814-1.392zM49.258 127.172l-2.553 6.507c-.033.084-.096.107-.19.071l-1.27-.499c-.084-.033-.11-.091-.076-.175l2.553-6.507c.168-.428.174-.759.019-.992-.165-.236-.597-.491-1.295-.765l-.084-.033c-.689-.271-1.174-.375-1.456-.314-.291.058-.52.301-.689.729l-2.553 6.507c-.033.084-.091.109-.175.076l-1.27-.499c-.094-.036-.124-.096-.091-.18l2.553-6.507c.344-.875.839-1.411 1.486-1.609.646-.197 1.56-.064 2.743.4l.084.033c1.163.457 1.92.979 2.27 1.568.34.584.337 1.314-.006 2.189zM29.936 125.309l4.932-8.008c.047-.077.113-.089.198-.036l1.265.778c.05.032.082.086.093.163l-.026 5.163c.016 1.138-.043 2.158-.177 3.062a45.5 45.5 0 011.352-2.338l2.289-3.717c.047-.076.109-.091.185-.044l1.163.716c.085.052.104.117.056.194l-4.931 8.008c-.047.076-.114.089-.199.036l-1.264-.779a.187.187 0 01-.093-.163l.026-5.163a32.55 32.55 0 01.05-1.625c.006-.372.053-.86.142-1.462a45.621 45.621 0 01-1.367 2.364l-2.29 3.716c-.046.077-.108.092-.185.045l-1.162-.716c-.085-.053-.104-.117-.057-.194zM30.336 116.9l-3.004 3.451c-.617.709-1.264 1.047-1.939 1.016-.675-.031-1.492-.464-2.45-1.297l-.068-.06c-.965-.84-1.506-1.589-1.623-2.248-.116-.658.134-1.341.752-2.05l.334-.385c.06-.068.123-.072.191-.013l1.03.896c.075.066.083.132.024.2l-.335.385c-.302.347-.415.66-.34.938.07.272.386.654.952 1.146l.068.059c.558.486.984.751 1.277.794.287.037.58-.118.883-.465l3.004-3.45c.302-.347.415-.66.339-.938-.084-.285-.404-.67-.963-1.156l-.067-.059c-.566-.493-.988-.754-1.267-.785-.286-.036-.58.119-.882.466l-.335.384c-.059.068-.126.069-.202.003l-1.029-.896c-.068-.059-.072-.122-.013-.19l.335-.385c.617-.709 1.26-1.051 1.928-1.026.668.024 1.484.457 2.45 1.297l.067.059c.958.834 1.5 1.584 1.623 2.249.124.664-.123 1.351-.74 2.06zM13.68 109.711l7.27-5.966c.07-.057.133-.051.19.019l.875 1.066c.058.07.051.133-.018.19l-3.073 2.522 2.398 2.922 3.073-2.522c.07-.057.133-.051.19.019l.866 1.055c.063.078.06.145-.01.202l-7.27 5.966c-.07.057-.136.047-.2-.03l-.865-1.055c-.057-.07-.05-.133.019-.19l3.038-2.493-2.398-2.922-3.038 2.493c-.07.057-.133.051-.19-.019l-.876-1.067c-.057-.069-.05-.132.019-.19zM16.798 97.138l-8.334 4.359c-.08.041-.142.018-.189-.071l-.632-1.209c-.042-.08-.023-.141.057-.183l8.333-4.359c.08-.041.141-.022.183.058l.632 1.209c.047.089.03.154-.05.196zM3.21 89.366l8.817-3.271c.085-.031.144 0 .179.094l.516 1.392c.021.056.012.118-.027.186l-3.2 4.05c-.688.907-1.364 1.675-2.026 2.304.76-.335 1.596-.672 2.505-1.01l4.093-1.517c.084-.032.142-.005.174.08l.474 1.28c.035.093.01.155-.074.187l-8.818 3.27c-.084.032-.144 0-.179-.093l-.516-1.392a.188.188 0 01.027-.186l3.2-4.051c.438-.547.785-.963 1.04-1.25.235-.29.573-.644 1.014-1.064-.76.335-1.605.675-2.533 1.02l-4.093 1.518c-.084.031-.142.005-.173-.08l-.475-1.28c-.035-.093-.01-.156.074-.187zM6.78 78.968l-1.204.158c-.1.013-.155-.025-.167-.114l-.511-3.881c-.013-.1.03-.156.13-.169l1.204-.158c.089-.012.14.032.153.13l.512 3.882c.011.09-.027.14-.117.152zM8.677 60.778l1.227.085c.09.007.131.06.124.16l-.366 5.267c-.007.1-.055.146-.145.14l-9.382-.653c-.09-.006-.132-.059-.125-.159l.095-1.361c.006-.09.054-.132.144-.126l8.02.558.263-3.77c.007-.1.055-.147.145-.14zM11.755 51.765l.047-.005c.069.015.095.061.078.14l-.302 1.407c-.017.078-.063.125-.137.14l-2.06.233-.699 3.255 1.783 1.058c.062.044.084.11.065.198l-.3 1.393c-.02.098-.077.127-.17.086l-8.528-5.159c-.062-.044-.085-.105-.068-.183l.264-1.232c.017-.078.063-.125.137-.14l9.89-1.19zm-4.42 4.375l.487-2.273-1.603.177c-.974.108-1.758.16-2.35.156.599.261 1.29.635 2.076 1.12l1.39.82zM10.176 49.03l-6.488-2.602c-.084-.034-.107-.097-.07-.19l.509-1.267c.033-.083.092-.108.175-.075l6.488 2.602c.427.172.757.18.992.026.237-.163.496-.593.775-1.289l.034-.083c.275-.687.383-1.172.324-1.454-.055-.291-.297-.523-.723-.694l-6.488-2.602c-.084-.034-.109-.092-.075-.176l.508-1.267c.037-.093.098-.122.181-.089l6.488 2.602c.872.35 1.405.85 1.597 1.498.193.648.053 1.562-.42 2.74l-.034.084c-.465 1.16-.993 1.913-1.584 2.257-.587.336-1.317.329-2.19-.021zM12.068 29.809l7.99 4.96c.077.048.088.114.036.2l-.784 1.261c-.031.051-.086.082-.163.093l-5.163-.045c-1.137.011-2.158-.051-3.061-.189.731.396 1.509.85 2.333 1.36l3.708 2.303c.077.048.091.11.044.186l-.72 1.16c-.053.085-.117.104-.194.056l-7.99-4.96c-.077-.048-.088-.115-.036-.2l.784-1.261a.188.188 0 01.163-.093l5.163.045c.7.011 1.241.03 1.625.056.372.007.86.057 1.462.148a45.604 45.604 0 01-2.359-1.376l-3.708-2.302c-.077-.048-.091-.11-.044-.186l.72-1.16c.053-.085.117-.104.194-.056zM20.354 30.355l-3.44-3.017c-.707-.62-1.043-1.267-1.01-1.943.034-.675.47-1.49 1.307-2.445l.06-.068c.843-.962 1.595-1.5 2.253-1.614.66-.114 1.342.139 2.049.758l.383.337c.068.059.072.122.012.19l-.9 1.026c-.066.076-.132.084-.2.024l-.383-.336c-.346-.303-.659-.418-.937-.343-.272.068-.655.383-1.15.947l-.06.068c-.487.556-.753.981-.798 1.275-.038.286.116.58.462.884l3.44 3.016c.345.303.658.418.936.343.285-.083.672-.402 1.16-.959l.06-.067c.494-.564.757-.985.788-1.264.038-.286-.116-.58-.462-.884l-.383-.336c-.068-.06-.069-.126-.003-.202l.9-1.026c.06-.068.123-.072.19-.012l.384.336c.707.62 1.046 1.264 1.02 1.931-.028.668-.463 1.483-1.307 2.446l-.06.067c-.837.955-1.588 1.494-2.253 1.615-.666.122-1.352-.128-2.058-.747zM27.676 13.609l5.94 7.292c.057.07.05.133-.02.19l-1.07.871c-.069.057-.132.05-.19-.02l-2.51-3.081-2.93 2.387 2.51 3.082c.057.07.05.133-.02.19l-1.058.862c-.077.063-.144.06-.201-.01l-5.94-7.292c-.057-.07-.047-.136.031-.199l1.058-.862c.07-.057.133-.05.19.02l2.482 3.046 2.931-2.387-2.482-3.047c-.057-.07-.05-.133.02-.19l1.07-.872c.069-.056.132-.05.19.02zM40.17 16.78l-4.328-8.35c-.042-.08-.018-.144.07-.19l1.212-.628c.08-.041.141-.022.182.058l4.329 8.35c.041.08.022.14-.058.182l-1.212.628c-.089.046-.154.03-.195-.05zM47.918 3.22l3.238 8.83c.031.085 0 .145-.094.179l-1.395.511c-.056.02-.118.012-.185-.027l-4.04-3.217c-.903-.69-1.668-1.369-2.295-2.034.333.762.666 1.599 1 2.51l1.503 4.098c.03.084.004.142-.08.173l-1.282.47c-.094.034-.156.01-.188-.075l-3.237-8.83c-.031-.085 0-.144.094-.179l1.394-.511a.188.188 0 01.186.028l4.04 3.216c.544.44.96.788 1.245 1.045.289.235.642.574 1.06 1.017a45.612 45.612 0 01-1.01-2.537l-1.503-4.098c-.03-.085-.004-.143.08-.174l1.282-.47c.094-.034.156-.009.187.075zM58.376 6.762l-.154-1.205c-.013-.099.025-.154.115-.166l3.883-.496c.1-.013.155.03.168.13l.154 1.205c.011.089-.033.14-.132.153l-3.883.496c-.09.012-.14-.027-.151-.117zM76.61 8.696l-.09 1.227c-.007.09-.06.131-.16.124l-5.266-.387c-.1-.007-.146-.056-.14-.146l.69-9.38c.006-.09.059-.13.159-.123l1.361.1c.09.007.131.055.125.144L72.7 8.274l3.77.277c.1.007.146.056.14.145zM85.576 11.783l.005.047c-.015.068-.062.094-.14.077l-1.407-.308c-.078-.017-.124-.063-.139-.138l-.225-2.06-3.253-.711-1.064 1.778c-.044.062-.11.084-.198.065l-1.393-.305c-.097-.021-.126-.079-.085-.172l5.192-8.508c.044-.062.105-.084.183-.067l1.231.27c.078.016.125.062.139.137l1.154 9.895zm-4.358-4.438l2.271.496-.171-1.604c-.105-.974-.153-1.758-.147-2.35-.263.597-.64 1.288-1.128 2.072l-.825 1.386zM88.421 10.226l2.627-6.478c.034-.083.097-.106.19-.068l1.264.512c.084.034.109.093.075.176l-2.626 6.478c-.173.426-.183.757-.03.992.162.238.59.498 1.286.78l.083.034c.686.278 1.17.388 1.453.33.291-.055.524-.295.697-.721l2.626-6.478c.034-.084.093-.108.176-.074l1.265.512c.093.038.122.098.088.182L94.97 12.88c-.353.87-.855 1.401-1.503 1.591-.65.19-1.563.047-2.74-.43l-.083-.034c-1.158-.47-1.909-1-2.251-1.593-.334-.588-.324-1.318.03-2.189zM107.627 12.174l-4.99 7.972c-.048.076-.114.087-.199.034l-1.258-.788c-.051-.031-.082-.086-.093-.163l.065-5.163c-.008-1.138.058-2.158.199-3.06-.398.73-.854 1.505-1.37 2.328l-2.315 3.7c-.048.076-.11.09-.186.042l-1.157-.724c-.085-.053-.103-.118-.056-.194l4.991-7.972c.047-.076.114-.088.198-.035l1.259.788c.059.037.09.092.092.164l-.064 5.163a31.92 31.92 0 01-.062 1.625c-.008.372-.06.859-.153 1.46.398-.73.859-1.514 1.385-2.353l2.316-3.7c.048-.076.11-.09.186-.043l1.157.725c.085.053.103.117.055.194zM107.373 20.714l3.042-3.418c.625-.702 1.275-1.034 1.95-.995.675.039 1.487.48 2.436 1.325l.067.06c.956.85 1.489 1.605 1.598 2.265.109.66-.149 1.34-.774 2.042l-.339.381c-.059.068-.123.071-.19.012l-1.02-.908c-.075-.067-.082-.133-.022-.2l.339-.382c.306-.343.422-.655.349-.934-.065-.272-.378-.658-.938-1.156l-.067-.06c-.553-.492-.976-.761-1.269-.808-.286-.04-.582.112-.888.455l-3.041 3.418c-.306.344-.422.655-.349.934.08.286.396.675.949 1.166l.068.06c.56.499.979.765 1.257.798.286.04.582-.111.887-.455l.339-.381c.06-.067.128-.068.202-.001l1.02.907c.067.06.071.124.011.191l-.339.38c-.625.703-1.271 1.038-1.939 1.006-.668-.032-1.48-.473-2.436-1.324l-.067-.06c-.949-.844-1.481-1.6-1.598-2.266-.117-.666.137-1.35.762-2.052zM123.819 27.867l-7.313 5.914c-.07.056-.133.05-.19-.02l-.868-1.074c-.056-.07-.049-.133.021-.19l3.091-2.499-2.377-2.94-3.091 2.5c-.07.057-.133.05-.19-.02l-.858-1.061c-.063-.078-.06-.145.01-.202l7.314-5.913c.07-.057.136-.046.199.031l.858 1.062c.057.07.05.133-.02.19l-3.056 2.47 2.377 2.94 3.056-2.471c.07-.057.133-.05.19.02l.867 1.073c.057.07.05.133-.02.19zM120.633 40.402l8.366-4.297c.08-.041.143-.017.189.072l.623 1.214c.041.08.022.14-.058.182l-8.366 4.297c-.08.041-.141.022-.182-.058l-.623-1.215c-.046-.089-.029-.154.051-.195zM134.283 48.589l-8.854 3.171c-.085.03-.144-.001-.178-.096l-.5-1.398c-.021-.056-.011-.118.029-.185l3.246-4.015c.698-.898 1.382-1.658 2.051-2.28-.764.327-1.603.654-2.516.98l-4.11 1.473c-.084.03-.142.003-.172-.082l-.461-1.285c-.033-.094-.008-.156.077-.187l8.854-3.171c.085-.03.144.001.178.096l.501 1.398a.192.192 0 01-.029.185l-3.247 4.015c-.443.541-.795.954-1.054 1.238-.237.287-.579.638-1.025 1.052a45.215 45.215 0 012.545-.99l4.109-1.473c.085-.03.142-.003.172.082l.461 1.285c.033.094.008.156-.077.187zM130.579 58.75l1.206-.149c.099-.012.154.027.165.116l.482 3.885c.012.1-.031.155-.131.168l-1.205.149c-.09.011-.141-.033-.153-.132l-.481-3.886c-.011-.089.028-.14.117-.15z" fill="#fff"/></svg>