<svg width="138" height="138" viewBox="0 0 138 138" fill="none" xmlns="http://www.w3.org/2000/svg">
<path d="M128.668 76.0499L127.44 75.974C127.351 75.9684 127.309 75.9158 127.315 75.8159L127.641 70.546C127.647 70.4462 127.695 70.3991 127.785 70.4046L137.172 70.9848C137.262 70.9904 137.303 71.0431 137.297 71.1429L137.213 72.5053C137.208 72.5951 137.16 72.6372 137.07 72.6317L129.045 72.1357L128.812 75.9085C128.806 76.0083 128.758 76.0554 128.668 76.0499Z" fill="white"/>
<path d="M125.647 85.1409L125.6 85.1464C125.531 85.1323 125.505 85.086 125.521 85.0077L125.813 83.5975C125.829 83.5191 125.874 83.4723 125.949 83.4571L128.007 83.2084L128.681 79.9473L126.89 78.9033C126.827 78.8598 126.805 78.7939 126.823 78.7058L127.112 77.3103C127.132 77.2123 127.189 77.1833 127.283 77.2231L135.849 82.3169C135.912 82.3604 135.935 82.4213 135.919 82.4997L135.664 83.7336C135.648 83.812 135.602 83.8588 135.528 83.874L125.647 85.1409ZM130.035 80.7325L129.564 83.0094L131.166 82.8196C132.139 82.7041 132.922 82.6464 133.514 82.6462C132.914 82.3894 132.219 82.0212 131.43 81.5415L130.035 80.7325Z" fill="white"/>
<path d="M127.298 87.6757L133.814 90.2049C133.898 90.2374 133.922 90.3003 133.886 90.3935L133.392 91.6661C133.359 91.75 133.301 91.7756 133.217 91.7431L126.701 89.214C126.272 89.0475 125.941 89.0426 125.709 89.1991C125.473 89.3649 125.219 89.7975 124.948 90.4966L124.915 90.5806C124.647 91.2704 124.545 91.7562 124.607 92.0378C124.666 92.3287 124.91 92.5574 125.338 92.7239L131.855 95.253C131.939 95.2855 131.964 95.3438 131.932 95.4277L131.438 96.7002C131.402 96.7934 131.342 96.8238 131.258 96.7912L124.741 94.2621C123.865 93.922 123.327 93.4289 123.127 92.7828C122.927 92.1368 123.057 91.2218 123.517 90.0378L123.549 89.9539C124.002 88.7886 124.521 88.0302 125.108 87.6788C125.692 87.3367 126.421 87.3356 127.298 87.6757Z" fill="white"/>
<path d="M125.474 107.107L117.448 102.205C117.371 102.158 117.358 102.092 117.411 102.007L118.185 100.739C118.216 100.688 118.27 100.657 118.347 100.645L123.51 100.653C124.648 100.632 125.669 100.688 126.573 100.818C125.839 100.428 125.058 99.9805 124.23 99.4749L120.505 97.1997C120.428 97.1528 120.413 97.0909 120.46 97.0141L121.171 95.8492C121.223 95.7638 121.288 95.7446 121.365 95.7915L129.391 100.694C129.468 100.741 129.48 100.807 129.428 100.892L128.654 102.159C128.618 102.219 128.563 102.25 128.491 102.253L123.328 102.246C122.628 102.241 122.087 102.226 121.703 102.202C121.33 102.198 120.843 102.152 120.24 102.065C120.974 102.455 121.764 102.908 122.609 103.424L126.334 105.699C126.411 105.746 126.426 105.808 126.379 105.885L125.667 107.05C125.615 107.135 125.551 107.154 125.474 107.107Z" fill="white"/>
<path d="M117.071 106.739L120.533 109.73C121.244 110.345 121.585 110.99 121.556 111.665C121.528 112.341 121.098 113.159 120.268 114.12L120.209 114.188C119.372 115.157 118.624 115.7 117.967 115.819C117.309 115.938 116.624 115.69 115.913 115.075L115.527 114.742C115.459 114.683 115.455 114.62 115.513 114.552L116.406 113.519C116.471 113.443 116.538 113.435 116.606 113.494L116.992 113.827C117.34 114.128 117.653 114.24 117.931 114.163C118.203 114.093 118.584 113.775 119.074 113.208L119.133 113.139C119.617 112.58 119.88 112.153 119.922 111.859C119.958 111.573 119.802 111.279 119.454 110.978L115.993 107.987C115.645 107.686 115.331 107.574 115.054 107.651C114.769 107.736 114.385 108.058 113.901 108.618L113.842 108.686C113.352 109.253 113.092 109.676 113.062 109.955C113.027 110.241 113.183 110.535 113.531 110.836L113.917 111.169C113.985 111.228 113.986 111.295 113.921 111.371L113.028 112.404C112.969 112.472 112.906 112.476 112.838 112.417L112.452 112.084C111.741 111.469 111.396 110.828 111.418 110.16C111.441 109.492 111.87 108.674 112.707 107.705L112.766 107.637C113.596 106.676 114.344 106.132 115.008 106.006C115.672 105.88 116.36 106.124 117.071 106.739Z" fill="white"/>
<path d="M109.933 123.439L103.94 116.191C103.883 116.122 103.889 116.058 103.958 116.001L105.022 115.122C105.091 115.064 105.154 115.07 105.212 115.14L107.745 118.203L110.658 115.795L108.125 112.731C108.067 112.662 108.074 112.598 108.143 112.541L109.195 111.671C109.272 111.607 109.339 111.61 109.396 111.68L115.389 118.928C115.447 118.997 115.437 119.064 115.36 119.128L114.308 119.997C114.239 120.055 114.175 120.049 114.118 119.979L111.614 116.951L108.7 119.359L111.205 122.388C111.262 122.457 111.256 122.521 111.187 122.578L110.123 123.457C110.054 123.515 109.99 123.509 109.933 123.439Z" fill="white"/>
<path d="M97.3206 120.387L101.71 128.705C101.752 128.784 101.729 128.847 101.641 128.894L100.434 129.531C100.354 129.573 100.293 129.554 100.251 129.475L95.8614 121.157C95.8194 121.077 95.8381 121.017 95.9177 120.975L97.1249 120.337C97.2134 120.291 97.2786 120.307 97.3206 120.387Z" fill="white"/>
<path d="M89.5499 134.022L86.2458 125.216C86.2142 125.132 86.2452 125.072 86.3389 125.037L87.7292 124.515C87.7854 124.494 87.8474 124.503 87.9153 124.542L91.9784 127.727C92.8868 128.412 93.6571 129.084 94.2892 129.744C93.9508 128.985 93.6112 128.151 93.2705 127.243L91.737 123.156C91.7054 123.071 91.7317 123.014 91.816 122.982L93.094 122.502C93.1876 122.467 93.2502 122.492 93.2818 122.576L96.5859 131.382C96.6175 131.466 96.5865 131.526 96.4929 131.561L95.1025 132.082C95.037 132.107 94.975 132.098 94.9164 132.056L90.8533 128.87C90.3055 128.435 89.8876 128.09 89.5996 127.835C89.3093 127.602 88.9534 127.266 88.532 126.826C88.8704 127.585 89.2135 128.428 89.5613 129.355L91.0947 133.442C91.1263 133.526 91.1 133.584 91.0157 133.616L89.7377 134.095C89.6441 134.131 89.5815 134.106 89.5499 134.022Z" fill="white"/>
<path d="M79.1253 130.477L79.2886 131.68C79.302 131.78 79.2642 131.835 79.175 131.847L75.2955 132.374C75.1964 132.387 75.1402 132.344 75.1267 132.245L74.9634 131.041C74.9513 130.952 74.9948 130.901 75.0939 130.887L78.9733 130.361C79.0625 130.349 79.1132 130.387 79.1253 130.477Z" fill="white"/>
<path d="M60.9256 128.632L61.0062 127.405C61.0121 127.315 61.0649 127.274 61.1647 127.28L66.4333 127.626C66.5331 127.633 66.5801 127.681 66.5742 127.771L65.9578 137.155C65.9519 137.245 65.899 137.287 65.7993 137.28L64.4372 137.191C64.3474 137.185 64.3054 137.137 64.3113 137.047L64.8383 129.025L61.0664 128.777C60.9666 128.77 60.9197 128.722 60.9256 128.632Z" fill="white"/>
<path d="M51.8208 125.559L51.8154 125.512C51.8298 125.444 51.8762 125.418 51.9544 125.434L53.3635 125.731C53.4418 125.748 53.4884 125.793 53.5034 125.868L53.7442 127.927L57.0028 128.613L58.0535 126.826C58.0973 126.764 58.1633 126.742 58.2513 126.76L59.6457 127.054C59.7436 127.075 59.7724 127.132 59.7322 127.226L54.6058 135.773C54.562 135.835 54.501 135.858 54.4227 135.841L53.1898 135.582C53.1115 135.565 53.0649 135.52 53.05 135.445L51.8208 125.559ZM56.2124 129.964L53.9373 129.485L54.121 131.087C54.2327 132.061 54.2875 132.844 54.2854 133.436C54.5445 132.837 54.9154 132.144 55.398 131.356L56.2124 129.964Z" fill="white"/>
<path d="M49.258 127.172L46.7045 133.679C46.6717 133.763 46.6087 133.786 46.5156 133.75L45.2449 133.251C45.1611 133.218 45.1357 133.16 45.1686 133.076L47.7221 126.569C47.8901 126.141 47.8963 125.81 47.7407 125.577C47.5757 125.341 47.1441 125.086 46.446 124.812L46.3622 124.779C45.6733 124.508 45.188 124.404 44.9061 124.465C44.6149 124.523 44.3853 124.766 44.2173 125.194L41.6638 131.701C41.6309 131.785 41.5726 131.81 41.4888 131.777L40.2181 131.278C40.125 131.242 40.0949 131.182 40.1278 131.098L42.6813 124.591C43.0247 123.716 43.5198 123.18 44.1666 122.982C44.8134 122.785 45.7279 122.918 46.9101 123.382L46.9939 123.415C48.1575 123.872 48.914 124.394 49.2632 124.983C49.6032 125.567 49.6014 126.297 49.258 127.172Z" fill="white"/>
<path d="M29.9359 125.309L34.8676 117.301C34.9148 117.224 34.9809 117.212 35.0661 117.265L36.3306 118.043C36.3817 118.075 36.4128 118.129 36.4239 118.206L36.3977 123.369C36.4137 124.507 36.3547 125.527 36.2208 126.431C36.6134 125.699 37.0641 124.919 37.5727 124.093L39.8616 120.376C39.9088 120.3 39.9707 120.285 40.0473 120.332L41.2096 121.048C41.2948 121.1 41.3137 121.165 41.2665 121.242L36.3349 129.25C36.2877 129.326 36.2215 129.339 36.1364 129.286L34.8719 128.507C34.8123 128.471 34.7812 128.416 34.7786 128.344L34.8048 123.181C34.8129 122.482 34.8294 121.94 34.8544 121.556C34.8605 121.184 34.9081 120.696 34.9974 120.094C34.6047 120.827 34.1489 121.615 33.6297 122.458L31.3409 126.174C31.2937 126.251 31.2318 126.266 31.1551 126.219L29.9928 125.503C29.9077 125.45 29.8887 125.386 29.9359 125.309Z" fill="white"/>
<path d="M30.3362 116.9L27.3321 120.351C26.7149 121.06 26.0685 121.398 25.393 121.367C24.7175 121.336 23.9008 120.903 22.943 120.07L22.8751 120.01C21.9097 119.17 21.3688 118.421 21.2524 117.762C21.136 117.104 21.3864 116.421 22.0036 115.712L22.3385 115.327C22.3976 115.259 22.4611 115.255 22.529 115.314L23.5585 116.21C23.6339 116.276 23.6421 116.342 23.583 116.41L23.2481 116.795C22.946 117.142 22.833 117.455 22.9089 117.733C22.9773 118.005 23.2944 118.387 23.86 118.879L23.9279 118.938C24.486 119.424 24.9119 119.689 25.2055 119.732C25.4916 119.769 25.7856 119.614 26.0877 119.267L29.0918 115.817C29.3938 115.47 29.5069 115.157 29.4309 114.879C29.3474 114.594 29.0266 114.209 28.4685 113.723L28.4006 113.664C27.835 113.171 27.4129 112.91 27.1343 112.879C26.8483 112.843 26.5542 112.998 26.2522 113.345L25.9173 113.729C25.8582 113.797 25.7909 113.798 25.7155 113.732L24.686 112.836C24.6181 112.777 24.6137 112.714 24.6728 112.646L25.0077 112.261C25.6249 111.552 26.2675 111.21 26.9355 111.235C27.6035 111.259 28.4202 111.692 29.3856 112.532L29.4535 112.591C30.4113 113.425 30.9522 114.175 31.0761 114.84C31.2001 115.504 30.9535 116.191 30.3362 116.9Z" fill="white"/>
<path d="M13.6799 109.711L20.95 103.745C21.0196 103.688 21.0829 103.694 21.14 103.764L22.0155 104.83C22.0726 104.9 22.0663 104.963 21.9968 105.02L18.9241 107.542L21.3221 110.464L24.3948 107.942C24.4644 107.885 24.5277 107.891 24.5848 107.961L25.4507 109.016C25.5142 109.094 25.5111 109.161 25.4416 109.218L18.1714 115.184C18.1019 115.241 18.0354 115.231 17.9719 115.154L17.106 114.099C17.0489 114.029 17.0551 113.966 17.1247 113.909L20.1626 111.416L17.7646 108.494L14.7266 110.987C14.6571 111.044 14.5937 111.038 14.5366 110.968L13.6612 109.901C13.6041 109.832 13.6103 109.769 13.6799 109.711Z" fill="white"/>
<path d="M16.7983 97.1375L8.46442 101.497C8.38467 101.538 8.32162 101.515 8.27528 101.426L7.64262 100.217C7.60091 100.137 7.61993 100.076 7.69968 100.034L16.0335 95.6754C16.1133 95.6337 16.174 95.6528 16.2157 95.7325L16.8484 96.942C16.8947 97.0306 16.878 97.0958 16.7983 97.1375Z" fill="white"/>
<path d="M3.20932 89.3658L12.0272 86.0948C12.1116 86.0635 12.1711 86.0947 12.2059 86.1885L12.7224 87.5808C12.7433 87.637 12.7343 87.699 12.6954 87.7668L9.49452 91.8179C8.8066 92.7237 8.13147 93.4915 7.46911 94.1211C8.22991 93.7856 9.06503 93.4491 9.97447 93.1118L14.067 91.5937C14.1514 91.5624 14.2092 91.5889 14.2405 91.6733L14.7152 92.9531C14.75 93.0468 14.7252 93.1094 14.6408 93.1407L5.82296 96.4116C5.73858 96.4429 5.679 96.4117 5.64422 96.3179L5.12775 94.9256C5.10341 94.86 5.1124 94.798 5.15475 94.7396L8.35563 90.6885C8.79296 90.1423 9.13972 89.7257 9.39589 89.4387C9.62984 89.1493 9.96759 88.7947 10.4092 88.3749C9.64837 88.7104 8.80387 89.0503 7.87568 89.3947L3.78317 90.9128C3.69879 90.9441 3.64095 90.9175 3.60965 90.8331L3.13491 89.5534C3.10013 89.4596 3.12494 89.3971 3.20932 89.3658Z" fill="white"/>
<path d="M6.78034 78.9677L5.57575 79.1264C5.47661 79.1394 5.42116 79.1014 5.40941 79.0121L4.89801 75.1307C4.88495 75.0315 4.92799 74.9754 5.02713 74.9624L6.23172 74.8037C6.32095 74.7919 6.3721 74.8356 6.38516 74.9347L6.89655 78.8162C6.90831 78.9054 6.86957 78.9559 6.78034 78.9677Z" fill="white"/>
<path d="M8.67714 60.7781L9.90417 60.8634C9.99396 60.8697 10.0354 60.9227 10.0284 61.0224L9.66209 66.2897C9.65515 66.3895 9.60679 66.4362 9.51701 66.43L0.134675 65.7774C0.0448917 65.7712 0.00346923 65.7182 0.0104077 65.6184L0.105118 64.2567C0.111362 64.1669 0.159376 64.1251 0.249159 64.1314L8.26978 64.6892L8.53206 60.9183C8.539 60.8186 8.58736 60.7718 8.67714 60.7781Z" fill="white"/>
<path d="M11.7554 51.7652L11.8025 51.76C11.871 51.7747 11.8968 51.8211 11.88 51.8993L11.5779 53.3073C11.5611 53.3855 11.5153 53.4319 11.4406 53.4466L9.38086 53.6796L8.68219 56.9355L10.465 57.9931C10.5271 58.0371 10.5488 58.1031 10.5299 58.1911L10.2309 59.5844C10.2099 59.6822 10.1526 59.7108 10.0591 59.6703L1.53166 54.5113C1.46951 54.4673 1.44683 54.4061 1.46362 54.3279L1.72798 53.096C1.74477 53.0177 1.79053 52.9713 1.86526 52.9567L11.7554 51.7652ZM7.3341 56.1399L7.82191 53.8667L6.21896 54.0443C5.24462 54.1523 4.46132 54.2041 3.86905 54.1998C4.46753 54.4611 5.15956 54.8347 5.94516 55.3203L7.3341 56.1399Z" fill="white"/>
<path d="M10.1756 49.0297L3.68803 46.4276C3.6045 46.3941 3.58135 46.3309 3.61858 46.2381L4.12672 44.9712C4.16023 44.8877 4.21875 44.8626 4.30228 44.8962L10.7899 47.4983C11.2168 47.6696 11.5473 47.6782 11.7815 47.5243C12.0193 47.3611 12.2778 46.9315 12.557 46.2354L12.5905 46.1519C12.866 45.4651 12.9742 44.9805 12.915 44.6982C12.8596 44.4066 12.6184 44.1752 12.1915 44.0039L5.70387 41.4018C5.62034 41.3683 5.59532 41.3097 5.62883 41.2262L6.13698 39.9593C6.1742 39.8665 6.23458 39.8369 6.31811 39.8704L12.8057 42.4725C13.6781 42.8224 14.2106 43.3215 14.4031 43.9698C14.5956 44.6181 14.4555 45.5316 13.9827 46.7103L13.9492 46.7938C13.4839 47.954 12.9558 48.7065 12.365 49.0513C11.7778 49.3868 11.0481 49.3797 10.1756 49.0297Z" fill="white"/>
<path d="M12.068 29.8087L20.0581 34.7698C20.1346 34.8172 20.1464 34.8834 20.0937 34.9684L19.3104 36.23C19.2787 36.281 19.2242 36.3119 19.1469 36.3227L13.984 36.2775C12.8466 36.2894 11.8262 36.2267 10.9227 36.0894C11.6542 36.4847 12.432 36.9383 13.256 37.4499L16.9644 39.7524C17.0408 39.7999 17.0553 39.8619 17.0079 39.9383L16.2878 41.098C16.2351 41.1829 16.1705 41.2017 16.094 41.1542L8.1039 36.1931C8.02744 36.1457 8.01559 36.0794 8.06834 35.9945L8.85166 34.7329C8.88859 34.6734 8.94309 34.6425 9.01516 34.6402L14.178 34.6854C14.8777 34.696 15.4194 34.7146 15.8032 34.741C16.1753 34.7484 16.6625 34.7978 17.2648 34.8893C16.5333 34.494 15.747 34.0352 14.906 33.513L11.1976 31.2105C11.1212 31.163 11.1067 31.101 11.1542 31.0246L11.8742 29.8649C11.9269 29.78 11.9915 29.7612 12.068 29.8087Z" fill="white"/>
<path d="M20.3536 30.3546L16.914 27.338C16.2073 26.7182 15.8708 26.0706 15.9045 25.3952C15.9382 24.7198 16.3738 23.9047 17.2112 22.9498L17.2705 22.8822C18.1145 21.9199 18.8658 21.3817 19.5244 21.2677C20.1831 21.1537 20.8658 21.4066 21.5725 22.0264L21.9559 22.3627C22.0236 22.422 22.0277 22.4855 21.9684 22.5532L21.0683 23.5794C21.0024 23.6546 20.9356 23.6625 20.8679 23.6032L20.4845 23.2669C20.1387 22.9636 19.8265 22.8494 19.5479 22.9243C19.276 22.9917 18.8928 23.3074 18.3982 23.8712L18.3389 23.9389C17.851 24.4953 17.5847 24.9202 17.5402 25.2136C17.5022 25.4995 17.6561 25.7942 18.002 26.0975L21.4416 29.1141C21.7874 29.4174 22.0996 29.5316 22.3781 29.4566C22.6632 29.3742 23.0498 29.0548 23.5377 28.4984L23.5971 28.4308C24.0916 27.8669 24.3545 27.4458 24.3859 27.1674C24.4239 26.8814 24.2699 26.5868 23.9241 26.2835L23.5406 25.9472C23.473 25.8879 23.4721 25.8206 23.5381 25.7454L24.4381 24.7192C24.4974 24.6515 24.5609 24.6474 24.6286 24.7067L25.012 25.043C25.7187 25.6628 26.0585 26.3066 26.0314 26.9745C26.0043 27.6424 25.5688 28.4575 24.7248 29.4198L24.6654 29.4875C23.828 30.4423 23.0767 30.9805 22.4115 31.102C21.7463 31.2235 21.0603 30.9744 20.3536 30.3546Z" fill="white"/>
<path d="M27.6761 13.6088L33.6162 20.9006C33.673 20.9704 33.6665 21.0337 33.5968 21.0906L32.5268 21.9621C32.4571 22.019 32.3937 22.0125 32.3369 21.9427L29.8264 18.8609L26.8957 21.2483L29.4062 24.3301C29.4631 24.3999 29.4566 24.4632 29.3868 24.52L28.3285 25.3822C28.251 25.4453 28.1838 25.442 28.127 25.3722L22.187 18.0804C22.1301 18.0107 22.1405 17.9442 22.218 17.881L23.2763 17.0189C23.3461 16.9621 23.4094 16.9685 23.4662 17.0383L25.9483 20.0853L28.879 17.6979L26.3969 14.6509C26.34 14.5812 26.3465 14.5179 26.4163 14.461L27.4862 13.5894C27.556 13.5326 27.6193 13.5391 27.6761 13.6088Z" fill="white"/>
<path d="M40.1698 16.7792L35.8416 8.42928C35.8002 8.34937 35.8239 8.28641 35.9126 8.24039L37.1245 7.61222C37.2044 7.5708 37.2651 7.59005 37.3065 7.66995L41.6347 16.0199C41.6761 16.0998 41.6568 16.1604 41.5769 16.2018L40.3651 16.83C40.2763 16.876 40.2112 16.8591 40.1698 16.7792Z" fill="white"/>
<path d="M47.9183 3.2205L51.1561 12.0506C51.1871 12.1351 51.1556 12.1946 51.0618 12.229L49.6675 12.7402C49.6112 12.7609 49.5492 12.7516 49.4816 12.7125L45.4425 9.49645C44.5393 8.80514 43.7741 8.12712 43.147 7.46241C43.4797 8.22446 43.813 9.06084 44.1469 9.97154L45.6496 14.0697C45.6806 14.1542 45.6539 14.212 45.5694 14.2429L44.2878 14.7129C44.1939 14.7473 44.1315 14.7223 44.1005 14.6378L40.8627 5.80767C40.8317 5.72317 40.8631 5.66371 40.957 5.62928L42.3512 5.11804C42.417 5.09394 42.4789 5.10318 42.5371 5.14574L46.5762 8.36181C47.1208 8.80119 47.5361 9.14951 47.8221 9.40676C48.1107 9.64179 48.464 9.98087 48.8821 10.424C48.5494 9.66197 48.2127 8.8162 47.8719 7.88672L46.3691 3.78854C46.3382 3.70404 46.3649 3.6463 46.4494 3.61532L47.731 3.14539C47.8249 3.11097 47.8873 3.136 47.9183 3.2205Z" fill="white"/>
<path d="M58.3758 6.76238L58.2217 5.55719C58.2091 5.458 58.2473 5.4027 58.3366 5.39129L62.22 4.8948C62.3192 4.88212 62.3751 4.92537 62.3878 5.02457L62.5419 6.22976C62.5533 6.31903 62.5094 6.37001 62.4102 6.38269L58.5268 6.87917C58.4376 6.89059 58.3872 6.85166 58.3758 6.76238Z" fill="white"/>
<path d="M76.6095 8.6963L76.5195 9.923C76.5129 10.0128 76.4597 10.054 76.36 10.0467L71.0942 9.66001C70.9944 9.65269 70.9479 9.60415 70.9545 9.51439L71.6432 0.134638C71.6498 0.0448794 71.7029 0.0036614 71.8026 0.0109842L73.164 0.11094C73.2537 0.117531 73.2953 0.165706 73.2887 0.255464L72.7 8.27388L76.4698 8.55068C76.5696 8.558 76.6161 8.60654 76.6095 8.6963Z" fill="white"/>
<path d="M85.5757 11.7825L85.5807 11.8297C85.5658 11.8981 85.5192 11.9237 85.4411 11.9066L84.0343 11.5991C83.9561 11.5821 83.9099 11.5361 83.8955 11.4613L83.6703 9.40071L80.4172 8.68963L79.3528 10.4684C79.3085 10.5303 79.2424 10.5517 79.1545 10.5325L77.7624 10.2282C77.6647 10.2069 77.6363 10.1495 77.6772 10.056L82.8686 1.5484C82.9129 1.48642 82.9741 1.46397 83.0522 1.48105L84.2832 1.75011C84.3613 1.76719 84.4076 1.81313 84.422 1.88792L85.5757 11.7825ZM81.2178 7.34458L83.4892 7.84106L83.3177 6.23744C83.2134 5.2627 83.1646 4.4792 83.1712 3.88695C82.9076 4.48443 82.5314 5.17504 82.0428 5.95878L81.2178 7.34458Z" fill="white"/>
<path d="M88.4214 10.2261L91.0478 3.74826C91.0816 3.66486 91.1449 3.64194 91.2375 3.67951L92.5025 4.1924C92.5859 4.22621 92.6107 4.28483 92.5769 4.36823L89.9505 10.846C89.7776 11.2723 89.7677 11.6028 89.9208 11.8375C90.0831 12.076 90.5117 12.3361 91.2068 12.6179L91.2902 12.6517C91.976 12.9298 92.4601 13.0398 92.7427 12.9817C93.0345 12.9273 93.2668 12.687 93.4396 12.2607L96.066 5.78289C96.0998 5.69948 96.1585 5.67469 96.2419 5.70851L97.5068 6.22139C97.5995 6.25896 97.6289 6.31945 97.5951 6.40286L94.9687 12.8807C94.6155 13.7518 94.1144 14.2824 93.4655 14.4725C92.8165 14.6626 91.9035 14.519 90.7266 14.0418L90.6432 14.008C89.4848 13.5383 88.7343 13.0074 88.3916 12.4153C88.0583 11.8269 88.0682 11.0972 88.4214 10.2261Z" fill="white"/>
<path d="M107.627 12.1737L102.637 20.1456C102.589 20.2218 102.523 20.2334 102.438 20.1804L101.18 19.3924C101.129 19.3606 101.098 19.306 101.087 19.2286L101.152 14.0659C101.144 12.9285 101.21 11.9083 101.351 11.0053C100.953 11.7354 100.497 12.5115 99.9819 13.3337L97.6658 17.0335C97.618 17.1098 97.556 17.1241 97.4797 17.0763L96.3227 16.352C96.238 16.299 96.2195 16.2343 96.2672 16.158L101.258 8.18619C101.305 8.1099 101.372 8.09829 101.456 8.15135L102.715 8.9393C102.774 8.97645 102.805 9.03106 102.807 9.10314L102.743 14.2658C102.73 14.9654 102.709 15.507 102.681 15.8907C102.673 16.2628 102.621 16.7498 102.528 17.3518C102.926 16.6218 103.387 15.8372 103.913 14.9981L106.229 11.2982C106.277 11.2219 106.339 11.2077 106.415 11.2554L107.572 11.9797C107.657 12.0328 107.675 12.0974 107.627 12.1737Z" fill="white"/>
<path d="M107.373 20.714L110.415 17.2964C111.04 16.5943 111.69 16.2625 112.365 16.3011C113.04 16.3397 113.852 16.7812 114.801 17.6255L114.868 17.6853C115.824 18.5363 116.357 19.2915 116.466 19.951C116.575 20.6104 116.317 21.2912 115.692 21.9934L115.353 22.3744C115.294 22.4416 115.23 22.4453 115.163 22.3855L114.143 21.478C114.068 21.4115 114.061 21.3447 114.121 21.2774L114.46 20.8964C114.766 20.5528 114.882 20.2415 114.809 19.9624C114.744 19.69 114.431 19.3044 113.871 18.8058L113.804 18.746C113.251 18.254 112.828 17.9847 112.535 17.938C112.249 17.898 111.953 18.0498 111.647 18.3934L108.606 21.8109C108.3 22.1546 108.184 22.4659 108.257 22.745C108.337 23.0307 108.653 23.4196 109.206 23.9115L109.274 23.9714C109.834 24.47 110.253 24.736 110.531 24.7694C110.817 24.8094 111.113 24.6576 111.418 24.314L111.757 23.933C111.817 23.8658 111.885 23.8654 111.959 23.9319L112.979 24.8394C113.046 24.8992 113.05 24.9627 112.99 25.03L112.651 25.4109C112.026 26.1131 111.38 26.4482 110.712 26.4163C110.044 26.3843 109.232 25.9428 108.276 25.0919L108.209 25.032C107.26 24.1877 106.728 23.4325 106.611 22.7664C106.494 22.1003 106.748 21.4162 107.373 20.714Z" fill="white"/>
<path d="M123.819 27.867L116.506 33.7805C116.436 33.837 116.373 33.8303 116.316 33.7604L115.448 32.6873C115.392 32.6173 115.399 32.554 115.469 32.4974L118.56 29.9981L116.183 27.0588L113.092 29.5581C113.022 29.6146 112.959 29.6079 112.902 29.538L112.044 28.4765C111.981 28.3988 111.984 28.3316 112.054 28.275L119.368 22.3616C119.438 22.305 119.504 22.3156 119.567 22.3933L120.425 23.4548C120.482 23.5248 120.475 23.588 120.405 23.6446L117.349 26.1156L119.726 29.055L122.782 26.584C122.852 26.5274 122.915 26.5341 122.972 26.6041L123.839 27.6772C123.896 27.7472 123.889 27.8104 123.819 27.867Z" fill="white"/>
<path d="M120.633 40.4022L128.999 36.105C129.079 36.0639 129.142 36.0878 129.188 36.1767L129.811 37.3909C129.852 37.471 129.833 37.5315 129.753 37.5727L121.387 41.8699C121.307 41.911 121.246 41.8915 121.205 41.8115L120.582 40.5973C120.536 40.5084 120.553 40.4433 120.633 40.4022Z" fill="white"/>
<path d="M134.283 48.5887L125.429 51.7601C125.344 51.7905 125.285 51.7586 125.251 51.6644L124.751 50.2664C124.73 50.2099 124.74 50.148 124.78 50.0807L128.026 46.0659C128.724 45.1679 129.408 44.4078 130.077 43.7857C129.313 44.1126 128.474 44.4397 127.561 44.7667L123.451 46.2386C123.367 46.269 123.309 46.2418 123.279 46.157L122.818 44.872C122.785 44.7779 122.81 44.7156 122.895 44.6853L131.749 41.5139C131.834 41.4835 131.893 41.5154 131.927 41.6096L132.428 43.0076C132.451 43.0735 132.441 43.1354 132.399 43.1933L129.152 47.2081C128.709 47.7493 128.357 48.162 128.098 48.4461C127.861 48.7329 127.519 49.0837 127.073 49.4984C127.837 49.1715 128.685 48.8411 129.618 48.5073L133.727 47.0354C133.812 47.005 133.869 47.0322 133.899 47.1169L134.36 48.402C134.393 48.4961 134.368 48.5584 134.283 48.5887Z" fill="white"/>
<path d="M130.579 58.7508L131.785 58.6014C131.884 58.5891 131.939 58.6276 131.95 58.7169L132.432 62.6022C132.444 62.7014 132.401 62.7572 132.301 62.7695L131.096 62.9189C131.006 62.93 130.955 62.8859 130.943 62.7867L130.462 58.9014C130.451 58.8121 130.49 58.7619 130.579 58.7508Z" fill="white"/>
</svg>
