<svg width="37" height="36" viewBox="0 0 37 36" fill="none" xmlns="http://www.w3.org/2000/svg"><path d="M37 1.983L35.95 0C21.605 7.755 9.665 8.945 3.674 8.945c-1.356 0-2.318-.044-2.887-.088H.57L0 10.927c6.648 1.499 11.284 4.716 13.164 9.034-3.149 4.89-4.46 9.958-3.98 15.378l3.15.661c3.586-5.508 4.723-11.06 3.192-15.775C20.206 13.483 27.991 7.887 37 1.983zM11.196 33.885c-.131-3.878.787-7.579 2.8-11.148.48 3.393-.482 7.226-2.8 11.148zm3.368-15.863c-1.575-2.908-4.286-5.332-7.916-7.05 4.854-.264 11.808-1.322 20.074-4.45-4.854 3.613-9.053 7.314-12.158 11.5z" fill="#fff"/></svg>