<svg viewBox="0 0 100 100" xmlns="http://www.w3.org/2000/svg"><symbol viewBox="0 0 24 24" id="icon-back"><title>back</title>  <path d="M20.016 11.016v1.969h-12.188l5.578 5.625-1.406 1.406-8.016-8.016 8.016-8.016 1.406 1.406-5.578 5.625h12.188z"/> </symbol><symbol viewBox="0 0 32 32" id="icon-facebook"><title>facebook</title><path d="M22.667 5.333a4 4 0 014 4v13.333a4 4 0 01-4 4H9.334a4 4 0 01-4-4V9.333a4 4 0 014-4h13.333zM9.333 2.667a6.667 6.667 0 00-6.667 6.667v13.333a6.667 6.667 0 006.667 6.667h13.333a6.667 6.667 0 006.667-6.667V9.334a6.667 6.667 0 00-6.667-6.667H9.333z"/><path d="M21.968 17.769l.553-3.143h-3.458v-2.039c0-.86.482-1.699 2.031-1.699h1.573V8.212S21.24 8 19.876 8c-2.849 0-4.71 1.506-4.71 4.231v2.396H12v3.143h3.166v10.099a14.365 14.365 0 003.896 0V17.77h2.905z"/></symbol><symbol viewBox="0 0 32 32" id="icon-file"><title>file</title>  <path d="M32 8v11.2l-12.8 12.8h-11.2c-4.418 0-8-3.582-8-8v-16c0-4.418 3.582-8 8-8h16c4.418 0 8 3.582 8 8zM16 28.8v-4.8c0-4.418 3.582-8 8-8h4.8v-8c0-2.651-2.149-4.8-4.8-4.8h-16c-2.651 0-4.8 2.149-4.8 4.8v16c0 2.651 2.149 4.8 4.8 4.8h8zM19.2 27.475l8.275-8.275h-3.475c-2.651 0-4.8 2.149-4.8 4.8v3.475z"/> </symbol><symbol viewBox="0 0 24 24" id="icon-forward"><title>forward</title>  <path d="M12 3.984l8.016 8.016-8.016 8.016-1.406-1.406 5.578-5.625h-12.188v-1.969h12.188l-5.578-5.625z"/> </symbol><symbol viewBox="0 0 32 32" id="icon-instagram"><title>instagram</title><path d="M3.539 7.035a8.003 8.003 0 013.496-3.496c1.711-.872 3.951-.872 8.432-.872h1.067c4.48 0 6.721 0 8.432.872a8.003 8.003 0 013.496 3.496c.872 1.711.872 3.952.872 8.432v1.067c0 4.48 0 6.721-.872 8.432a8.003 8.003 0 01-3.496 3.496c-1.711.872-3.951.872-8.432.872h-1.067c-4.48 0-6.721 0-8.432-.872a8.003 8.003 0 01-3.496-3.496c-.872-1.711-.872-3.951-.872-8.432v-1.067c0-4.48 0-6.721.872-8.432zm12.994-1.702h-1.067c-2.284 0-3.837.002-5.037.1-1.169.096-1.767.269-2.184.481a5.331 5.331 0 00-2.331 2.331c-.213.417-.386 1.015-.481 2.184-.098 1.2-.1 2.753-.1 5.037v1.067c0 2.284.002 3.837.1 5.037.096 1.169.269 1.767.481 2.184a5.337 5.337 0 002.331 2.331c.417.213 1.015.386 2.184.481 1.2.098 2.753.1 5.037.1h1.067c2.284 0 3.837-.002 5.037-.1 1.169-.095 1.767-.269 2.184-.481a5.337 5.337 0 002.331-2.331c.213-.417.386-1.015.481-2.184.098-1.2.1-2.753.1-5.037v-1.067c0-2.284-.002-3.837-.1-5.037-.095-1.169-.269-1.767-.481-2.184a5.331 5.331 0 00-2.331-2.331c-.417-.213-1.015-.386-2.184-.481-1.2-.098-2.753-.1-5.037-.1zM22.667 16a6.667 6.667 0 10-13.334 0 6.667 6.667 0 0013.334 0zM20 16a4 4 0 11-8 0 4 4 0 018 0zm2.667-5.333a1.333 1.333 0 110-2.667 1.333 1.333 0 010 2.667z"/></symbol><symbol viewBox="0 0 24 24" id="icon-pause"><title>pause</title>  <path d="M14.016 5.016h3.984v13.969h-3.984v-13.969zM6 18.984v-13.969h3.984v13.969h-3.984z"/> </symbol><symbol viewBox="0 0 32 32" id="icon-twitter"><title>twitter</title><path d="M12.14 27c-2.965 0-5.73-.863-8.056-2.351 1.975.128 5.462-.178 7.63-2.247-3.262-.15-4.733-2.651-4.925-3.721.277.107 1.599.235 2.345-.064-3.752-.941-4.328-4.234-4.2-5.239.704.492 1.897.663 2.367.62-3.496-2.502-2.239-6.265-1.62-7.078 2.509 3.476 6.27 5.429 10.922 5.537a5.362 5.362 0 01-.134-1.197c0-2.952 2.386-5.346 5.33-5.346 1.538 0 2.924.653 3.897 1.698 1.028-.241 2.575-.805 3.331-1.292-.381 1.369-1.568 2.51-2.285 2.933.006.014-.006-.014 0 0 .631-.095 2.336-.423 3.01-.88-.333.769-1.591 2.047-2.624 2.763.192 8.471-6.289 15.862-14.987 15.862z"/></symbol><symbol viewBox="0 0 32 32" id="icon-volume"><title>volume</title>  <path d="M4 12v8h5.333l6.667 6.667v-21.333l-6.667 6.667h-5.333zM13.333 11.773v8.453l-2.893-2.893h-3.773v-2.667h3.773l2.893-2.893zM22 16c0-2.36-1.36-4.387-3.333-5.373v10.733c1.973-0.973 3.333-3 3.333-5.36zM18.667 4.307v2.747c3.853 1.147 6.667 4.72 6.667 8.947s-2.813 7.8-6.667 8.947v2.747c5.347-1.213 9.333-5.987 9.333-11.693s-3.987-10.48-9.333-11.693z"/> </symbol></svg>